<svg width="121" height="22" viewBox="0 0 121 22" fill="none" xmlns="http://www.w3.org/2000/svg">
<g clip-path="url(#clip0)">
<path d="M34.9244 9.1585C33.6246 9.31848 32.8047 9.69841 32.2648 10.2383C31.8249 10.6782 31.6049 11.2182 31.6049 11.7581C31.6049 12.7379 32.3048 13.4378 33.1847 13.4378C33.7246 13.4378 34.2645 13.2178 34.5444 12.8979C34.6444 12.7979 34.7644 12.5779 34.7644 12.358L34.9244 9.1585ZM37.144 14.9575C36.0642 14.9575 35.0844 14.2577 34.8044 13.1778C34.2645 14.1577 33.2247 14.9575 31.8849 14.9575C30.3651 14.9575 29.0654 13.7577 29.0654 12.258C29.0654 10.1383 31.065 8.61859 34.8644 8.5786V8.03869C34.9244 6.51894 34.0445 5.5991 32.5248 5.5991C31.445 5.5991 30.3051 6.29898 29.5453 7.21883C29.4853 7.27882 29.1653 6.93887 29.1653 6.89888C30.1452 4.93921 31.9249 3.85939 33.7646 3.85939C35.8842 3.85939 37.404 5.37914 37.344 7.91871L37.184 12.138C37.184 13.1178 37.6239 13.5378 38.1038 13.5378C38.6438 13.5378 39.0237 13.0978 39.2437 12.5179C39.2437 12.458 39.5636 12.6179 39.5636 12.6779C39.5836 14.1377 38.5038 14.9575 37.144 14.9575ZM50.6418 14.5776H47.7622C47.7022 14.5776 47.7022 14.0377 47.7622 14.0377C48.962 13.8777 49.122 13.7577 49.122 11.4381V8.17867C49.122 6.71891 48.2622 5.67908 47.0024 5.67908C46.1425 5.67908 45.3226 6.11901 44.9427 6.65892C44.6628 6.97887 44.5028 7.57876 44.5028 8.33864V11.4181C44.5028 13.7577 44.7827 13.8577 45.9625 14.0177C45.9625 14.0177 46.0225 14.5576 45.9625 14.5576H40.4635C40.4035 14.5576 40.4035 14.0177 40.4035 14.0177C41.7032 13.7977 41.8632 13.7377 41.8632 11.4181V7.45879C41.8632 5.07918 41.5833 4.9592 40.1835 4.75924C40.0835 4.75924 40.1235 4.21933 40.1835 4.21933H44.3028V6.59893H44.3628C45.2826 4.85922 46.7024 3.83939 48.4221 3.83939C50.3818 3.83939 51.8815 5.35914 51.8815 7.85872V11.3781C51.8815 13.7177 52.1015 13.8177 53.4013 13.9777C53.5013 13.9777 53.4613 14.5176 53.4013 14.5176C52.6014 14.5776 51.4016 14.5776 50.6418 14.5776ZM59.3603 14.9575C56.1008 14.9575 54.0012 12.418 54.0012 9.47845C54.0012 6.33897 56.1208 3.83939 59.5803 3.83939C61.2 3.83939 62.0199 4.3793 62.4998 4.3793C62.7197 4.3793 62.9397 4.21933 63.0397 3.93937C63.0397 3.87938 63.6996 3.87938 63.6996 3.93937V7.83872C63.6996 7.89871 63.0397 7.89871 63.0397 7.83872C62.1798 6.05902 60.98 4.53927 59.5803 4.53927C57.8406 4.53927 56.8207 6.37897 56.8207 8.91855C56.8207 11.6181 58.2205 13.4178 60.1802 13.4178C61.4799 13.4178 62.9397 12.4979 63.5396 11.4581C63.5996 11.3581 64.0195 11.5581 64.0195 11.6781C63.3196 13.5378 61.4799 14.9575 59.3603 14.9575ZM72.5381 8.07868V7.31881C72.5381 5.63909 71.7182 4.65925 70.6984 4.65925C69.3986 4.65925 68.4188 6.05902 68.1988 8.07868H72.5381ZM68.1988 9.31848C68.1988 11.6581 69.4986 13.4378 71.7182 13.4378C73.018 13.4378 74.3178 12.5779 75.0177 11.4781C75.0177 11.4181 75.4576 11.5781 75.4576 11.6981C74.8577 13.5378 72.918 14.9575 70.7384 14.9575C67.319 14.9575 65.3193 12.458 65.3193 9.47845C65.3193 6.49895 67.439 3.83939 71.0184 3.83939C73.7179 3.83939 75.5176 5.61909 75.6776 8.05869V8.81856H68.2988C68.1988 8.93854 68.1988 9.2185 68.1988 9.31848ZM81.0967 14.9575C79.417 14.9575 77.9572 14.5176 77.4573 14.1977C77.3973 14.1377 77.2373 12.7379 77.2373 11.3181C77.2373 11.2582 77.8972 11.2182 77.8972 11.3181C78.7571 13.2178 80.0169 14.2976 81.3566 14.2976C82.4964 14.2976 83.3163 13.6977 83.3163 12.7779C83.3163 11.6981 82.0165 11.1982 80.7167 10.6183C79.137 10.0184 77.3573 9.21849 77.3573 7.19883C77.3573 5.61909 78.7171 3.99936 81.2566 3.99936C82.3365 3.99936 83.0363 4.43929 83.5363 4.43929C83.7562 4.43929 83.9762 4.27932 84.1362 3.99936C84.1362 3.93937 84.7961 3.93937 84.7961 3.99936V7.57877C84.7961 7.63876 84.1362 7.63876 84.1362 7.57877C83.2763 5.95904 82.2365 4.81923 80.9967 4.81923C79.8569 4.81923 79.317 5.5791 79.317 6.179C79.317 7.25882 80.5568 7.69874 81.8565 8.23865C83.4363 8.89854 85.276 9.69841 85.276 11.7581C85.276 13.4978 83.6363 14.9575 81.0967 14.9575ZM86.4558 5.35914C86.2958 5.35914 86.2358 4.91921 86.3958 4.81923C87.5356 3.7994 89.4353 2.05969 90.4551 0.979867C90.5151 0.919877 90.895 0.979867 90.895 1.07985V4.27932H94.5744C94.6744 4.27932 94.6744 5.29915 94.5744 5.29915H90.895V11.3181C90.895 12.6779 91.7149 13.2778 92.5748 13.2778C93.2347 13.2778 93.9345 12.7379 94.2545 12.078C94.2545 12.018 94.6944 12.238 94.6944 12.298C94.2545 13.7577 92.8547 14.8975 91.275 14.8975C89.5953 14.8975 88.2355 13.8177 88.2355 11.6981V5.35914H86.4558ZM103.593 7.09885C103.273 7.09885 102.453 6.11901 101.853 6.11901C101.573 6.11901 101.253 6.27898 100.993 6.55894C100.553 6.99886 100.174 8.01869 100.174 8.89855V11.4981C100.174 13.8777 100.553 13.9377 101.793 14.0977C101.793 14.0977 101.853 14.6376 101.793 14.6376H96.0542C95.9942 14.6376 95.9942 14.0977 96.0542 14.0977C97.354 13.8777 97.5139 13.8177 97.5139 11.4981V7.53877C97.5139 5.19916 97.234 5.03919 95.8342 4.83922C95.7342 4.83922 95.7742 4.29931 95.8342 4.29931H100.014V6.99886H100.114C100.214 6.67892 100.434 6.29898 100.593 5.91904C101.353 4.67925 102.273 3.91938 103.253 3.91938C104.173 3.91938 104.933 4.61926 104.933 5.37913C104.993 6.23899 103.853 7.09885 103.593 7.09885ZM114.811 8.49861L111.272 17.5571C110.032 20.7566 108.892 21.3965 107.372 21.3965C106.512 21.3965 105.532 20.9565 105.532 20.6966C105.473 20.2567 106.072 18.6969 106.392 18.6969C106.492 18.6969 107.792 19.2968 108.452 19.2968C109.372 19.2968 109.972 18.6969 110.452 17.3971L111.112 15.6574C110.892 14.7976 108.292 9.09851 107.972 8.33864C107.312 6.81889 106.892 5.63909 106.452 5.19916C106.172 4.91921 105.912 4.81923 105.153 4.71924C105.093 4.71924 105.093 4.17933 105.153 4.17933C105.852 4.17933 107.312 4.23932 108.132 4.23932C108.952 4.23932 110.352 4.17933 111.052 4.17933C111.112 4.17933 111.112 4.71924 111.052 4.71924C109.432 4.93921 109.592 5.47911 110.452 7.63875L112.351 12.238L113.871 8.27865C114.411 6.91888 114.691 6.11901 114.691 5.61909C114.691 5.01919 114.311 4.79923 113.171 4.75924C113.111 4.75924 113.111 4.15934 113.171 4.15934C113.931 4.15934 114.911 4.21933 115.551 4.21933C116.031 4.21933 116.531 4.15934 117.451 4.15934C117.51 4.15934 117.55 4.75924 117.451 4.75924C116.851 4.81923 116.591 4.9792 116.251 5.29915C115.831 5.73907 115.511 6.61893 114.811 8.49861Z" fill="#9CA0AC"/>
<path d="M16.7676 3.5794C14.8679 1.51975 12.9682 1.83969 12.6483 1.89968C12.8083 1.95967 12.9682 5.53908 14.9879 7.41876C16.3477 8.65856 19.1072 8.23862 19.1072 8.23862C19.1072 8.23862 18.6273 5.57907 16.7676 3.5794ZM19.0472 10.5582C18.4473 10.5582 16.0077 10.7782 14.388 12.7779C12.7083 14.8975 12.7683 16.5772 12.3883 16.9572C12.7083 17.0572 16.1277 17.3971 17.5875 15.1775C18.9872 13.1178 19.0472 10.8982 19.0472 10.5582ZM4.2097 9.09848C4.58964 9.15847 5.88942 10.8382 8.22903 11.0582C10.7686 11.3381 11.6485 10.0383 11.6884 10.0383C11.6884 9.87835 9.6288 7.65872 7.34918 7.65872C5.76944 7.69871 4.2097 9.09848 4.2097 9.09848ZM13.4682 10.2383C13.4082 10.2983 11.3085 13.1178 6.30935 12.3579C2.29002 11.698 0.830269 9.47841 0.570312 9.43842C0.89026 8.99849 3.92975 6.5589 7.44916 6.61889C10.9086 6.71888 13.4682 8.67855 13.4682 8.67855H15.6878C13.9081 8.13864 11.7284 7.15881 10.7486 4.99917C9.88876 2.9995 10.0487 1.7997 9.66879 0.119978C9.66879 0.119978 13.6881 -0.199967 16.7676 1.7997C19.5871 3.63939 21.1469 8.51858 21.2069 8.67855H22.9466L22.5666 0L24.7263 0.0599875C24.3463 2.33961 24.8263 18.5969 24.7263 18.5969C24.5063 18.6569 22.6666 18.7569 22.5066 18.3169C22.5066 18.3169 22.9466 10.3583 22.9866 10.1983H21.3068C21.3068 10.2983 21.1469 14.7975 17.7274 17.1971C14.308 19.5767 9.38884 18.8768 9.38884 18.8768C9.98874 17.957 9.38884 16.9772 11.1285 14.3176C13.1282 11.2781 15.7878 10.1983 15.7278 10.1983C15.5878 10.2383 13.5281 10.2383 13.4682 10.2383Z" fill="#9CA0AC"/>
<path d="M119.57 5.17903C119.73 5.17903 119.83 5.11904 119.83 4.97907C119.83 4.85909 119.77 4.7791 119.57 4.7791H119.41V5.17903H119.57ZM119.25 4.63912H119.61C119.81 4.63912 120.01 4.71911 120.01 4.97907C120.01 5.11904 119.93 5.23902 119.81 5.27902L120.07 5.73894H119.87L119.67 5.33901H119.43V5.73894H119.27V4.63912H119.25ZM120.39 5.19903C120.39 4.69911 120.03 4.31918 119.59 4.31918C119.15 4.31918 118.79 4.69911 118.79 5.19903C118.79 5.69895 119.15 6.05888 119.59 6.05888C120.03 6.05888 120.39 5.69895 120.39 5.19903ZM118.65 5.19903C118.65 4.57913 119.09 4.1792 119.61 4.1792C120.13 4.1792 120.57 4.57913 120.57 5.19903C120.57 5.79893 120.15 6.21886 119.61 6.21886C119.09 6.19886 118.65 5.79893 118.65 5.19903Z" fill="#9CA0AC"/>
</g>
<defs>
<clipPath id="clip0">
<rect width="120" height="22" fill="white" transform="translate(0.570312)"/>
</clipPath>
</defs>
</svg>
