<svg width="70" height="34" viewBox="0 0 70 34" fill="none" xmlns="http://www.w3.org/2000/svg">
<path d="M32.0143 5.44131L32.0147 5.44205C32.0653 5.52916 35.1254 10.8176 38.3641 16.4159L37.9432 16.6594L38.3641 16.4159C41.4462 21.7438 44.633 27.2521 44.7088 27.383C44.7785 27.5017 44.9279 27.5904 45.084 27.5904C45.3272 27.5904 45.528 27.391 45.528 27.1441V6.85577C45.528 5.32549 46.7689 4.07852 48.2991 4.07852C49.2777 4.07852 50.1917 4.59772 50.6834 5.44066C50.6836 5.44092 50.6837 5.44118 50.6839 5.44144L50.2519 5.69324C50.3021 5.7786 53.2753 10.9215 56.4618 16.4332L56.5967 16.6666C58.7006 20.3062 60.8535 24.03 62.0308 26.0662C62.5836 27.0224 62.9213 27.6064 62.9377 27.6349L32.0143 5.44131ZM32.0143 5.44131C31.5224 4.59805 30.6082 4.07852 29.6293 4.07852C28.0997 4.07852 26.8582 5.3254 26.8582 6.85577V26.73C26.8582 26.8421 26.7992 27.0058 26.6676 27.1464C26.5405 27.2823 26.3843 27.3555 26.2313 27.3555H16.1257C10.4373 27.3555 5.80664 22.7154 5.80664 17.0102C5.80664 11.305 10.4373 6.66478 16.1257 6.66478H20.814M32.0143 5.44131L20.814 6.66478M20.814 6.66478V9.6577V6.66478ZM53.2539 3.64476C53.4501 3.98086 58.5661 12.8075 60.205 15.6351L53.2539 3.64476ZM53.2539 3.64476C52.2004 1.83934 50.2025 0.698669 48.0761 0.698669C44.7453 0.698669 42.0442 3.40754 42.0442 6.74619V15.5007L53.2539 3.64476ZM63.7448 27.5904C63.5889 27.5904 63.4396 27.5018 63.3698 27.3833L22.3115 23.8626C22.9482 23.8614 23.3854 23.3532 23.3834 22.77H23.8834V22.7695V6.74619C23.8834 3.68243 26.3619 1.19867 29.4153 1.19867C31.3666 1.19867 33.1987 2.24727 34.1613 3.89678L34.1615 3.89706C34.2779 4.09624 36.1398 7.30807 37.9738 10.4722L40.4803 14.7966L41.301 16.2127L41.5305 16.6086L41.5909 16.7128L41.6063 16.7395L41.6102 16.7463L41.6112 16.748L41.6115 16.7484C41.6115 16.7485 41.6116 16.7485 42.0442 16.4978L41.6116 16.7485L42.5442 18.3577V16.4978V6.74619C42.5442 3.68243 45.0227 1.19867 48.0761 1.19867C50.0274 1.19867 51.8595 2.24727 52.8221 3.89678L52.8221 3.89683C52.9385 4.09616 54.8005 7.30821 56.6345 10.4722L59.141 14.7966L59.9618 16.2127L60.1912 16.6086L60.2516 16.7128L60.2671 16.7395L60.271 16.7463L60.272 16.748L60.2723 16.7484C60.2723 16.7485 60.2724 16.7485 60.705 16.4978L60.2724 16.7485L61.205 18.3576V16.4978V1.3406H64.1882V27.1441C64.1882 27.3914 63.9876 27.5904 63.7448 27.5904Z" fill="#9CA0AC" stroke="#9CA0AC"/>
<path d="M20.8142 1.34045H16.1309C7.49946 1.34045 0.5 8.35467 0.5 17.01C0.5 25.6657 7.49948 32.6802 16.1309 32.6802H26.3333H26.3336C28.1691 32.6811 29.6177 32.1441 30.6058 31.1679C31.5924 30.193 32.1809 28.7197 32.1784 26.7258V26.7252V17.5023V15.6425L33.111 17.2515L32.6784 17.5023C33.111 17.2515 33.111 17.2516 33.1111 17.2517L33.1113 17.2521L33.1123 17.2538L33.1163 17.2606L33.1319 17.2875L33.1927 17.3924L33.4237 17.791L34.2496 19.216L36.7682 23.5611C38.6088 26.7365 40.4707 29.9482 40.5613 30.1031L40.5615 30.1035C41.5241 31.7528 43.3562 32.8014 45.3075 32.8014C48.3612 32.8014 50.8392 30.3177 50.8392 27.2542V17.5023V15.6424L51.7718 17.2515L51.3392 17.5023C51.7718 17.2515 51.7718 17.2516 51.7719 17.2517L51.7721 17.2521L51.7731 17.2538L51.777 17.2606L51.7925 17.2873L51.8529 17.3915L52.0824 17.7874L52.9031 19.2036L55.4096 23.528C57.2435 26.6919 59.1055 29.9039 59.222 30.1035C60.1849 31.7528 62.017 32.8014 63.9683 32.8014C67.0217 32.8014 69.5 30.3177 69.5 27.2542V1.34045H66.5165V27.1443C66.5165 28.6749 65.2755 29.9216 63.7453 29.9216C62.7664 29.9216 61.8523 29.402 61.3604 28.5591L61.3599 28.5583C61.3092 28.4711 58.2512 23.1822 55.0152 17.5841C53.6979 15.3059 52.3618 12.9946 51.2577 11.0849L50.7043 10.1276L49.2517 7.61491L48.8343 6.89327L48.7196 6.69508L48.688 6.64044L48.679 6.62494L48.6764 6.62048L48.6756 6.61912L48.6744 6.6172C48.6056 6.49905 48.4559 6.40964 48.2994 6.40964C48.0565 6.40964 47.856 6.60876 47.856 6.85563V27.1443C47.856 28.675 46.6143 29.9216 45.0845 29.9216C44.1054 29.9216 43.1921 29.4019 42.6998 28.5594L42.6991 28.5583C42.6485 28.4712 39.5885 23.1827 36.3498 17.5842M20.8142 1.34045L36.3498 17.5842M20.8142 1.34045V4.33367H16.1262C9.15125 4.33367 3.47916 10.021 3.47916 17.01C3.47916 23.9996 9.15125 29.6867 16.1262 29.6867H26.2319C27.8158 29.6867 29.1862 28.3144 29.1862 26.7302V6.85563C29.1862 6.60876 29.3867 6.40964 29.6296 6.40964C29.7854 6.40964 29.935 6.49847 30.0048 6.61745M20.8142 1.34045L30.0048 6.61745M36.3498 17.5842C35.2288 15.6466 34.0942 13.6854 33.1004 11.9678C31.3532 8.94786 30.0415 6.68056 30.0048 6.61745M36.3498 17.5842L30.0048 6.61745" fill="#9CA0AC" stroke="#9CA0AC"/>
<path d="M3.97949 17.0101C3.97949 23.7245 9.42856 29.1868 16.1263 29.1868H26.2319C27.5393 29.1868 28.6865 28.0388 28.6865 26.73V6.85575C28.6865 6.33408 29.1095 5.90976 29.6299 5.90976C29.9584 5.90976 30.275 6.08841 30.437 6.36527C30.4873 6.45241 33.6879 11.9844 36.7829 17.3339C40.0219 22.9326 43.0812 28.2204 43.1318 28.3072C43.5333 28.9947 44.2813 29.4214 45.0846 29.4214C46.3373 29.4214 47.3563 28.3999 47.3563 27.1441V6.85575C47.3563 6.33408 47.7793 5.90976 48.2997 5.90976C48.6282 5.90976 48.9451 6.08841 49.1068 6.36527C49.1588 6.45444 52.3559 11.9853 55.4484 17.3336C58.6847 22.9323 61.742 28.2204 61.7926 28.3072C62.1938 28.9947 62.9421 29.4214 63.7454 29.4214C64.9981 29.4214 66.0168 28.3999 66.0168 27.1441V0.840576H64.6888V27.1441C64.6888 27.6661 64.2658 28.0904 63.7454 28.0904C63.4169 28.0904 63.1003 27.9118 62.9383 27.6349C62.8866 27.5457 59.6892 22.0152 56.5973 16.6665C53.3604 11.0675 50.3034 5.77979 50.2525 5.69322C49.8513 5.00545 49.103 4.5785 48.2997 4.5785C47.047 4.5785 46.0283 5.60026 46.0283 6.85575V27.1441C46.0283 27.6661 45.605 28.0904 45.0846 28.0904C44.7561 28.0904 44.4395 27.9118 44.2775 27.6349C44.2272 27.5481 41.0266 22.0161 37.9316 16.6662C34.6926 11.0675 31.6333 5.77979 31.5827 5.69322C31.1815 5.00545 30.4332 4.5785 29.6299 4.5785C28.3775 4.5785 27.3588 5.60026 27.3588 6.85575V26.73C27.3588 27.2508 26.8666 27.8555 26.2319 27.8555H16.1263C10.1606 27.8555 5.30723 22.9903 5.30723 17.0101C5.30723 11.0299 10.1606 6.16476 16.1263 6.16476H21.3143V4.8335H16.1263C9.42856 4.8335 3.97949 10.2958 3.97949 17.0101Z" fill="white"/>
</svg>
