<svg width="16" height="16" viewBox="0 0 16 16" fill="none" xmlns="http://www.w3.org/2000/svg">
<path d="M2.44685 10.4797L11.7461 1.1804C11.7649 1.17462 11.7858 1.16851 11.8088 1.16229C11.9391 1.127 12.1267 1.09033 12.347 1.08729C12.7726 1.08142 13.3365 1.19792 13.8878 1.74928C14.4392 2.30064 14.5557 2.86451 14.5498 3.29013C14.5468 3.51041 14.5101 3.69806 14.4748 3.82832C14.4686 3.85128 14.4625 3.87222 14.4567 3.89097L5.15742 13.1903L2.07722 13.5599L2.44685 10.4797ZM14.4183 4.0004L14.4191 3.99853C14.4184 4.0001 14.4181 4.00084 14.4181 4.00072L14.4183 4.0004Z" stroke="#14142B" stroke-width="1.5" stroke-linecap="round"/>
<path d="M9.5114 2.35441L13.1031 5.94607" stroke="#14142B" stroke-width="2"/>
</svg>
