<svg width="121" height="38" viewBox="0 0 121 38" fill="none" xmlns="http://www.w3.org/2000/svg">
<g clip-path="url(#clip0)">
<path d="M4.1186 6.08268V7.93326H8.03783V11.0057H4.1186V22.1397H0.570312V5.77799C0.570312 1.75686 2.96913 3.69116e-05 6.48074 3.69116e-05C7.258 -0.0190376 8.03343 0.0841241 8.77867 0.305749V3.31293C8.30814 3.24883 7.83401 3.2148 7.35915 3.21103C5.33534 3.21001 4.1186 3.88563 4.1186 6.08268ZM36.7278 13.8274C36.7278 16.1576 35.8022 18.3924 34.1544 20.0401C32.5067 21.6878 30.2719 22.6135 27.9417 22.6135C25.6115 22.6135 23.3767 21.6878 21.7289 20.0401C20.0812 18.3924 19.1555 16.1576 19.1555 13.8274C19.1907 11.5203 20.1318 9.31965 21.7757 7.70059C23.4196 6.08154 25.6344 5.17402 27.9417 5.17402C30.249 5.17402 32.4638 6.08154 34.1077 7.70059C35.7516 9.31965 36.6927 11.5203 36.7278 13.8274ZM22.767 13.861C22.731 14.5561 22.8375 15.2512 23.0798 15.9037C23.3221 16.5562 23.6951 17.1523 24.176 17.6555C24.6569 18.1586 25.2356 18.5582 25.8765 18.8297C26.5174 19.1012 27.207 19.2389 27.903 19.2344C28.9854 19.2899 30.0595 19.0192 30.9863 18.4573C31.9131 17.8954 32.6499 17.0683 33.1013 16.083C33.5527 15.0976 33.698 13.9995 33.5182 12.9307C33.3385 11.8619 32.8421 10.8716 32.0932 10.0881C31.3443 9.30464 30.3775 8.76399 29.3179 8.53617C28.2583 8.30834 27.1547 8.40384 26.15 8.8103C25.1453 9.21675 24.2857 9.91544 23.6826 10.8159C23.0794 11.7164 22.7605 12.7772 22.767 13.861ZM49.1469 5.55074V8.69346H48.0606C45.4253 8.69346 43.1947 10.2139 43.1947 13.2893V22.1427H39.6464V5.55074H42.9582V7.71314C43.5268 6.97534 44.2596 6.38039 45.0985 5.97562C45.9374 5.57086 46.8592 5.36745 47.7905 5.38158C48.2483 5.37421 48.7049 5.43115 49.1469 5.55074ZM66.2463 15.0125H53.8732C54.0576 16.2876 54.7175 17.4456 55.7204 18.2543C56.7234 19.0629 57.9951 19.4622 59.2802 19.372C61.082 19.3594 62.8108 18.6583 64.1125 17.4124L65.802 19.8458C64.0275 21.5667 61.6502 22.5249 59.1783 22.5157C58.0299 22.5546 56.8852 22.3649 55.8108 21.9576C54.7364 21.5502 53.7536 20.9333 52.9197 20.1428C52.0858 19.3523 51.4174 18.4039 50.9532 17.3528C50.4891 16.3016 50.2385 15.1687 50.2161 14.0199C50.1937 12.871 50.3999 11.7292 50.8226 10.6608C51.2454 9.59231 51.8763 8.61855 52.6788 7.7961C53.4812 6.97365 54.4391 6.31891 55.4968 5.86994C56.5545 5.42097 57.6909 5.18673 58.84 5.18083C59.8508 5.14679 60.8579 5.31964 61.7995 5.6888C62.7411 6.05795 63.5974 6.61561 64.3157 7.32756C65.034 8.03952 65.5993 8.89074 65.9769 9.82901C66.3545 10.7673 66.5363 11.7728 66.5113 12.7839C66.5015 13.5343 66.411 14.2815 66.2413 15.0125H66.2463ZM53.9465 12.2418H62.9691C62.9765 11.6899 62.8698 11.1424 62.6558 10.6336C62.4418 10.1249 62.125 9.66579 61.7253 9.28514C61.3256 8.90449 60.8517 8.61048 60.3331 8.42152C59.8145 8.23255 59.2624 8.15271 58.7116 8.187C57.5638 8.18601 56.4532 8.59339 55.5783 9.33627C54.7035 10.0791 54.1214 11.109 53.9364 12.2418H53.9465ZM83.7178 11.7689V22.1427H80.1695V12.2418C80.2131 11.745 80.1513 11.2447 79.9883 10.7734C79.8252 10.3022 79.5646 9.87064 79.2233 9.50706C78.882 9.14347 78.4679 8.85602 78.0079 8.66349C77.5479 8.47096 77.0524 8.37769 76.5539 8.38979C76.0469 8.37384 75.542 8.46309 75.0711 8.65191C74.6002 8.84074 74.1736 9.12505 73.818 9.48693C73.4624 9.84881 73.1857 10.2804 73.0052 10.7545C72.8247 11.2287 72.7443 11.735 72.7692 12.2418V22.1427H69.2209V5.55074H72.5328V7.20668C73.1727 6.53968 73.9455 6.01458 74.8014 5.66542C75.6572 5.31625 76.5768 5.15081 77.5006 5.17981C81.4147 5.17879 83.7127 7.8823 83.7127 11.7679L83.7178 11.7689ZM102.248 9.03178L99.7473 10.9914C99.2805 10.2247 98.626 9.58963 97.8455 9.14619C97.0651 8.70275 96.1845 8.46557 95.2869 8.45704C93.8889 8.50414 92.5639 9.0926 91.5916 10.0982C90.6193 11.1038 90.0757 12.4479 90.0757 13.8467C90.0757 15.2456 90.6193 16.5896 91.5916 17.5953C92.5639 18.6009 93.8889 19.1893 95.2869 19.2364C96.1803 19.2263 97.0568 18.992 97.8361 18.5551C98.6154 18.1182 99.2725 17.4926 99.7473 16.7357L102.248 18.6617C101.521 19.8596 100.492 20.8457 99.265 21.5216C98.0375 22.1976 96.6543 22.5396 95.2533 22.5137C94.1072 22.5261 92.9699 22.3111 91.9075 21.8811C90.845 21.4511 89.8783 20.8146 89.0635 20.0085C88.2486 19.2025 87.6017 18.2428 87.1602 17.185C86.7187 16.1272 86.4914 14.9924 86.4914 13.8462C86.4914 12.7 86.7187 11.5652 87.1602 10.5075C87.6017 9.4497 88.2486 8.49001 89.0635 7.68393C89.8783 6.87785 90.845 6.24139 91.9075 5.81138C92.9699 5.38138 94.1072 5.16637 95.2533 5.17879C96.6542 5.14613 98.0388 5.48541 99.2659 6.16206C100.493 6.83872 101.519 7.82857 102.239 9.03076L102.248 9.03178ZM120.305 15.0135H107.932C108.116 16.2886 108.776 17.4467 109.779 18.2553C110.782 19.0639 112.054 19.4632 113.339 19.373C115.141 19.3603 116.869 18.6592 118.171 17.4134L119.861 19.8468C118.086 21.5677 115.709 22.526 113.237 22.5167C112.089 22.5557 110.944 22.3659 109.87 21.9586C108.795 21.5512 107.812 20.9344 106.978 20.1438C106.145 19.3533 105.476 18.4049 105.012 17.3538C104.548 16.3027 104.297 15.1697 104.275 14.0209C104.252 12.8721 104.459 11.7302 104.881 10.6618C105.304 9.59333 105.935 8.61957 106.737 7.79712C107.54 6.97467 108.498 6.31992 109.556 5.87095C110.613 5.42198 111.75 5.18774 112.899 5.18185C113.909 5.14781 114.917 5.32066 115.858 5.68982C116.8 6.05897 117.656 6.61663 118.374 7.32858C119.093 8.04054 119.658 8.89176 120.036 9.83003C120.413 10.7683 120.595 11.7738 120.57 12.7849C120.56 13.535 120.47 14.2818 120.3 15.0125L120.305 15.0135ZM108.005 12.2428H117.028C117.035 11.6909 116.929 11.1434 116.715 10.6346C116.5 10.1259 116.184 9.66681 115.784 9.28616C115.384 8.90551 114.91 8.6115 114.392 8.42254C113.873 8.23357 113.321 8.15373 112.77 8.18802C111.623 8.18795 110.514 8.59563 109.64 9.33822C108.766 10.0808 108.184 11.1099 107.999 12.2418L108.005 12.2428ZM15.7428 0.370967H12.1945V22.1417H15.7428V0.370967Z" fill="#9CA0AC"/>
<path d="M48.2215 32.9659C48.2446 33.2927 48.2005 33.6207 48.0918 33.9297C47.983 34.2387 47.812 34.5221 47.5894 34.7623C47.3667 35.0025 47.0971 35.1945 46.7972 35.3264C46.4974 35.4582 46.1737 35.5271 45.8461 35.5288C45.5442 35.542 45.2436 35.4825 44.9696 35.3551C44.6956 35.2278 44.4562 35.0364 44.2717 34.7971V35.4086H43.0488V27.9849H44.3848V30.9839C44.5736 30.7881 44.8019 30.6348 45.0546 30.5341C45.3073 30.4334 45.5785 30.3877 45.8502 30.4C46.1777 30.4022 46.5012 30.4716 46.8008 30.6039C47.1004 30.7362 47.3697 30.9285 47.5919 31.169C47.8142 31.4095 47.9848 31.6931 48.0931 32.0022C48.2013 32.3113 48.2451 32.6393 48.2215 32.9659ZM46.8651 32.9557C46.8771 32.7826 46.8531 32.6088 46.7947 32.4454C46.7363 32.282 46.6448 32.1323 46.5259 32.0059C46.4069 31.8795 46.2632 31.7791 46.1036 31.7109C45.944 31.6427 45.772 31.6082 45.5985 31.6096C45.2604 31.639 44.9455 31.7941 44.7162 32.0442C44.4868 32.2944 44.3596 32.6214 44.3596 32.9608C44.3596 33.3002 44.4868 33.6273 44.7162 33.8774C44.9455 34.1276 45.2604 34.2827 45.5985 34.3121C45.7728 34.3131 45.9455 34.278 46.1056 34.2091C46.2657 34.1401 46.4098 34.0387 46.5288 33.9113C46.6478 33.7838 46.7391 33.6332 46.797 33.4687C46.8549 33.3043 46.8781 33.1296 46.8651 32.9557Z" fill="#9CA0AC"/>
<path d="M53.8163 30.5099L51.4725 35.8354C51.3529 36.2602 51.0977 36.6342 50.7457 36.9004C50.3938 37.1667 49.9644 37.3105 49.5231 37.31C49.2323 37.3057 48.9431 37.2656 48.662 37.1908V36.0698C48.8892 36.0892 49.0778 36.1096 49.2357 36.1096C49.4555 36.1304 49.6759 36.0761 49.861 35.9556C50.046 35.8352 50.1848 35.6556 50.2548 35.4462L50.4035 35.119L48.5234 30.5059H49.9389L51.1362 33.723L52.4141 30.5059L53.8163 30.5099Z" fill="#9CA0AC"/>
<path d="M64.724 32.3718V35.4106H63.387V32.5573C63.4006 32.4359 63.388 32.313 63.3501 32.197C63.3122 32.0809 63.2499 31.9742 63.1674 31.8843C63.0848 31.7943 62.9839 31.723 62.8715 31.6753C62.7591 31.6275 62.6378 31.6044 62.5157 31.6075C62.3948 31.6028 62.2741 31.6234 62.1616 31.668C62.0491 31.7126 61.9471 31.7803 61.8623 31.8667C61.7775 31.953 61.7116 32.0562 61.669 32.1695C61.6264 32.2828 61.608 32.4038 61.6149 32.5247V35.4045H60.2779V32.5512C60.2917 32.4298 60.2792 32.3068 60.2414 32.1907C60.2036 32.0745 60.1413 31.9678 60.0587 31.8778C59.9761 31.7878 59.8751 31.7165 59.7627 31.6688C59.6502 31.6211 59.5288 31.5982 59.4066 31.6014C59.2829 31.5967 59.1595 31.6184 59.0448 31.6652C58.93 31.7119 58.8266 31.7826 58.7413 31.8725C58.6561 31.9623 58.591 32.0694 58.5504 32.1864C58.5098 32.3034 58.4946 32.4278 58.5058 32.5512V35.4045H57.1699V30.5049H58.3927V30.9411C58.5745 30.7611 58.791 30.62 59.0291 30.5264C59.2672 30.4329 59.5219 30.3888 59.7776 30.3969C60.0602 30.3796 60.3426 30.4351 60.5975 30.5582C60.8525 30.6814 61.0716 30.8679 61.2338 31.1C61.4391 30.8726 61.691 30.6921 61.9724 30.5707C62.2537 30.4494 62.5579 30.3901 62.8642 30.3969C63.1219 30.3838 63.3794 30.4269 63.6188 30.5231C63.8582 30.6194 64.0738 30.7665 64.2507 30.9544C64.4276 31.1422 64.5615 31.3663 64.6433 31.611C64.725 31.8558 64.7525 32.1154 64.724 32.3718Z" fill="#9CA0AC"/>
<path d="M67.4256 28.7287C67.4306 28.8995 67.3846 29.0678 67.2933 29.2122C67.202 29.3566 67.0696 29.4704 66.9131 29.539C66.7567 29.6076 66.5833 29.6279 66.4153 29.5973C66.2472 29.5667 66.0921 29.4865 65.9699 29.3671C65.8478 29.2477 65.7641 29.0945 65.7296 28.9272C65.6951 28.7599 65.7114 28.5861 65.7764 28.4281C65.8414 28.2701 65.9521 28.1352 66.0943 28.0406C66.2366 27.946 66.4038 27.896 66.5747 27.8972C66.6855 27.8947 66.7956 27.9144 66.8987 27.9551C67.0017 27.9958 67.0957 28.0566 67.1749 28.1341C67.2542 28.2115 67.3171 28.304 67.3602 28.4061C67.4032 28.5082 67.4255 28.6179 67.4256 28.7287ZM67.2381 35.4095H65.9021V30.51H67.2381V35.4095Z" fill="#9CA0AC"/>
<path d="M69.8018 35.4105H68.4658V27.9868H69.8018V35.4105Z" fill="#9CA0AC"/>
<path d="M72.3681 35.4105H71.0322V27.9868H72.3681V35.4105Z" fill="#9CA0AC"/>
<path d="M77.0189 31.1346L76.3453 31.956C76.0519 31.6665 75.6589 31.5003 75.2468 31.4913C74.9299 31.4913 74.723 31.6003 74.723 31.8378C74.723 32.0365 74.881 32.1353 75.2325 32.2729L75.7074 32.4716C76.5889 32.8283 77.0841 33.2033 77.0841 33.9666C77.0841 34.9764 76.2424 35.5308 75.1734 35.5308C74.7847 35.5412 74.3988 35.4608 74.0466 35.2959C73.6944 35.131 73.3855 34.8863 73.1445 34.581L73.8181 33.7658C73.9898 33.9646 74.2005 34.1261 74.4371 34.2402C74.6738 34.3543 74.9313 34.4186 75.1938 34.4292C75.5311 34.4292 75.8175 34.3008 75.8175 34.0216C75.8175 33.7933 75.6136 33.7047 75.3079 33.5763L74.7831 33.3582C73.9516 33.0219 73.4472 32.6357 73.4472 31.8633C73.4472 30.9237 74.2084 30.3887 75.2478 30.3887C75.5795 30.3767 75.9099 30.4372 76.2158 30.566C76.5217 30.6949 76.7957 30.8889 77.0189 31.1346Z" fill="#9CA0AC"/>
<path d="M78.3702 30.0739H77.9738V31.0736H77.7343V30.0739H77.3379V29.8538H78.3691L78.3702 30.0739ZM79.7499 31.0736H79.5084V30.401L79.1966 30.8086H79.1161L78.8104 30.401V31.0746H78.5658V29.8354H78.6463L79.163 30.5009L79.6725 29.8354H79.751L79.7499 31.0736Z" fill="#9CA0AC"/>
</g>
<defs>
<clipPath id="clip0">
<rect width="120" height="38" fill="white" transform="translate(0.570312)"/>
</clipPath>
</defs>
</svg>
