<svg width="189" height="38" viewBox="0 0 189 38" fill="none" xmlns="http://www.w3.org/2000/svg">
<path d="M62.5714 8.78638H62.6344C63.0123 8.78638 63.2328 9.06983 63.2328 9.44777V26.4235C63.2328 26.7069 63.0123 27.0219 62.6344 27.0219C62.3509 27.0219 62.036 26.8014 62.036 26.4235V9.38478C62.036 9.06983 62.2564 8.78638 62.5714 8.78638ZM46.4146 9.66823H57.5322C57.9102 9.66823 58.1306 10.0462 58.1306 10.3296C58.1306 10.6131 57.9102 10.928 57.5322 10.928H47.013V18.0144H56.5244C56.8078 18.0144 57.1228 18.2348 57.1228 18.6128C57.1228 18.8962 56.9023 19.2112 56.5244 19.2112H47.1074V26.5179C47.0445 26.8959 46.7295 27.1793 46.3831 27.1793C46.0051 27.1793 45.7217 26.8959 45.7217 26.5179V10.3611H45.7847C45.7532 9.95168 46.0681 9.66823 46.4146 9.66823ZM78.6967 14.9279C78.6967 14.5499 78.4133 14.3295 78.0983 14.3295C77.7204 14.3295 77.4999 14.6129 77.4999 14.9279V22.0142C77.4999 24.4393 75.5157 26.329 73.0906 26.266C70.5081 26.266 69.0278 24.5968 69.0278 21.9512V14.9279C69.0278 14.5499 68.7444 14.3295 68.4294 14.3295C68.146 14.3295 67.831 14.6129 67.831 14.9279V22.1717C67.831 25.1637 69.7522 27.3683 72.9017 27.3683C74.8229 27.4313 76.6495 26.4235 77.5314 24.7227V26.5494C77.5314 26.9274 77.8149 27.1478 78.1298 27.1478C78.5077 27.1478 78.7282 26.8644 78.7282 26.5494H78.6652V14.9279H78.6967ZM89.8773 15.0223C89.8773 15.3058 89.5939 15.5263 89.2789 15.5263H85.2161V23.6519C85.2161 25.4786 86.2555 26.14 87.7987 26.14C88.3026 26.14 88.838 26.077 89.2789 25.9195C89.5624 25.9195 89.7829 26.14 89.7829 26.4235C89.7829 26.6439 89.6254 26.8644 89.4049 26.9274C88.8065 27.1478 88.1451 27.2108 87.5782 27.2108C85.6571 27.2108 84.0508 26.1085 84.0508 23.7779V15.5263H82.6651C82.3816 15.5263 82.0667 15.2428 82.0667 14.9279C82.0667 14.6444 82.3501 14.4239 82.6651 14.4239H84.0508V10.928C84.0508 10.6446 84.2713 10.3296 84.5547 10.3296H84.6177C84.9012 10.3296 85.2161 10.6131 85.2161 10.928V14.4239H89.2789C89.5939 14.4239 89.8773 14.7074 89.8773 15.0223ZM99.3258 15.5263C99.6092 15.5263 99.9242 15.3058 99.9242 15.0223C99.9242 14.7389 99.6407 14.4239 99.3258 14.4239H95.263V10.928C95.263 10.6446 94.9795 10.3296 94.6646 10.3296H94.6016C94.3181 10.3296 94.0977 10.6131 94.0977 10.928V14.4239H92.7119C92.4284 14.4239 92.1135 14.6444 92.1135 14.9279C92.1135 15.2113 92.3969 15.5263 92.7119 15.5263H94.0977V23.7779C94.0977 26.1085 95.7039 27.2108 97.6251 27.2108C98.2235 27.2108 98.8849 27.1478 99.4518 26.9274C99.6722 26.8644 99.8297 26.6439 99.8297 26.4235C99.8297 26.14 99.6092 25.9195 99.3258 25.9195C98.8849 26.077 98.3809 26.14 97.8455 26.14C96.3023 26.14 95.263 25.4786 95.263 23.6519V15.5263H99.3258ZM102.129 20.7229C102.129 17.0065 104.711 14.0775 108.176 14.0775C111.798 14.0775 114.065 17.0065 114.065 20.7229C114.065 21.0063 113.782 21.3213 113.467 21.3213H103.452C103.672 24.4708 105.971 26.2975 108.459 26.2975C110.003 26.2975 111.546 25.6361 112.585 24.5338C112.648 24.4708 112.806 24.3763 112.963 24.3763C113.246 24.3763 113.561 24.6597 113.561 24.9747C113.561 25.1322 113.498 25.2582 113.341 25.4156C112.081 26.8014 110.254 27.5258 108.396 27.4628C104.995 27.4628 102.129 24.8172 102.129 20.8174V20.7229ZM118.853 18.0773C119.671 15.9672 121.656 14.4239 123.923 14.2665C124.301 14.2665 124.585 14.5499 124.585 14.9909C124.585 15.2743 124.364 15.6522 123.986 15.6522H123.923C121.183 15.9357 118.853 17.9199 118.853 22.0142V26.7069C118.79 27.0848 118.569 27.3053 118.191 27.3053C117.908 27.3053 117.593 27.0219 117.593 26.7069V14.9909C117.656 14.6129 117.876 14.3925 118.254 14.3925C118.538 14.3925 118.853 14.6759 118.853 14.9909V18.0773ZM144.017 13.6051C143.135 13.6051 142.411 14.2035 142.19 15.0538L140.049 21.8567L137.907 15.0538C137.686 14.172 136.868 13.5106 135.923 13.5106H135.702C134.757 13.5106 133.939 14.109 133.718 15.0538L131.576 21.7937L129.529 14.9909C129.309 14.172 128.584 13.5421 127.703 13.5421H127.64C126.695 13.5421 125.939 14.361 125.939 15.3058C125.939 15.5893 126.002 15.9042 126.096 16.1876L129.403 25.6361C129.624 26.5809 130.443 27.2423 131.45 27.3053H131.608C132.553 27.3053 133.372 26.6439 133.655 25.6991L135.797 18.9592L137.938 25.6991C138.159 26.6439 139.041 27.3053 139.986 27.3053H140.143C141.182 27.3053 142.064 26.6439 142.285 25.6361L145.592 16.1247C145.655 15.9042 145.749 15.6207 145.749 15.4003V15.3373C145.718 14.361 144.993 13.6051 144.017 13.6051ZM149.182 14.2665C150.568 13.8255 151.985 13.5421 153.465 13.6051C155.512 13.6051 156.993 14.2035 158.095 15.1483C159.134 16.3136 159.638 17.8569 159.575 19.4001V25.3841C159.575 26.4235 158.756 27.2108 157.749 27.2108C156.804 27.2108 155.985 26.5494 155.922 25.6046C154.883 26.7069 153.402 27.3683 151.859 27.2738C149.434 27.2738 147.292 25.8251 147.292 23.1795C147.292 20.2505 149.497 18.8647 152.678 18.8647C153.78 18.8647 154.883 19.0222 155.922 19.3686V19.1482C155.922 17.5419 154.977 16.7231 153.056 16.7231C152.174 16.7231 151.292 16.786 150.41 17.101C150.253 17.164 150.032 17.164 149.906 17.164C149.025 17.227 148.3 16.5656 148.3 15.7152C148.237 15.0853 148.584 14.4869 149.182 14.2665ZM170.913 14.8649C171.134 14.046 171.858 13.5421 172.677 13.5421C173.716 13.5421 174.504 14.361 174.504 15.3058V15.3688C174.504 15.6522 174.441 15.9672 174.283 16.2506L170.315 25.6991C169.937 26.6439 169.055 27.2423 168.11 27.3053H167.89C166.851 27.2423 166.063 26.5809 165.748 25.6361L161.622 16.1876C161.465 15.9042 161.402 15.5893 161.402 15.3058C161.465 14.2665 162.284 13.5421 163.229 13.5421C164.111 13.5421 164.835 14.1405 165.055 14.9279L167.921 22.6126L170.913 14.8649ZM176.016 21.0064C176.173 24.6598 179.323 27.5258 183.007 27.3053C184.708 27.3053 186.314 26.8014 187.637 25.6991C188.015 25.4156 188.141 25.0377 188.141 24.5968V24.5338C188.141 23.7149 187.48 23.085 186.661 23.085C186.377 23.085 185.999 23.148 185.779 23.3685C184.96 23.9669 184.015 24.3133 183.039 24.2503C181.433 24.3133 180.015 23.211 179.795 21.6048H187.385C188.33 21.5418 189.086 20.7229 188.991 19.7781V19.4946C188.991 16.1876 186.125 13.4161 182.598 13.5106C178.693 13.5106 175.953 16.6601 175.953 20.4709V21.0064H176.016Z" fill="#9CA0AC"/>
<path d="M103.357 20.1245C103.578 17.353 105.562 15.2113 108.082 15.2113C110.948 15.2113 112.491 17.5419 112.648 20.1245H103.357ZM155.954 22.3291C155.954 23.7779 154.694 24.6597 152.93 24.5968C151.765 24.5968 150.883 23.9984 150.883 22.9905V22.9275C150.883 21.8252 151.922 21.1008 153.529 21.1008C154.347 21.1008 155.229 21.3213 155.954 21.6048V22.3291ZM182.63 16.5341C181.087 16.5341 180.047 17.6364 179.764 19.4001H185.433C185.212 17.6994 184.173 16.5341 182.63 16.5341Z" fill="#FAFAFA"/>
<path d="M26.6994 0.377299C43.2657 -2.11079 32.6519 11.9989 27.5183 15.9672C31.0457 18.6758 34.6676 22.4866 36.2108 26.8014C39.0769 34.7066 32.022 35.8719 26.6994 33.8877C20.8729 31.8406 15.7392 27.4628 12.3378 22.3291C11.393 22.3291 10.3536 22.1717 9.3773 21.8882C11.2985 27.3053 12.1173 32.8484 11.5819 37.3837C11.5819 28.2502 7.23566 19.1797 0.968196 11.6209C-1.23644 8.97537 1.03118 7.02269 3.01535 9.57377C4.36963 11.432 5.59793 13.3531 6.70024 15.3373C8.87338 7.90455 19.4556 1.41663 26.6994 0.377299ZM24.3373 13.8256C27.5813 11.8414 37.4391 1.25915 28.2427 2.204C22.9515 2.8024 16.5266 7.68408 13.881 10.8336C17.5659 10.3926 21.3138 11.9989 24.3373 13.8256ZM15.2038 22.0457C18.1643 25.3526 22.1957 28.5651 26.5419 29.7304C29.0615 30.3918 31.8331 30.1084 30.8252 26.518C29.7859 23.211 27.1403 20.3135 24.5578 18.1089C23.8334 18.6128 23.0145 19.1482 22.1957 19.4946C19.991 20.7229 17.6289 21.6048 15.2038 22.0457Z" fill="#9CA0AC"/>
<path d="M13.7865 13.1642C16.3061 12.9437 19.0147 14.2665 21.0933 15.5893C19.1092 16.5341 16.9045 17.1325 14.6054 17.2585C11.2355 17.29 10.5426 13.4791 13.7865 13.1642Z" fill="#FAFAFA"/>
</svg>
