<svg width="630" height="718" viewBox="0 0 630 718" fill="none" xmlns="http://www.w3.org/2000/svg">
<g filter="url(#filter0_d)">
<g filter="url(#filter1_d)">
<rect x="260" y="362.999" width="330" height="300" rx="30" fill="white"/>
</g>
<path d="M497.9 532.404C497.9 573.784 464.355 607.329 422.975 607.329C381.595 607.329 348.05 573.784 348.05 532.404C348.05 491.024 381.595 457.479 422.975 457.479C464.355 457.479 497.9 491.024 497.9 532.404ZM370.527 532.404C370.527 561.37 394.009 584.852 422.975 584.852C451.941 584.852 475.422 561.37 475.422 532.404C475.422 503.438 451.941 479.957 422.975 479.957C394.009 479.957 370.527 503.438 370.527 532.404Z" fill="#EFF3FE"/>
<path d="M503.24 552.964C500.487 563.238 495.737 572.87 489.262 581.309C482.786 589.748 474.712 596.829 465.5 602.147C456.288 607.466 446.119 610.918 435.573 612.306C425.027 613.695 414.31 612.992 404.036 610.239L414.518 571.119C419.655 572.496 425.013 572.847 430.286 572.153C435.559 571.459 440.644 569.733 445.25 567.073C449.856 564.414 453.893 560.874 457.131 556.654C460.369 552.435 462.743 547.619 464.12 542.481L503.24 552.964Z" fill="url(#paint0_linear)"/>
<path d="M425 612.999C414.363 612.999 403.83 610.904 394.003 606.834C384.175 602.763 375.246 596.796 367.724 589.275C360.203 581.753 354.236 572.824 350.166 562.997C347.13 555.669 345.194 547.949 344.405 540.086C343.958 535.635 347.626 531.999 352.1 531.999H376.4C380.874 531.999 384.419 535.661 385.307 540.045C385.823 542.591 386.584 545.087 387.583 547.498C389.618 552.412 392.601 556.876 396.362 560.637C400.123 564.398 404.588 567.381 409.501 569.416C414.415 571.452 419.681 572.499 425 572.499L425 612.999Z" fill="url(#paint1_linear)"/>
<path d="M425 459.099C425 454.626 428.635 450.957 433.087 451.404C443.065 452.405 452.796 455.253 461.773 459.828C473.163 465.631 483.017 474.047 490.53 484.389C498.044 494.73 503.003 506.703 505.003 519.328C507.002 531.953 505.986 544.873 502.036 557.03L463.518 544.514C465.493 538.436 466.001 531.976 465.001 525.664C464.002 519.351 461.522 513.365 457.765 508.194C454.008 503.023 449.081 498.815 443.387 495.914C440.108 494.243 436.628 493.033 433.046 492.307C428.662 491.418 425 487.873 425 483.399V459.099Z" fill="url(#paint2_linear)"/>
<path d="M375.438 401.14V399.704H369.637V401.472H373.279V401.716C373.25 403.855 371.668 405.32 369.383 405.32C366.697 405.32 365.027 403.24 365.027 399.87C365.027 396.56 366.648 394.587 369.344 394.587C371.18 394.587 372.557 395.593 373.084 397.341H375.33C374.842 394.529 372.469 392.673 369.334 392.673C365.32 392.673 362.791 395.447 362.791 399.89C362.791 404.411 365.33 407.234 369.363 407.234C373.182 407.234 375.438 404.958 375.438 401.14ZM377.9 406.999H380.01V392.907H377.9V406.999ZM387.092 407.195C390.031 407.195 391.965 405.173 391.965 401.863C391.965 398.562 390.021 396.54 387.092 396.54C384.162 396.54 382.219 398.562 382.219 401.863C382.219 405.173 384.152 407.195 387.092 407.195ZM387.092 405.456C385.441 405.456 384.367 404.148 384.367 401.863C384.367 399.587 385.441 398.279 387.092 398.279C388.742 398.279 389.816 399.587 389.816 401.863C389.816 404.148 388.752 405.456 387.092 405.456ZM399.564 407.175C402.172 407.175 403.852 405.124 403.852 401.863C403.852 398.611 402.162 396.56 399.574 396.56C398.119 396.56 396.947 397.282 396.332 398.474H396.283V392.907H394.174V406.999H396.225V405.251H396.264C396.898 406.443 398.061 407.175 399.564 407.175ZM398.998 398.337C400.658 398.337 401.684 399.704 401.684 401.863C401.684 404.04 400.658 405.388 398.998 405.388C397.396 405.388 396.273 404.001 396.273 401.863C396.273 399.743 397.396 398.337 398.998 398.337ZM409.596 405.505C408.463 405.505 407.721 404.919 407.721 404.021C407.721 403.142 408.434 402.585 409.693 402.497L412.223 402.341V403.152C412.223 404.49 411.07 405.505 409.596 405.505ZM409.01 407.175C410.357 407.175 411.656 406.452 412.252 405.31H412.301V406.999H414.322V399.919C414.322 397.859 412.73 396.54 410.24 396.54C407.701 396.54 406.119 397.907 406.002 399.763H407.994C408.18 398.845 408.941 398.259 410.162 398.259C411.451 398.259 412.223 398.943 412.223 400.085V400.876L409.41 401.042C406.969 401.179 405.592 402.282 405.592 404.079C405.592 405.925 406.998 407.175 409.01 407.175ZM416.951 406.999H419.061V392.907H416.951V406.999ZM425.91 403.132C426.047 405.642 428.166 407.234 431.35 407.234C434.631 407.234 436.721 405.564 436.721 402.907C436.721 400.857 435.51 399.675 432.561 399.05L431.018 398.728C429.191 398.337 428.469 397.654 428.469 396.628C428.469 395.339 429.68 394.538 431.33 394.538C433.039 394.538 434.201 395.407 434.338 396.823H436.457C436.389 394.363 434.348 392.673 431.359 392.673C428.361 392.673 426.242 394.333 426.242 396.745C426.242 398.777 427.521 400.085 430.344 400.681L431.877 401.003C433.762 401.413 434.504 402.097 434.504 403.191C434.504 404.45 433.225 405.368 431.438 405.368C429.562 405.368 428.234 404.529 428.039 403.132H425.91ZM439.555 394.294V396.726H438.061V398.396H439.555V404.294C439.555 406.277 440.365 407.068 442.445 407.068C442.914 407.068 443.383 407.029 443.617 406.97V405.3C443.48 405.329 443.139 405.349 442.924 405.349C442.064 405.349 441.674 404.948 441.674 404.06V398.396H443.627V396.726H441.674V394.294H439.555ZM449.303 405.505C448.17 405.505 447.428 404.919 447.428 404.021C447.428 403.142 448.141 402.585 449.4 402.497L451.93 402.341V403.152C451.93 404.49 450.777 405.505 449.303 405.505ZM448.717 407.175C450.064 407.175 451.363 406.452 451.959 405.31H452.008V406.999H454.029V399.919C454.029 397.859 452.438 396.54 449.947 396.54C447.408 396.54 445.826 397.907 445.709 399.763H447.701C447.887 398.845 448.648 398.259 449.869 398.259C451.158 398.259 451.93 398.943 451.93 400.085V400.876L449.117 401.042C446.676 401.179 445.299 402.282 445.299 404.079C445.299 405.925 446.705 407.175 448.717 407.175ZM457.195 394.294V396.726H455.701V398.396H457.195V404.294C457.195 406.277 458.006 407.068 460.086 407.068C460.555 407.068 461.023 407.029 461.258 406.97V405.3C461.121 405.329 460.779 405.349 460.564 405.349C459.705 405.349 459.314 404.948 459.314 404.06V398.396H461.268V396.726H459.314V394.294H457.195ZM463.574 406.999H465.684V396.726H463.574V406.999ZM464.629 395.066C465.303 395.066 465.84 394.519 465.84 393.855C465.84 393.181 465.303 392.644 464.629 392.644C463.955 392.644 463.408 393.181 463.408 393.855C463.408 394.519 463.955 395.066 464.629 395.066ZM468.156 399.636C468.156 401.13 469.123 402.068 471.076 402.517L472.746 402.907C473.869 403.161 474.25 403.552 474.25 404.216C474.25 405.056 473.469 405.583 472.199 405.583C470.91 405.583 470.178 405.056 469.982 403.982H467.893C468.088 405.935 469.631 407.195 472.199 407.195C474.621 407.195 476.369 405.906 476.369 404.031C476.369 402.546 475.568 401.726 473.469 401.238L471.799 400.857C470.686 400.603 470.217 400.163 470.217 399.519C470.217 398.698 470.979 398.142 472.121 398.142C473.303 398.142 474.035 398.767 474.152 399.763H476.135C476.066 397.868 474.514 396.54 472.121 396.54C469.758 396.54 468.156 397.8 468.156 399.636ZM479.125 394.294V396.726H477.631V398.396H479.125V404.294C479.125 406.277 479.936 407.068 482.016 407.068C482.484 407.068 482.953 407.029 483.188 406.97V405.3C483.051 405.329 482.709 405.349 482.494 405.349C481.635 405.349 481.244 404.948 481.244 404.06V398.396H483.197V396.726H481.244V394.294H479.125ZM485.504 406.999H487.613V396.726H485.504V406.999ZM486.559 395.066C487.232 395.066 487.77 394.519 487.77 393.855C487.77 393.181 487.232 392.644 486.559 392.644C485.885 392.644 485.338 393.181 485.338 393.855C485.338 394.519 485.885 395.066 486.559 395.066ZM499.09 400.261C498.904 398.24 497.293 396.54 494.646 396.54C491.727 396.54 489.812 398.601 489.812 401.863C489.812 405.183 491.727 407.195 494.666 407.195C497.137 407.195 498.885 405.71 499.109 403.523H497.078C496.834 404.714 495.984 405.427 494.686 405.427C493.045 405.427 491.961 404.118 491.961 401.863C491.961 399.656 493.035 398.298 494.666 398.298C496.043 398.298 496.863 399.167 497.078 400.261H499.09Z" fill="#121212"/>
<path d="M382.592 524.223C386.208 521.717 388.016 519.637 388.016 517.983C388.016 517.482 387.893 517.087 387.648 516.799C387.413 516.511 387.04 516.367 386.528 516.367C385.472 516.367 384.912 517.087 384.848 518.527H382.656C382.72 517.194 383.125 516.186 383.872 515.503C384.619 514.81 385.563 514.463 386.704 514.463C387.867 514.463 388.757 514.767 389.376 515.375C390.005 515.973 390.32 516.773 390.32 517.775C390.32 518.565 390.085 519.359 389.616 520.159C389.157 520.949 388.571 521.679 387.856 522.351C387.141 523.013 386.389 523.583 385.6 524.063H390.544V525.903H382.592V524.223ZM395.879 514.271C396.647 514.271 397.303 514.405 397.847 514.671C398.401 514.938 398.817 515.306 399.095 515.775C399.383 516.245 399.527 516.767 399.527 517.343C399.527 518.069 399.329 518.666 398.935 519.135C398.54 519.594 398.017 519.877 397.367 519.983V520.063C398.945 520.533 399.735 521.461 399.735 522.847C399.735 523.818 399.409 524.607 398.759 525.215C398.108 525.813 397.191 526.111 396.007 526.111C394.748 526.111 393.745 525.802 392.999 525.183C392.252 524.554 391.836 523.61 391.751 522.351H393.959C394.012 522.927 394.199 523.386 394.519 523.727C394.849 524.058 395.313 524.223 395.911 524.223C396.423 524.223 396.823 524.085 397.111 523.807C397.399 523.519 397.543 523.146 397.543 522.687C397.543 522.143 397.335 521.727 396.919 521.439C396.503 521.151 395.889 521.007 395.079 521.007H394.615V519.167H395.079C396.572 519.189 397.319 518.671 397.319 517.615C397.319 517.157 397.185 516.799 396.919 516.543C396.652 516.277 396.289 516.143 395.831 516.143C395.351 516.143 394.956 516.298 394.647 516.607C394.337 516.906 394.161 517.327 394.119 517.871H391.911C391.975 516.719 392.348 515.834 393.031 515.215C393.713 514.586 394.663 514.271 395.879 514.271ZM406.849 525.999L403.921 522.127V525.999H401.665V514.159H403.921V520.815L406.833 517.135H409.505L405.777 521.551L409.601 525.999H406.849ZM418.164 517.023C419.306 517.023 420.255 517.333 421.012 517.951C421.78 518.57 422.26 519.413 422.452 520.479H420.068C419.972 520.01 419.754 519.642 419.412 519.375C419.071 519.098 418.639 518.959 418.116 518.959C417.519 518.959 417.018 519.183 416.612 519.631C416.218 520.069 416.02 520.714 416.02 521.567C416.02 522.421 416.218 523.071 416.612 523.519C417.018 523.957 417.519 524.175 418.116 524.175C418.639 524.175 419.071 524.042 419.412 523.775C419.754 523.498 419.972 523.125 420.068 522.655H422.452C422.26 523.722 421.78 524.565 421.012 525.183C420.255 525.802 419.306 526.111 418.164 526.111C417.3 526.111 416.532 525.93 415.86 525.567C415.188 525.194 414.666 524.666 414.292 523.983C413.919 523.301 413.732 522.495 413.732 521.567C413.732 520.639 413.919 519.834 414.292 519.151C414.666 518.458 415.188 517.93 415.86 517.567C416.532 517.205 417.3 517.023 418.164 517.023ZM426.311 514.159V525.999H424.055V514.159H426.311ZM428.096 514.591C428.096 514.229 428.224 513.935 428.48 513.711C428.736 513.477 429.072 513.359 429.488 513.359C429.904 513.359 430.24 513.477 430.496 513.711C430.752 513.935 430.88 514.229 430.88 514.591C430.88 514.943 430.752 515.237 430.496 515.471C430.24 515.695 429.904 515.807 429.488 515.807C429.072 515.807 428.736 515.695 428.48 515.471C428.224 515.237 428.096 514.943 428.096 514.591ZM430.608 517.135V525.999H428.352V517.135H430.608ZM436.633 517.023C437.774 517.023 438.724 517.333 439.481 517.951C440.249 518.57 440.729 519.413 440.921 520.479H438.537C438.441 520.01 438.222 519.642 437.881 519.375C437.54 519.098 437.108 518.959 436.585 518.959C435.988 518.959 435.486 519.183 435.081 519.631C434.686 520.069 434.489 520.714 434.489 521.567C434.489 522.421 434.686 523.071 435.081 523.519C435.486 523.957 435.988 524.175 436.585 524.175C437.108 524.175 437.54 524.042 437.881 523.775C438.222 523.498 438.441 523.125 438.537 522.655H440.921C440.729 523.722 440.249 524.565 439.481 525.183C438.724 525.802 437.774 526.111 436.633 526.111C435.769 526.111 435.001 525.93 434.329 525.567C433.657 525.194 433.134 524.666 432.761 523.983C432.388 523.301 432.201 522.495 432.201 521.567C432.201 520.639 432.388 519.834 432.761 519.151C433.134 518.458 433.657 517.93 434.329 517.567C435.001 517.205 435.769 517.023 436.633 517.023ZM447.708 525.999L444.78 522.127V525.999H442.524V514.159H444.78V520.815L447.692 517.135H450.364L446.636 521.551L450.46 525.999H447.708ZM454.611 517.023C455.689 517.023 456.553 517.295 457.203 517.839C457.854 518.383 458.259 519.109 458.419 520.015H456.307C456.222 519.589 456.03 519.247 455.731 518.991C455.433 518.735 455.043 518.607 454.563 518.607C454.179 518.607 453.881 518.698 453.667 518.879C453.454 519.061 453.347 519.306 453.347 519.615C453.347 519.861 453.433 520.058 453.603 520.207C453.774 520.357 453.987 520.474 454.243 520.559C454.499 520.645 454.867 520.746 455.347 520.863C456.019 521.013 456.563 521.173 456.979 521.343C457.406 521.503 457.769 521.765 458.067 522.127C458.377 522.479 458.531 522.959 458.531 523.567C458.531 524.325 458.233 524.938 457.635 525.407C457.049 525.877 456.254 526.111 455.251 526.111C454.099 526.111 453.177 525.855 452.483 525.343C451.79 524.821 451.369 524.079 451.219 523.119H453.379C453.433 523.557 453.625 523.903 453.955 524.159C454.286 524.405 454.718 524.527 455.251 524.527C455.635 524.527 455.929 524.437 456.131 524.255C456.334 524.063 456.435 523.818 456.435 523.519C456.435 523.263 456.345 523.055 456.163 522.895C455.993 522.735 455.774 522.613 455.507 522.527C455.251 522.442 454.883 522.341 454.403 522.223C453.742 522.074 453.203 521.925 452.787 521.775C452.382 521.615 452.03 521.365 451.731 521.023C451.443 520.682 451.299 520.213 451.299 519.615C451.299 518.847 451.593 518.223 452.179 517.743C452.766 517.263 453.577 517.023 454.611 517.023Z" fill="#121212"/>
<path d="M408.535 547.103C408.535 545.548 408.826 544.158 409.409 542.935C410.001 541.712 410.778 540.728 411.742 539.983H412.824V540.092C410.677 541.834 409.604 544.171 409.604 547.103C409.604 550.043 410.677 552.384 412.824 554.126V554.235H411.742C410.778 553.482 410.001 552.497 409.409 551.282C408.826 550.067 408.535 548.674 408.535 547.103ZM418.435 544.235L415.191 551.999H414.024L417.317 544.345H412.821V543.385H418.435V544.235ZM425.261 544.308H420.863V547.176C421.065 546.9 421.357 546.682 421.738 546.52C422.118 546.358 422.536 546.277 422.989 546.277C423.597 546.277 424.099 546.406 424.496 546.665C424.901 546.917 425.196 547.253 425.383 547.674C425.577 548.087 425.674 548.549 425.674 549.059C425.674 549.942 425.427 550.663 424.933 551.222C424.439 551.781 423.714 552.06 422.758 552.06C421.9 552.06 421.199 551.829 420.656 551.367C420.114 550.898 419.81 550.27 419.745 549.484H420.839C420.928 549.986 421.134 550.379 421.458 550.663C421.79 550.938 422.207 551.076 422.71 551.076C423.333 551.076 423.803 550.89 424.119 550.517C424.435 550.144 424.593 549.654 424.593 549.047C424.593 548.456 424.431 547.994 424.107 547.662C423.783 547.33 423.325 547.164 422.734 547.164C422.313 547.164 421.944 547.257 421.628 547.443C421.312 547.621 421.073 547.864 420.911 548.172H419.842V543.324H425.261V544.308ZM428.459 543.312C428.969 543.312 429.391 543.478 429.723 543.81C430.063 544.134 430.233 544.568 430.233 545.11C430.233 545.653 430.067 546.086 429.735 546.41C429.403 546.734 428.978 546.896 428.459 546.896C427.941 546.896 427.516 546.734 427.183 546.41C426.851 546.086 426.685 545.653 426.685 545.11C426.685 544.568 426.851 544.134 427.183 543.81C427.516 543.478 427.941 543.312 428.459 543.312ZM433.295 543.421L428.374 551.999H427.281L432.201 543.421H433.295ZM427.463 545.11C427.463 545.434 427.552 545.697 427.73 545.9C427.916 546.102 428.155 546.204 428.447 546.204C428.747 546.204 428.99 546.102 429.176 545.9C429.362 545.697 429.455 545.434 429.455 545.11C429.455 544.786 429.362 544.523 429.176 544.32C428.99 544.118 428.747 544.017 428.447 544.017C428.155 544.017 427.916 544.118 427.73 544.32C427.552 544.523 427.463 544.786 427.463 545.11ZM432.128 548.524C432.647 548.524 433.068 548.686 433.392 549.01C433.724 549.334 433.89 549.768 433.89 550.31C433.89 550.853 433.724 551.291 433.392 551.623C433.068 551.947 432.647 552.109 432.128 552.109C431.618 552.109 431.193 551.947 430.853 551.623C430.521 551.291 430.355 550.853 430.355 550.31C430.355 549.768 430.521 549.334 430.853 549.01C431.185 548.686 431.61 548.524 432.128 548.524ZM431.132 550.31C431.132 550.634 431.221 550.898 431.399 551.1C431.586 551.303 431.829 551.404 432.128 551.404C432.42 551.404 432.655 551.303 432.833 551.1C433.019 550.898 433.113 550.634 433.113 550.31C433.113 549.986 433.019 549.723 432.833 549.521C432.655 549.318 432.42 549.217 432.128 549.217C431.829 549.217 431.586 549.318 431.399 549.521C431.221 549.723 431.132 549.986 431.132 550.31ZM438.424 547.103C438.424 548.666 438.129 550.059 437.537 551.282C436.954 552.497 436.181 553.482 435.217 554.235H434.135V554.126C436.274 552.376 437.343 550.035 437.343 547.103C437.343 545.669 437.076 544.365 436.541 543.191C436.015 542.008 435.213 540.975 434.135 540.092V539.983H435.217C436.181 540.728 436.954 541.712 437.537 542.935C438.129 544.158 438.424 545.548 438.424 547.103Z" fill="#BACCFD"/>
<rect x="555" y="481.999" width="10" height="10" transform="rotate(90 555 481.999)" fill="url(#paint3_linear)"/>
<rect x="555" y="526.999" width="10" height="10" transform="rotate(90 555 526.999)" fill="url(#paint4_linear)"/>
<rect x="555" y="571.999" width="10" height="10" transform="rotate(90 555 571.999)" fill="url(#paint5_linear)"/>
</g>
<g filter="url(#filter2_dd)">
<path fill-rule="evenodd" clip-rule="evenodd" d="M414.945 189.231H576.308C580.556 189.231 584 192.675 584 196.923V243.077C584 247.325 580.556 250.769 576.308 250.769H414.945C408.014 256.533 399.104 260 389.385 260C379.665 260 370.755 256.533 363.824 250.769H341.692C337.444 250.769 334 247.325 334 243.077V196.923C334 192.675 337.444 189.231 341.692 189.231H363.824C370.755 183.467 379.665 180 389.385 180C399.104 180 408.014 183.467 414.945 189.231Z" fill="white"/>
<path opacity="0.7" d="M419.385 220C419.385 236.569 405.953 250 389.385 250C372.816 250 359.385 236.569 359.385 220C359.385 203.431 372.816 190 389.385 190C405.953 190 419.385 203.431 419.385 220ZM365.385 220C365.385 233.255 376.13 244 389.385 244C402.64 244 413.385 233.255 413.385 220C413.385 206.745 402.64 196 389.385 196C376.13 196 365.385 206.745 365.385 220Z" fill="#787880" fill-opacity="0.16"/>
<path d="M389.385 193C389.385 191.343 390.731 189.984 392.38 190.15C398.6 190.774 404.498 193.33 409.224 197.497C414.704 202.328 418.233 208.992 419.148 216.24C420.064 223.488 418.303 230.82 414.197 236.862C410.656 242.074 405.579 246.016 399.709 248.167C398.154 248.738 396.511 247.757 396.099 246.152C395.687 244.547 396.664 242.929 398.205 242.32C402.663 240.559 406.515 237.492 409.235 233.49C412.52 228.656 413.928 222.79 413.196 216.992C412.463 211.194 409.64 205.862 405.256 201.997C401.626 198.797 397.133 196.785 392.377 196.187C390.733 195.981 389.385 194.657 389.385 193Z" fill="#EF476F"/>
<path d="M377.088 223.741V221.981L381.064 216.529H383.328V221.907H384.374V223.741H383.328V225.341H381.199V223.741H377.088ZM381.371 218.966L379.23 221.907H381.371V218.966ZM389.739 219.039C389.682 218.687 389.567 218.42 389.394 218.239C389.23 218.059 388.992 217.969 388.681 217.969C388.205 217.969 387.864 218.19 387.659 218.633C387.462 219.068 387.372 219.741 387.388 220.652C387.528 220.315 387.766 220.053 388.102 219.864C388.447 219.667 388.845 219.569 389.296 219.569C390.116 219.569 390.765 219.819 391.241 220.319C391.716 220.812 391.954 221.521 391.954 222.449C391.954 223.031 391.835 223.548 391.597 223.999C391.36 224.451 391.007 224.804 390.539 225.058C390.08 225.304 389.526 225.427 388.877 225.427C387.606 225.427 386.728 225.033 386.244 224.246C385.76 223.458 385.517 222.367 385.517 220.972C385.517 219.364 385.776 218.182 386.293 217.427C386.81 216.664 387.651 216.282 388.816 216.282C389.735 216.282 390.432 216.545 390.908 217.07C391.384 217.587 391.651 218.244 391.708 219.039H389.739ZM387.548 222.35C387.548 222.728 387.655 223.035 387.868 223.273C388.082 223.503 388.393 223.618 388.804 223.618C389.173 223.618 389.46 223.515 389.665 223.31C389.878 223.105 389.985 222.806 389.985 222.412C389.985 222.018 389.878 221.718 389.665 221.513C389.452 221.3 389.161 221.193 388.791 221.193C388.438 221.193 388.143 221.296 387.905 221.501C387.667 221.698 387.548 221.981 387.548 222.35ZM394.92 216.492C395.519 216.492 396.007 216.672 396.384 217.033C396.77 217.394 396.963 217.903 396.963 218.559C396.963 219.216 396.77 219.725 396.384 220.086C396.007 220.447 395.519 220.627 394.92 220.627C394.304 220.627 393.804 220.447 393.418 220.086C393.041 219.725 392.852 219.216 392.852 218.559C392.852 217.903 393.041 217.394 393.418 217.033C393.804 216.672 394.304 216.492 394.92 216.492ZM400.889 216.615L396.138 225.341H394.107L398.858 216.615H400.889ZM394.255 218.559C394.255 218.814 394.312 219.015 394.427 219.162C394.542 219.302 394.698 219.372 394.895 219.372C395.1 219.372 395.264 219.302 395.387 219.162C395.51 219.015 395.572 218.814 395.572 218.559C395.572 218.305 395.51 218.108 395.387 217.969C395.264 217.821 395.1 217.747 394.895 217.747C394.698 217.747 394.542 217.821 394.427 217.969C394.312 218.108 394.255 218.305 394.255 218.559ZM400.089 221.316C400.696 221.316 401.188 221.497 401.566 221.858C401.943 222.219 402.132 222.728 402.132 223.384C402.132 224.04 401.943 224.553 401.566 224.922C401.188 225.284 400.696 225.464 400.089 225.464C399.49 225.464 398.998 225.284 398.612 224.922C398.235 224.553 398.046 224.04 398.046 223.384C398.046 222.728 398.235 222.219 398.612 221.858C398.998 221.497 399.49 221.316 400.089 221.316ZM399.437 223.384C399.437 223.647 399.494 223.852 399.609 223.999C399.724 224.139 399.884 224.209 400.089 224.209C400.286 224.209 400.442 224.139 400.557 223.999C400.68 223.852 400.741 223.647 400.741 223.384C400.741 223.13 400.68 222.933 400.557 222.793C400.442 222.646 400.286 222.572 400.089 222.572C399.884 222.572 399.724 222.646 399.609 222.793C399.494 222.933 399.437 223.13 399.437 223.384Z" fill="#11263C"/>
<path d="M544.441 221.463H546.404V220.672H544.441V218.612H543.65V220.672H541.688V221.463H543.65V223.524H544.441V221.463ZM548.03 218.788H548.88C548.88 217.953 549.441 217.401 550.286 217.401C551.116 217.401 551.619 217.958 551.619 218.705C551.619 219.325 551.355 219.691 550.457 220.663L548.074 223.241V223.846H552.635V223.055H549.295V222.977L550.896 221.322C552.166 220.008 552.518 219.422 552.518 218.612C552.518 217.469 551.575 216.634 550.345 216.634C548.997 216.634 548.03 217.533 548.03 218.788ZM556.463 224.012C557.903 224.012 558.885 223.016 558.885 221.566C558.885 220.169 557.908 219.242 556.727 219.242C556.023 219.242 555.501 219.457 555.159 219.881H555.081L555.301 217.586H558.523V216.8H554.612L554.207 220.829H555.032C555.311 220.306 555.838 219.999 556.507 219.999C557.396 219.999 558.006 220.638 558.006 221.59C558.006 222.577 557.396 223.241 556.473 223.241C555.643 223.241 555.037 222.738 554.959 221.986H554.095C554.173 223.192 555.13 224.012 556.463 224.012ZM561.37 219.989C562.322 219.989 562.898 219.369 562.898 218.329C562.898 217.303 562.317 216.673 561.37 216.673C560.423 216.673 559.837 217.303 559.837 218.329C559.837 219.364 560.413 219.989 561.37 219.989ZM561.688 223.846L566.556 216.8H565.76L560.892 223.846H561.688ZM561.37 219.349C560.877 219.349 560.594 218.978 560.594 218.333C560.594 217.694 560.877 217.318 561.37 217.318C561.858 217.318 562.142 217.694 562.142 218.333C562.142 218.973 561.863 219.349 561.37 219.349ZM566.082 223.915C567.034 223.915 567.61 223.294 567.61 222.254C567.61 221.229 567.029 220.599 566.082 220.599C565.135 220.599 564.549 221.229 564.549 222.254C564.549 223.29 565.13 223.915 566.082 223.915ZM566.082 223.275C565.589 223.275 565.311 222.904 565.311 222.259C565.311 221.62 565.589 221.244 566.082 221.244C566.575 221.244 566.854 221.62 566.854 222.259C566.854 222.899 566.575 223.275 566.082 223.275Z" fill="#7459D9"/>
<path d="M443.354 216.775C444.412 216.775 445.286 217.038 445.975 217.563C446.664 218.08 447.14 218.79 447.403 219.692H446.221C446 219.118 445.643 218.663 445.151 218.326C444.658 217.982 444.055 217.809 443.341 217.809C442.775 217.809 442.267 217.949 441.815 218.228C441.372 218.498 441.019 218.892 440.757 219.409C440.502 219.918 440.375 220.517 440.375 221.206C440.375 221.887 440.502 222.482 440.757 222.991C441.019 223.499 441.372 223.893 441.815 224.172C442.267 224.443 442.775 224.578 443.341 224.578C444.055 224.578 444.658 224.41 445.151 224.074C445.643 223.729 446 223.27 446.221 222.695H447.403C447.14 223.598 446.664 224.312 445.975 224.837C445.286 225.354 444.412 225.612 443.354 225.612C442.541 225.612 441.823 225.428 441.2 225.058C440.576 224.681 440.088 224.16 439.735 223.495C439.391 222.823 439.218 222.059 439.218 221.206C439.218 220.345 439.391 219.577 439.735 218.905C440.088 218.232 440.576 217.711 441.2 217.342C441.823 216.964 442.541 216.775 443.354 216.775ZM454.218 216.862V217.772H451.768V225.538H450.648V217.772H448.199V216.862H454.218ZM459.934 225.538L457.669 221.994H456.451V225.538H455.331V216.862H458.186C459.171 216.862 459.909 217.099 460.402 217.575C460.894 218.043 461.14 218.667 461.14 219.446C461.14 220.152 460.943 220.722 460.549 221.157C460.156 221.584 459.585 221.85 458.839 221.957L461.202 225.538H459.934ZM456.451 221.182H458.088C459.36 221.182 459.996 220.624 459.996 219.508C459.996 218.392 459.36 217.834 458.088 217.834H456.451V221.182Z" fill="#3C3C43" fill-opacity="0.6"/>
</g>
<line x1="103.5" y1="517" x2="103.5" y2="633" stroke="#422F8A" stroke-opacity="0.87" stroke-dasharray="4.4 4.4"/>
<g filter="url(#filter3_dd)">
<path fill-rule="evenodd" clip-rule="evenodd" d="M106.462 495.149C104.55 497.617 101.45 497.617 99.5385 495.149L95.3017 489.948C94.4196 488.865 93.9785 488.323 93.4341 487.934C92.9518 487.589 92.412 487.332 91.8398 487.176C91.194 487 90.4956 487 89.0989 487H40.2291C33.5427 487 31.1181 486.304 28.6737 484.997C26.2292 483.689 24.3108 481.771 23.0035 479.326C21.6962 476.882 21 474.457 21 467.771V418.229C21 411.543 21.6962 409.118 23.0035 406.674C24.3108 404.229 26.2292 402.311 28.6737 401.003C31.1181 399.696 33.5427 399 40.2291 399H166.771C173.457 399 175.882 399.696 178.326 401.003C180.771 402.311 182.689 404.229 183.997 406.674C185.304 409.118 186 411.543 186 418.229V467.771C186 474.457 185.304 476.882 183.997 479.326C182.689 481.771 180.771 483.689 178.326 484.997C175.882 486.304 173.457 487 166.771 487H120.703C117.909 487 116.513 487 115.221 487.352C114.077 487.664 112.997 488.177 112.032 488.867C110.944 489.647 110.062 490.729 108.297 492.895L106.462 495.149Z" fill="white"/>
</g>
<path d="M39.2666 416.36V416.952H37.6746V422H36.9466V416.952H35.3546V416.36H39.2666ZM42.3023 417.536C42.8143 417.536 43.2276 417.701 43.5423 418.032C43.8569 418.357 44.0143 418.829 44.0143 419.448V422H43.2863V419.512C43.2863 419.075 43.1743 418.739 42.9503 418.504C42.7263 418.269 42.4223 418.152 42.0383 418.152C41.6383 418.152 41.3183 418.283 41.0783 418.544C40.8383 418.8 40.7183 419.176 40.7183 419.672V422H39.9903V416.08H40.7183V418.648C40.8303 418.291 41.0276 418.016 41.3103 417.824C41.5983 417.632 41.9289 417.536 42.3023 417.536ZM45.0029 416.32C45.0029 416.187 45.0482 416.08 45.1389 416C45.2295 415.915 45.3495 415.872 45.4989 415.872C45.6482 415.872 45.7682 415.915 45.8589 416C45.9495 416.08 45.9949 416.187 45.9949 416.32C45.9949 416.453 45.9495 416.563 45.8589 416.648C45.7682 416.728 45.6482 416.768 45.4989 416.768C45.3495 416.768 45.2295 416.728 45.1389 416.648C45.0482 416.563 45.0029 416.453 45.0029 416.32ZM45.8589 417.608V422H45.1309V417.608H45.8589ZM48.4053 417.552C48.9013 417.552 49.2986 417.683 49.5973 417.944C49.9013 418.2 50.0853 418.547 50.1493 418.984H49.4533C49.4213 418.723 49.312 418.509 49.1253 418.344C48.944 418.173 48.6986 418.088 48.3893 418.088C48.128 418.088 47.9226 418.152 47.7733 418.28C47.6293 418.403 47.5573 418.571 47.5573 418.784C47.5573 418.944 47.6053 419.075 47.7013 419.176C47.8026 419.272 47.9253 419.347 48.0693 419.4C48.2186 419.448 48.4213 419.501 48.6773 419.56C49.0026 419.635 49.264 419.712 49.4613 419.792C49.664 419.867 49.8346 419.989 49.9733 420.16C50.1173 420.331 50.1893 420.56 50.1893 420.848C50.1893 421.205 50.0533 421.496 49.7813 421.72C49.5146 421.944 49.1573 422.056 48.7093 422.056C48.1866 422.056 47.76 421.931 47.4293 421.68C47.0986 421.429 46.904 421.08 46.8453 420.632H47.5493C47.576 420.899 47.6906 421.115 47.8933 421.28C48.1013 421.445 48.3733 421.528 48.7093 421.528C48.96 421.528 49.1546 421.464 49.2933 421.336C49.4373 421.208 49.5093 421.04 49.5093 420.832C49.5093 420.661 49.4586 420.525 49.3573 420.424C49.256 420.323 49.1306 420.245 48.9813 420.192C48.832 420.139 48.6266 420.083 48.3653 420.024C48.04 419.949 47.7786 419.875 47.5813 419.8C47.3893 419.725 47.224 419.608 47.0853 419.448C46.952 419.283 46.8853 419.061 46.8853 418.784C46.8853 418.416 47.0213 418.12 47.2933 417.896C47.5653 417.667 47.936 417.552 48.4053 417.552ZM58.7867 416.456V422H58.0587V417.576L56.2907 422H55.6427L53.8667 417.592V422H53.1387V416.456H54.0107L55.9787 421.112L57.9147 416.456H58.7867ZM61.9432 417.552C62.3645 417.552 62.7405 417.643 63.0712 417.824C63.4072 418.005 63.6685 418.267 63.8552 418.608C64.0472 418.949 64.1432 419.349 64.1432 419.808C64.1432 420.267 64.0472 420.667 63.8552 421.008C63.6685 421.344 63.4072 421.603 63.0712 421.784C62.7405 421.965 62.3645 422.056 61.9432 422.056C61.5219 422.056 61.1432 421.965 60.8072 421.784C60.4765 421.603 60.2152 421.344 60.0232 421.008C59.8312 420.667 59.7352 420.267 59.7352 419.808C59.7352 419.349 59.8312 418.949 60.0232 418.608C60.2152 418.267 60.4765 418.005 60.8072 417.824C61.1432 417.643 61.5219 417.552 61.9432 417.552ZM61.9432 418.192C61.6819 418.192 61.4392 418.251 61.2152 418.368C60.9965 418.485 60.8179 418.667 60.6792 418.912C60.5459 419.152 60.4792 419.451 60.4792 419.808C60.4792 420.16 60.5459 420.459 60.6792 420.704C60.8179 420.944 60.9965 421.123 61.2152 421.24C61.4392 421.357 61.6819 421.416 61.9432 421.416C62.2045 421.416 62.4445 421.357 62.6632 421.24C62.8872 421.123 63.0659 420.944 63.1992 420.704C63.3379 420.459 63.4072 420.16 63.4072 419.808C63.4072 419.451 63.3379 419.152 63.1992 418.912C63.0659 418.667 62.8872 418.485 62.6632 418.368C62.4445 418.251 62.2045 418.192 61.9432 418.192ZM67.4038 417.536C67.9158 417.536 68.3291 417.701 68.6438 418.032C68.9585 418.357 69.1158 418.829 69.1158 419.448V422H68.3878V419.512C68.3878 419.075 68.2758 418.739 68.0518 418.504C67.8278 418.269 67.5238 418.152 67.1398 418.152C66.7398 418.152 66.4198 418.283 66.1798 418.544C65.9398 418.8 65.8198 419.176 65.8198 419.672V422H65.0918V417.608H65.8198V418.648C65.9318 418.291 66.1291 418.016 66.4118 417.824C66.6998 417.632 67.0305 417.536 67.4038 417.536ZM72.3284 421.36V422H71.7844C71.3364 422 71.0004 421.893 70.7764 421.68C70.5578 421.467 70.4484 421.109 70.4484 420.608V418.24H69.7924V417.608H70.4484V416.512H71.1844V417.608H72.3204V418.24H71.1844V420.624C71.1844 420.907 71.2351 421.101 71.3364 421.208C71.4431 421.309 71.6244 421.36 71.8804 421.36H72.3284ZM75.5288 417.536C76.0408 417.536 76.4541 417.701 76.7688 418.032C77.0835 418.357 77.2408 418.829 77.2408 419.448V422H76.5128V419.512C76.5128 419.075 76.4008 418.739 76.1768 418.504C75.9528 418.269 75.6488 418.152 75.2648 418.152C74.8648 418.152 74.5448 418.283 74.3048 418.544C74.0648 418.8 73.9448 419.176 73.9448 419.672V422H73.2168V416.08H73.9448V418.648C74.0568 418.291 74.2541 418.016 74.5368 417.824C74.8248 417.632 75.1555 417.536 75.5288 417.536Z" fill="#3C3C43" fill-opacity="0.6"/>
<path d="M35.8945 444.008C40.5585 440.679 42.8905 438.031 42.8905 436.066C42.8905 434.863 42.3698 434.262 41.3285 434.262C40.7418 434.262 40.3092 434.467 40.0305 434.878C39.7665 435.289 39.6198 435.927 39.5905 436.792H35.9165C36.0045 434.9 36.5765 433.477 37.6325 432.524C38.6885 431.571 40.0232 431.094 41.6365 431.094C43.3232 431.094 44.5918 431.519 45.4425 432.37C46.3078 433.221 46.7405 434.328 46.7405 435.692C46.7405 437.203 46.1612 438.684 45.0025 440.136C43.8438 441.573 42.4578 442.791 40.8445 443.788H46.9825V446.824H35.8945V444.008ZM48.3554 444.008C53.0194 440.679 55.3514 438.031 55.3514 436.066C55.3514 434.863 54.8308 434.262 53.7894 434.262C53.2028 434.262 52.7701 434.467 52.4914 434.878C52.2274 435.289 52.0808 435.927 52.0514 436.792H48.3774C48.4654 434.9 49.0374 433.477 50.0934 432.524C51.1494 431.571 52.4841 431.094 54.0974 431.094C55.7841 431.094 57.0528 431.519 57.9034 432.37C58.7688 433.221 59.2014 434.328 59.2014 435.692C59.2014 437.203 58.6221 438.684 57.4634 440.136C56.3048 441.573 54.9188 442.791 53.3054 443.788H59.4434V446.824H48.3554V444.008ZM60.9924 439.058C60.9924 441.493 61.4837 443.421 62.4664 444.844C63.449 446.267 65.0184 446.978 67.1744 446.978C69.3157 446.978 70.8777 446.267 71.8604 444.844C72.8577 443.421 73.3564 441.493 73.3564 439.058C73.3564 436.638 72.8577 434.724 71.8604 433.316C70.8777 431.893 69.3157 431.182 67.1744 431.182C65.0184 431.182 63.449 431.893 62.4664 433.316C61.4837 434.724 60.9924 436.638 60.9924 439.058ZM69.6164 439.058C69.6164 440.451 69.4477 441.529 69.1104 442.292C68.7877 443.04 68.1424 443.414 67.1744 443.414C66.1917 443.414 65.5317 443.04 65.1944 442.292C64.857 441.529 64.6884 440.451 64.6884 439.058C64.6884 437.679 64.857 436.616 65.1944 435.868C65.5317 435.12 66.1917 434.746 67.1744 434.746C68.1424 434.746 68.7877 435.12 69.1104 435.868C69.4477 436.601 69.6164 437.665 69.6164 439.058ZM77.9446 444.668C78.3846 445.519 78.6046 446.443 78.6046 447.44C78.6046 448.452 78.3332 449.288 77.7906 449.948C77.2626 450.608 76.4339 450.938 75.3046 450.938V449.552C75.7006 449.552 75.9866 449.464 76.1626 449.288C76.3532 449.112 76.4486 448.775 76.4486 448.276V448.056H74.8426V444.668H77.9446ZM86.0913 430.764C87.1766 430.764 88.1079 430.955 88.8853 431.336C89.6626 431.703 90.2493 432.216 90.6453 432.876C91.0559 433.521 91.2613 434.255 91.2613 435.076C91.2613 436.088 90.9973 436.902 90.4693 437.518C89.9559 438.134 89.3106 438.523 88.5333 438.684V438.794C90.5426 439.439 91.5473 440.693 91.5473 442.556C91.5473 443.451 91.3419 444.25 90.9313 444.954C90.5206 445.643 89.9193 446.186 89.1273 446.582C88.3499 446.963 87.4113 447.154 86.3113 447.154C84.5219 447.154 83.0993 446.714 82.0433 445.834C81.0019 444.954 80.4373 443.612 80.3493 441.808H84.0233C84.0526 442.497 84.2433 443.04 84.5953 443.436C84.9473 443.832 85.4606 444.03 86.1353 444.03C86.6779 444.03 87.1033 443.869 87.4113 443.546C87.7339 443.223 87.8953 442.805 87.8953 442.292C87.8953 441.016 86.9713 440.378 85.1233 440.378H84.4193V437.32H85.1013C86.7586 437.349 87.5873 436.755 87.5873 435.538C87.5873 435.01 87.4406 434.607 87.1473 434.328C86.8686 434.035 86.4873 433.888 86.0033 433.888C85.4753 433.888 85.0573 434.071 84.7493 434.438C84.4413 434.79 84.2653 435.267 84.2213 435.868H80.5473C80.6206 434.225 81.1339 432.964 82.0873 432.084C83.0406 431.204 84.3753 430.764 86.0913 430.764ZM93.7356 444.14V440.994L100.842 431.248H104.89V440.862H106.76V444.14H104.89V447H101.084V444.14H93.7356ZM101.392 435.604L97.5636 440.862H101.392V435.604ZM108.297 444.008C112.961 440.679 115.293 438.031 115.293 436.066C115.293 434.863 114.772 434.262 113.731 434.262C113.144 434.262 112.711 434.467 112.433 434.878C112.169 435.289 112.022 435.927 111.993 436.792H108.319C108.407 434.9 108.979 433.477 110.035 432.524C111.091 431.571 112.425 431.094 114.039 431.094C115.725 431.094 116.994 431.519 117.845 432.37C118.71 433.221 119.143 434.328 119.143 435.692C119.143 437.203 118.563 438.684 117.405 440.136C116.246 441.573 114.86 442.791 113.247 443.788H119.385V446.824H108.297V444.008ZM123.728 444.668C124.168 445.519 124.388 446.443 124.388 447.44C124.388 448.452 124.116 449.288 123.574 449.948C123.046 450.608 122.217 450.938 121.088 450.938V449.552C121.484 449.552 121.77 449.464 121.946 449.288C122.136 449.112 122.232 448.775 122.232 448.276V448.056H120.626V444.668H123.728ZM125.472 434.966V431.446H131.764V447H127.804V434.966H125.472ZM133.82 444.008C138.484 440.679 140.816 438.031 140.816 436.066C140.816 434.863 140.296 434.262 139.254 434.262C138.668 434.262 138.235 434.467 137.956 434.878C137.692 435.289 137.546 435.927 137.516 436.792H133.842C133.93 434.9 134.502 433.477 135.558 432.524C136.614 431.571 137.949 431.094 139.562 431.094C141.249 431.094 142.518 431.519 143.368 432.37C144.234 433.221 144.666 434.328 144.666 435.692C144.666 437.203 144.087 438.684 142.928 440.136C141.77 441.573 140.384 442.791 138.77 443.788H144.908V446.824H133.82V444.008ZM152.177 430.764C153.263 430.764 154.194 430.955 154.971 431.336C155.749 431.703 156.335 432.216 156.731 432.876C157.142 433.521 157.347 434.255 157.347 435.076C157.347 436.088 157.083 436.902 156.555 437.518C156.042 438.134 155.397 438.523 154.619 438.684V438.794C156.629 439.439 157.633 440.693 157.633 442.556C157.633 443.451 157.428 444.25 157.017 444.954C156.607 445.643 156.005 446.186 155.213 446.582C154.436 446.963 153.497 447.154 152.397 447.154C150.608 447.154 149.185 446.714 148.129 445.834C147.088 444.954 146.523 443.612 146.435 441.808H150.109C150.139 442.497 150.329 443.04 150.681 443.436C151.033 443.832 151.547 444.03 152.221 444.03C152.764 444.03 153.189 443.869 153.497 443.546C153.82 443.223 153.981 442.805 153.981 442.292C153.981 441.016 153.057 440.378 151.209 440.378H150.505V437.32H151.187C152.845 437.349 153.673 436.755 153.673 435.538C153.673 435.01 153.527 434.607 153.233 434.328C152.955 434.035 152.573 433.888 152.089 433.888C151.561 433.888 151.143 434.071 150.835 434.438C150.527 434.79 150.351 435.267 150.307 435.868H146.633C146.707 434.225 147.22 432.964 148.173 432.084C149.127 431.204 150.461 430.764 152.177 430.764Z" fill="#11263C"/>
<path d="M44.8031 458.684V467H43.7111V460.364L41.0591 467H40.0871L37.4231 460.388V467H36.3311V458.684H37.6391L40.5911 465.668L43.4951 458.684H44.8031ZM49.2498 460.328C49.8898 460.328 50.4298 460.488 50.8698 460.808C51.3178 461.128 51.6298 461.556 51.8058 462.092V460.412H52.8978V467H51.8058V465.32C51.6298 465.856 51.3178 466.284 50.8698 466.604C50.4298 466.924 49.8898 467.084 49.2498 467.084C48.6658 467.084 48.1458 466.948 47.6898 466.676C47.2338 466.404 46.8738 466.016 46.6098 465.512C46.3538 465 46.2258 464.4 46.2258 463.712C46.2258 463.024 46.3538 462.424 46.6098 461.912C46.8738 461.4 47.2338 461.008 47.6898 460.736C48.1458 460.464 48.6658 460.328 49.2498 460.328ZM49.5618 461.3C48.8898 461.3 48.3498 461.516 47.9418 461.948C47.5418 462.372 47.3418 462.96 47.3418 463.712C47.3418 464.464 47.5418 465.056 47.9418 465.488C48.3498 465.912 48.8898 466.124 49.5618 466.124C49.9938 466.124 50.3778 466.024 50.7138 465.824C51.0578 465.624 51.3258 465.344 51.5178 464.984C51.7098 464.616 51.8058 464.192 51.8058 463.712C51.8058 463.232 51.7098 462.808 51.5178 462.44C51.3258 462.072 51.0578 461.792 50.7138 461.6C50.3778 461.4 49.9938 461.3 49.5618 461.3ZM55.0918 460.412L57.2278 465.596L59.2078 460.412H60.4198L56.5078 470.12H55.2718L56.6398 466.892L53.8678 460.412H55.0918Z" fill="#3C3C43" fill-opacity="0.6"/>
<g filter="url(#filter4_dd)">
<rect x="93" y="507" width="20" height="20" rx="10" fill="#422F8A" fill-opacity="0.87"/>
<rect x="95" y="509" width="16" height="16" rx="8" stroke="white" stroke-width="4"/>
</g>
<g filter="url(#filter5_d)">
<rect width="272" height="261.07" rx="51" transform="matrix(0.999985 -0.00549281 -0.00539025 0.999985 17.458 9.49487)" fill="white"/>
<rect width="250" height="195.967" rx="10" transform="matrix(0.999985 -0.0054928 -0.00539025 0.999985 27.9424 60.7347)" fill="white"/>
<path d="M83.9873 220.895L84.0059 217.432L87.0152 212.424L85.5563 212.432L83.4095 216.129L83.3099 216.13L81.2028 212.456L79.7439 212.464L82.6935 217.439L82.6748 220.902L83.9873 220.895ZM89.9455 220.985C91.8088 220.975 92.9581 219.721 92.9691 217.664C92.9802 215.608 91.8385 214.366 89.9811 214.376C88.1179 214.386 86.9627 215.647 86.9517 217.697C86.9406 219.754 88.0764 220.996 89.9455 220.985ZM89.9513 219.913C88.8556 219.919 88.2448 219.108 88.2524 217.69C88.2601 216.272 88.8797 215.449 89.9754 215.443C91.0652 215.437 91.6819 216.253 91.6742 217.671C91.6666 219.083 91.0411 219.907 89.9513 219.913ZM99.8827 214.445L98.6229 214.452L98.6028 218.184C98.5973 219.209 98.0373 219.834 97.0178 219.839C96.092 219.844 95.6787 219.343 95.6844 218.288L95.705 214.468L94.4453 214.475L94.423 218.605C94.4149 220.1 95.1954 220.957 96.6075 220.949C97.5743 220.944 98.2269 220.53 98.5413 219.807L98.6409 219.807L98.6355 220.815L99.8484 220.808L99.8827 214.445ZM106.721 220.876C107.559 220.871 108.258 220.504 108.642 219.857L108.742 219.857L108.737 220.759L109.95 220.753L109.973 216.399C109.98 215.063 109.082 214.271 107.483 214.28C106.036 214.288 105.001 214.991 104.866 216.064L106.085 216.057C106.228 215.593 106.715 215.327 107.419 215.323C108.28 215.319 108.723 215.709 108.719 216.406L108.716 216.963L106.987 217.078C105.469 217.18 104.61 217.846 104.604 218.989C104.598 220.149 105.49 220.882 106.721 220.876ZM107.048 219.86C106.363 219.864 105.867 219.521 105.87 218.929C105.873 218.349 106.273 218.036 107.152 217.973L108.712 217.859L108.709 218.41C108.704 219.23 107.998 219.855 107.048 219.86ZM111.743 220.743L113.002 220.736L113.023 216.933C113.028 216.037 113.705 215.418 114.66 215.412C114.883 215.411 115.257 215.45 115.363 215.479L115.369 214.295C115.235 214.267 114.994 214.25 114.807 214.252C113.975 214.256 113.263 214.711 113.078 215.339L112.985 215.34L112.99 214.373L111.777 214.379L111.743 220.743ZM120.576 218.989C120.339 219.506 119.816 219.79 119.054 219.794C118.046 219.8 117.4 219.077 117.365 217.923L117.365 217.864L121.871 217.839L121.874 217.406C121.884 215.414 120.819 214.207 119.043 214.217C117.244 214.226 116.095 215.528 116.084 217.549C116.073 219.582 117.185 220.836 119.013 220.826C120.472 220.818 121.507 220.109 121.789 218.982L120.576 218.989ZM119.032 215.242C119.963 215.237 120.569 215.907 120.593 216.938L117.37 216.956C117.446 215.93 118.1 215.247 119.032 215.242ZM128.412 220.757C129.25 220.752 129.949 220.385 130.333 219.738L130.433 219.738L130.428 220.64L131.641 220.633L131.664 216.28C131.672 214.944 130.773 214.152 129.174 214.161C127.727 214.169 126.692 214.872 126.557 215.945L127.776 215.938C127.919 215.474 128.407 215.208 129.11 215.204C129.971 215.199 130.414 215.59 130.41 216.287L130.407 216.843L128.678 216.958C127.16 217.06 126.301 217.727 126.295 218.87C126.289 220.03 127.181 220.763 128.412 220.757ZM128.74 219.741C128.054 219.745 127.558 219.402 127.561 218.81C127.564 218.23 127.964 217.917 128.843 217.854L130.403 217.74L130.4 218.291C130.395 219.111 129.689 219.736 128.74 219.741ZM133.922 212.652L133.913 214.275L132.9 214.281L132.894 215.289L133.908 215.283L133.888 218.945C133.882 220.17 134.436 220.659 135.836 220.651C136.082 220.65 136.317 220.619 136.522 220.583L136.527 219.581C136.351 219.6 136.24 219.612 136.047 219.613C135.42 219.617 135.146 219.319 135.15 218.634L135.168 215.276L136.55 215.269L136.556 214.261L135.173 214.269L135.182 212.646L133.922 212.652ZM141.643 220.578L143.02 220.571L146.739 213.232L146.745 212.096L140.985 212.127L140.979 213.235L145.409 213.21L145.408 213.304L141.643 220.578ZM148.873 220.539L150.25 220.531L153.969 213.193L153.975 212.056L148.215 212.088L148.21 213.195L152.639 213.171L152.639 213.264L148.873 220.539ZM156.878 215.907C158.068 215.901 158.781 215.147 158.787 213.881C158.794 212.639 158.078 211.875 156.9 211.882C155.728 211.888 154.997 212.66 154.991 213.902C154.984 215.167 155.689 215.914 156.878 215.907ZM157.41 220.492L163.215 212.005L162.12 212.011L156.308 220.498L157.41 220.492ZM156.883 215.052C156.35 215.055 156.047 214.634 156.051 213.902C156.055 213.181 156.368 212.752 156.895 212.749C157.422 212.746 157.725 213.172 157.721 213.893C157.717 214.619 157.416 215.049 156.883 215.052ZM162.63 220.551C163.82 220.544 164.533 219.791 164.539 218.525C164.546 217.277 163.83 216.519 162.652 216.526C161.48 216.532 160.749 217.304 160.743 218.546C160.736 219.806 161.447 220.558 162.63 220.551ZM162.635 219.69C162.107 219.693 161.805 219.278 161.809 218.546C161.813 217.825 162.12 217.39 162.647 217.387C163.18 217.384 163.483 217.816 163.479 218.537C163.475 219.263 163.168 219.687 162.635 219.69ZM171.776 220.536C173.64 220.526 174.789 219.271 174.8 217.215C174.811 215.158 173.669 213.916 171.812 213.927C169.949 213.937 168.794 215.197 168.782 217.248C168.771 219.304 169.907 220.546 171.776 220.536ZM171.782 219.464C170.686 219.47 170.076 218.659 170.083 217.241C170.091 215.823 170.71 214.999 171.806 214.993C172.896 214.987 173.513 215.804 173.505 217.222C173.497 218.634 172.872 219.458 171.782 219.464ZM176.752 220.386L178.011 220.379L178.04 215.041L179.446 215.033L179.452 214.025L178.028 214.033L178.031 213.406C178.035 212.762 178.324 212.438 179.027 212.434C179.226 212.433 179.396 212.444 179.513 212.461L179.518 211.511C179.301 211.477 179.055 211.455 178.768 211.457C177.444 211.464 176.796 212.089 176.789 213.354L176.786 214.04L175.737 214.046L175.731 215.054L176.78 215.048L176.752 220.386ZM186.018 216.509L187.073 216.503C188.174 216.497 188.851 217.056 188.846 217.958C188.841 218.837 188.112 219.427 187.075 219.432C186.049 219.438 185.343 218.909 185.271 218.077L184.012 218.084C184.074 219.572 185.299 220.544 187.086 220.534C188.85 220.524 190.186 219.462 190.193 218.021C190.2 216.861 189.477 216.115 188.353 215.951L188.354 215.851C189.24 215.6 189.882 214.923 189.893 213.904C189.906 212.702 188.921 211.659 187.175 211.669C185.394 211.678 184.287 212.71 184.191 214.146L185.433 214.139C185.514 213.254 186.132 212.752 187.093 212.747C188.042 212.742 188.602 213.331 188.597 214.075C188.593 214.889 187.957 215.467 187.043 215.472L186.024 215.477L186.018 216.509ZM194.938 220.485C196.731 220.475 198.009 219.243 198.018 217.527C198.027 215.898 196.861 214.715 195.256 214.724C194.254 214.729 193.437 215.202 193.028 216.019L192.929 216.02C192.964 213.875 193.743 212.74 195.061 212.733C195.858 212.728 196.436 213.135 196.596 213.849L197.915 213.842C197.711 212.501 196.626 211.617 195.038 211.625C192.982 211.637 191.683 213.319 191.668 216.191C191.652 219.067 193.033 220.495 194.938 220.485ZM194.932 219.389C193.924 219.395 193.161 218.602 193.166 217.559C193.172 216.528 193.92 215.78 194.963 215.774C196.006 215.768 196.723 216.508 196.717 217.569C196.711 218.594 195.94 219.384 194.932 219.389ZM200.03 222.455L201.022 219.01L199.703 219.017L199.14 222.46L200.03 222.455ZM205.502 220.433C207.471 220.422 208.628 218.793 208.643 215.992C208.658 213.185 207.501 211.557 205.55 211.568C203.587 211.578 202.412 213.22 202.397 216.009C202.382 218.821 203.527 220.444 205.502 220.433ZM205.508 219.343C204.359 219.349 203.709 218.181 203.721 216.001C203.733 213.851 204.407 212.67 205.544 212.663C206.68 212.657 207.33 213.819 207.319 215.982C207.307 218.167 206.656 219.337 205.508 219.343ZM213.295 220.39C215.263 220.379 216.421 218.75 216.436 215.949C216.451 213.142 215.294 211.514 213.343 211.525C211.38 211.536 210.205 213.177 210.19 215.966C210.175 218.778 211.32 220.401 213.295 220.39ZM213.301 219.3C212.152 219.306 211.502 218.138 211.514 215.958C211.526 213.808 212.2 212.627 213.337 212.62C214.473 212.614 215.123 213.777 215.112 215.939C215.1 218.124 214.449 219.294 213.301 219.3ZM221.088 220.347C223.056 220.336 224.213 218.707 224.229 215.906C224.244 213.1 223.087 211.471 221.135 211.482C219.173 211.493 217.998 213.134 217.983 215.923C217.968 218.735 219.113 220.358 221.088 220.347ZM221.093 219.257C219.945 219.264 219.295 218.095 219.307 215.916C219.318 213.765 219.993 212.584 221.129 212.578C222.266 212.571 222.916 213.734 222.904 215.896C222.893 218.081 222.242 219.251 221.093 219.257ZM139.898 236.587L141.158 236.58L141.206 227.721L139.946 227.728L139.898 236.587ZM143.741 229.067C144.181 229.064 144.54 228.705 144.542 228.271C144.545 227.832 144.189 227.476 143.75 227.479C143.31 227.481 142.951 227.84 142.949 228.28C142.946 228.713 143.302 229.069 143.741 229.067ZM143.074 236.57L144.328 236.563L144.362 230.2L143.108 230.207L143.074 236.57ZM147.617 232.865L147.518 232.866L147.545 227.686L146.286 227.693L146.238 236.552L147.498 236.546L147.51 234.231L148.07 233.695L150.246 236.53L151.793 236.522L149.011 232.899L151.651 230.16L150.163 230.168L147.617 232.865ZM156.817 234.789C156.58 235.306 156.057 235.59 155.295 235.595C154.288 235.6 153.641 234.877 153.606 233.723L153.607 233.664L158.113 233.64L158.115 233.206C158.126 231.214 157.06 230.007 155.285 230.017C153.486 230.027 152.336 231.328 152.325 233.349C152.314 235.382 153.427 236.636 155.255 236.626C156.714 236.618 157.749 235.909 158.03 234.783L156.817 234.789ZM155.273 231.042C156.205 231.037 156.811 231.708 156.834 232.739L153.612 232.756C153.687 231.731 154.342 231.047 155.273 231.042ZM159.487 231.898C159.482 232.841 160.042 233.377 161.253 233.652L162.365 233.909C163.003 234.058 163.3 234.314 163.298 234.713C163.295 235.234 162.737 235.601 161.951 235.605C161.19 235.609 160.723 235.301 160.567 234.804L159.307 234.811C159.413 235.918 160.399 236.598 161.917 236.589C163.44 236.581 164.564 235.772 164.57 234.589C164.575 233.663 164.009 233.144 162.798 232.87L161.739 232.63C161.048 232.469 160.727 232.225 160.73 231.832C160.732 231.317 161.267 230.968 161.971 230.964C162.685 230.96 163.141 231.268 163.255 231.742L164.462 231.736C164.345 230.635 163.411 229.972 161.976 229.98C160.534 229.988 159.493 230.79 159.487 231.898Z" fill="#999999"/>
<path opacity="0.7" d="M130.057 109.346C129.068 106.195 130.803 102.783 134.023 101.968C144.212 99.3871 154.8 98.8799 165.174 100.499C177.515 102.424 189.203 107.304 199.28 114.74C209.358 122.175 217.539 131.955 223.156 143.279C227.897 152.839 230.697 163.27 231.413 173.957C231.632 177.229 228.934 179.909 225.652 179.927C222.369 179.945 219.749 177.293 219.488 174.024C218.787 165.251 216.433 156.697 212.534 148.836C207.76 139.211 200.806 130.898 192.24 124.578C183.674 118.258 173.74 114.11 163.25 112.473C154.772 111.15 146.126 111.498 137.775 113.476C134.493 114.253 131.062 112.547 130.057 109.346Z" fill="#F7F7FC"/>
<path d="M79.1069 176.819C75.8521 176.663 73.3572 173.895 73.7784 170.637C75.7034 155.748 81.6608 141.612 91.0335 129.846C101.637 116.534 116.068 106.94 132.257 102.437C148.446 97.9342 165.563 98.7546 181.154 104.78C194.936 110.107 206.9 119.259 215.733 131.155C217.666 133.758 216.838 137.451 214.094 139.275C211.312 141.125 207.626 140.348 205.628 137.74C198.182 128.013 188.24 120.521 176.833 116.113C163.581 110.991 149.031 110.294 135.27 114.121C121.51 117.948 109.244 126.104 100.231 137.418C92.4729 147.157 87.4679 158.806 85.6997 171.095C85.2254 174.392 82.4062 176.977 79.1069 176.819Z" fill="#EF476F"/>
<path d="M125.502 156.139L127.865 156.126C127.873 154.641 128.855 153.62 130.388 153.612C131.863 153.604 132.736 154.585 132.729 155.865C132.724 156.939 132.29 157.615 130.503 159.422L125.594 164.361L125.585 166.06L135.37 166.006L135.381 163.916L129.014 163.951L129.015 163.785L132.058 160.79C134.493 158.404 135.212 157.257 135.221 155.617C135.234 153.273 133.338 151.574 130.536 151.59C127.596 151.606 125.516 153.473 125.502 156.139ZM143.102 166.305C146.686 166.286 148.83 163.471 148.856 158.715C148.881 154.048 146.629 151.501 143.26 151.52C140.194 151.537 138.015 153.609 137.999 156.49C137.985 159.195 139.927 161.157 142.613 161.142C144.263 161.133 145.605 160.364 146.276 159.023L146.442 159.022C146.395 162.332 145.203 164.233 143.143 164.245C141.932 164.251 140.969 163.593 140.672 162.52L138.162 162.534C138.56 164.826 140.524 166.319 143.102 166.305ZM143.229 159.196C141.588 159.205 140.461 158.058 140.47 156.398C140.479 154.807 141.677 153.579 143.269 153.571C144.86 153.562 146.045 154.796 146.036 156.417C146.028 158.018 144.859 159.187 143.229 159.196ZM152.4 166.108C153.328 166.103 153.966 165.445 153.971 164.576C153.975 163.716 153.344 163.066 152.416 163.071C151.498 163.076 150.85 163.734 150.846 164.593C150.841 165.462 151.482 166.113 152.4 166.108ZM156.81 155.967L159.173 155.954C159.181 154.469 160.163 153.449 161.696 153.44C163.171 153.432 164.044 154.413 164.038 155.693C164.032 156.767 163.598 157.443 161.811 159.25L156.902 164.189L156.893 165.888L166.678 165.834L166.689 163.744L160.322 163.779L160.323 163.613L163.366 160.618C165.801 158.232 166.52 157.085 166.529 155.445C166.542 153.101 164.647 151.402 161.844 151.418C158.904 151.434 156.824 153.301 156.81 155.967ZM172.22 159.505L172.054 159.506L172.1 151L169.678 151.014L169.598 165.818L172.02 165.805L172.04 162.055L172.904 161.191L176.307 165.781L179.236 165.765L174.719 159.696L179.001 155.093L176.189 155.108L172.22 159.505Z" fill="#151522"/>
<path d="M119.626 39.5987C121.786 39.5987 123.57 40.1667 124.978 41.3027C126.402 42.4387 127.322 43.9747 127.738 45.9107L123.394 45.9107C123.074 45.1267 122.578 44.5107 121.906 44.0627C121.25 43.6147 120.466 43.3907 119.554 43.3907C118.354 43.3907 117.386 43.8307 116.65 44.7107C115.914 45.5907 115.546 46.7667 115.546 48.2387C115.546 49.7107 115.914 50.8867 116.65 51.7667C117.386 52.6307 118.354 53.0627 119.554 53.0627C120.466 53.0627 121.25 52.8387 121.906 52.3907C122.578 51.9427 123.074 51.3347 123.394 50.5667L127.738 50.5667C127.322 52.4867 126.402 54.0227 124.978 55.1747C123.57 56.3107 121.786 56.8787 119.626 56.8787C117.978 56.8787 116.53 56.5187 115.282 55.7987C114.034 55.0627 113.066 54.0387 112.378 52.7267C111.706 51.4147 111.37 49.9187 111.37 48.2387C111.37 46.5587 111.706 45.0627 112.378 43.7507C113.066 42.4387 114.034 41.4227 115.282 40.7027C116.53 39.9667 117.978 39.5987 119.626 39.5987ZM135.142 38.9747L135.142 56.7347L131.038 56.7347L131.038 38.9747L135.142 38.9747ZM138.592 39.5747C138.592 38.9507 138.816 38.4387 139.264 38.0387C139.712 37.6227 140.304 37.4147 141.04 37.4147C141.776 37.4147 142.368 37.6227 142.816 38.0387C143.264 38.4387 143.488 38.9507 143.488 39.5747C143.488 40.1827 143.264 40.6947 142.816 41.1107C142.368 41.5107 141.776 41.7107 141.04 41.7107C140.304 41.7107 139.712 41.5107 139.264 41.1107C138.816 40.6947 138.592 40.1827 138.592 39.5747ZM143.08 43.3427L143.08 56.7347L138.976 56.7347L138.976 43.3427L143.08 43.3427ZM152.961 43.1747C154.689 43.1747 156.137 43.6547 157.305 44.6147C158.473 45.5587 159.209 46.8627 159.513 48.5267L155.169 48.5267C155.041 47.9507 154.777 47.5027 154.377 47.1827C153.977 46.8627 153.473 46.7027 152.865 46.7027C152.145 46.7027 151.553 46.9907 151.089 47.5667C150.625 48.1267 150.393 48.9507 150.393 50.0387C150.393 51.1267 150.625 51.9587 151.089 52.5347C151.553 53.0947 152.145 53.3747 152.865 53.3747C153.473 53.3747 153.977 53.2147 154.377 52.8947C154.777 52.5747 155.041 52.1267 155.169 51.5507L159.513 51.5507C159.209 53.2147 158.473 54.5267 157.305 55.4867C156.137 56.4307 154.689 56.9027 152.961 56.9027C151.649 56.9027 150.481 56.6307 149.457 56.0867C148.449 55.5267 147.657 54.7267 147.081 53.6867C146.505 52.6467 146.217 51.4307 146.217 50.0387C146.217 48.6307 146.497 47.4147 147.057 46.3907C147.633 45.3507 148.433 44.5587 149.457 44.0147C150.481 43.4547 151.649 43.1747 152.961 43.1747ZM170.767 56.7347L166.759 51.0467L166.759 56.7347L162.655 56.7347L162.655 38.9747L166.759 38.9747L166.759 48.7187L170.767 43.3427L175.591 43.3427L170.191 50.0387L175.711 56.7347L170.767 56.7347ZM183.082 43.1747C184.778 43.1747 186.13 43.5987 187.138 44.4467C188.162 45.2947 188.802 46.4147 189.058 47.8067L185.218 47.8067C185.106 47.2627 184.85 46.8387 184.45 46.5347C184.066 46.2147 183.578 46.0547 182.986 46.0547C182.522 46.0547 182.17 46.1587 181.93 46.3667C181.69 46.5587 181.57 46.8387 181.57 47.2067C181.57 47.6227 181.786 47.9347 182.218 48.1427C182.666 48.3507 183.362 48.5587 184.306 48.7667C185.33 49.0067 186.17 49.2547 186.826 49.5107C187.482 49.7507 188.05 50.1507 188.53 50.7107C189.01 51.2707 189.25 52.0227 189.25 52.9667C189.25 53.7347 189.042 54.4147 188.626 55.0067C188.21 55.5987 187.61 56.0627 186.826 56.3987C186.042 56.7347 185.114 56.9027 184.042 56.9027C182.234 56.9027 180.786 56.5027 179.698 55.7027C178.61 54.9027 177.946 53.7587 177.706 52.2707L181.666 52.2707C181.73 52.8467 181.97 53.2867 182.386 53.5907C182.818 53.8947 183.37 54.0467 184.042 54.0467C184.506 54.0467 184.858 53.9427 185.098 53.7347C185.338 53.5107 185.458 53.2227 185.458 52.8707C185.458 52.4067 185.234 52.0787 184.786 51.8867C184.354 51.6787 183.642 51.4627 182.65 51.2387C181.658 51.0307 180.842 50.8067 180.202 50.5667C179.562 50.3267 179.01 49.9427 178.546 49.4147C178.082 48.8707 177.85 48.1347 177.85 47.2067C177.85 46.0067 178.306 45.0387 179.218 44.3027C180.13 43.5507 181.418 43.1747 183.082 43.1747Z" fill="#14142B"/>
</g>
<defs>
<filter id="filter0_d" x="220" y="337.999" width="410" height="380" filterUnits="userSpaceOnUse" color-interpolation-filters="sRGB">
<feFlood flood-opacity="0" result="BackgroundImageFix"/>
<feColorMatrix in="SourceAlpha" type="matrix" values="0 0 0 0 0 0 0 0 0 0 0 0 0 0 0 0 0 0 127 0"/>
<feOffset dy="15"/>
<feGaussianBlur stdDeviation="20"/>
<feColorMatrix type="matrix" values="0 0 0 0 0.870588 0 0 0 0 0.870588 0 0 0 0 0.870588 0 0 0 0.5 0"/>
<feBlend mode="normal" in2="BackgroundImageFix" result="effect1_dropShadow"/>
<feBlend mode="normal" in="SourceGraphic" in2="effect1_dropShadow" result="shape"/>
</filter>
<filter id="filter1_d" x="220" y="337.999" width="410" height="380" filterUnits="userSpaceOnUse" color-interpolation-filters="sRGB">
<feFlood flood-opacity="0" result="BackgroundImageFix"/>
<feColorMatrix in="SourceAlpha" type="matrix" values="0 0 0 0 0 0 0 0 0 0 0 0 0 0 0 0 0 0 127 0"/>
<feOffset dy="15"/>
<feGaussianBlur stdDeviation="20"/>
<feColorMatrix type="matrix" values="0 0 0 0 0.870588 0 0 0 0 0.870588 0 0 0 0 0.870588 0 0 0 0.1 0"/>
<feBlend mode="normal" in2="BackgroundImageFix" result="effect1_dropShadow"/>
<feBlend mode="normal" in="SourceGraphic" in2="effect1_dropShadow" result="shape"/>
</filter>
<filter id="filter2_dd" x="321.692" y="173.846" width="274.615" height="104.615" filterUnits="userSpaceOnUse" color-interpolation-filters="sRGB">
<feFlood flood-opacity="0" result="BackgroundImageFix"/>
<feColorMatrix in="SourceAlpha" type="matrix" values="0 0 0 0 0 0 0 0 0 0 0 0 0 0 0 0 0 0 127 0"/>
<feOffset dy="6.15385"/>
<feGaussianBlur stdDeviation="6.15385"/>
<feColorMatrix type="matrix" values="0 0 0 0 0.196487 0 0 0 0 0.196487 0 0 0 0 0.279476 0 0 0 0.06 0"/>
<feBlend mode="multiply" in2="BackgroundImageFix" result="effect1_dropShadow"/>
<feColorMatrix in="SourceAlpha" type="matrix" values="0 0 0 0 0 0 0 0 0 0 0 0 0 0 0 0 0 0 127 0"/>
<feOffset dy="6.15385"/>
<feGaussianBlur stdDeviation="3.07692"/>
<feColorMatrix type="matrix" values="0 0 0 0 0.196487 0 0 0 0 0.196487 0 0 0 0 0.279476 0 0 0 0.08 0"/>
<feBlend mode="multiply" in2="effect1_dropShadow" result="effect2_dropShadow"/>
<feBlend mode="normal" in="SourceGraphic" in2="effect2_dropShadow" result="shape"/>
</filter>
<filter id="filter3_dd" x="5" y="391" width="197" height="130" filterUnits="userSpaceOnUse" color-interpolation-filters="sRGB">
<feFlood flood-opacity="0" result="BackgroundImageFix"/>
<feColorMatrix in="SourceAlpha" type="matrix" values="0 0 0 0 0 0 0 0 0 0 0 0 0 0 0 0 0 0 127 0"/>
<feOffset dy="8"/>
<feGaussianBlur stdDeviation="8"/>
<feColorMatrix type="matrix" values="0 0 0 0 0.196487 0 0 0 0 0.196487 0 0 0 0 0.279476 0 0 0 0.06 0"/>
<feBlend mode="multiply" in2="BackgroundImageFix" result="effect1_dropShadow"/>
<feColorMatrix in="SourceAlpha" type="matrix" values="0 0 0 0 0 0 0 0 0 0 0 0 0 0 0 0 0 0 127 0"/>
<feOffset dy="8"/>
<feGaussianBlur stdDeviation="4"/>
<feColorMatrix type="matrix" values="0 0 0 0 0.196487 0 0 0 0 0.196487 0 0 0 0 0.279476 0 0 0 0.08 0"/>
<feBlend mode="multiply" in2="effect1_dropShadow" result="effect2_dropShadow"/>
<feBlend mode="normal" in="SourceGraphic" in2="effect2_dropShadow" result="shape"/>
</filter>
<filter id="filter4_dd" x="87.6667" y="504.333" width="30.6667" height="30.6667" filterUnits="userSpaceOnUse" color-interpolation-filters="sRGB">
<feFlood flood-opacity="0" result="BackgroundImageFix"/>
<feColorMatrix in="SourceAlpha" type="matrix" values="0 0 0 0 0 0 0 0 0 0 0 0 0 0 0 0 0 0 127 0"/>
<feOffset dy="2.66667"/>
<feGaussianBlur stdDeviation="2.66667"/>
<feColorMatrix type="matrix" values="0 0 0 0 0.196487 0 0 0 0 0.196487 0 0 0 0 0.279476 0 0 0 0.06 0"/>
<feBlend mode="multiply" in2="BackgroundImageFix" result="effect1_dropShadow"/>
<feColorMatrix in="SourceAlpha" type="matrix" values="0 0 0 0 0 0 0 0 0 0 0 0 0 0 0 0 0 0 127 0"/>
<feOffset dy="2.66667"/>
<feGaussianBlur stdDeviation="1.33333"/>
<feColorMatrix type="matrix" values="0 0 0 0 0.196487 0 0 0 0 0.196487 0 0 0 0 0.279476 0 0 0 0.06 0"/>
<feBlend mode="multiply" in2="effect1_dropShadow" result="effect2_dropShadow"/>
<feBlend mode="normal" in="SourceGraphic" in2="effect2_dropShadow" result="shape"/>
</filter>
<filter id="filter5_d" x="0.150391" y="0.280151" width="305.303" height="303.701" filterUnits="userSpaceOnUse" color-interpolation-filters="sRGB">
<feFlood flood-opacity="0" result="BackgroundImageFix"/>
<feColorMatrix in="SourceAlpha" type="matrix" values="0 0 0 0 0 0 0 0 0 0 0 0 0 0 0 0 0 0 127 0"/>
<feOffset dy="8"/>
<feGaussianBlur stdDeviation="8"/>
<feColorMatrix type="matrix" values="0 0 0 0 0.0666667 0 0 0 0 0.0666667 0 0 0 0 0.0666667 0 0 0 0.02 0"/>
<feBlend mode="normal" in2="BackgroundImageFix" result="effect1_dropShadow"/>
<feBlend mode="normal" in="SourceGraphic" in2="effect1_dropShadow" result="shape"/>
</filter>
<linearGradient id="paint0_linear" x1="344" y1="450.999" x2="506" y2="612.999" gradientUnits="userSpaceOnUse">
<stop stop-color="#FFF6B7"/>
<stop offset="1" stop-color="#F6416C"/>
</linearGradient>
<linearGradient id="paint1_linear" x1="344" y1="450.999" x2="506" y2="612.999" gradientUnits="userSpaceOnUse">
<stop stop-color="#FFE985"/>
<stop offset="1" stop-color="#FA742B"/>
</linearGradient>
<linearGradient id="paint2_linear" x1="344" y1="450.999" x2="506" y2="612.999" gradientUnits="userSpaceOnUse">
<stop stop-color="#CE9FFC"/>
<stop offset="1" stop-color="#7367F0"/>
</linearGradient>
<linearGradient id="paint3_linear" x1="555" y1="481.999" x2="565" y2="491.999" gradientUnits="userSpaceOnUse">
<stop stop-color="#CE9FFC"/>
<stop offset="1" stop-color="#7367F0"/>
</linearGradient>
<linearGradient id="paint4_linear" x1="555" y1="526.999" x2="565" y2="536.999" gradientUnits="userSpaceOnUse">
<stop stop-color="#FFF6B7"/>
<stop offset="1" stop-color="#F6416C"/>
</linearGradient>
<linearGradient id="paint5_linear" x1="555" y1="571.999" x2="565" y2="581.999" gradientUnits="userSpaceOnUse">
<stop stop-color="#FFE985"/>
<stop offset="1" stop-color="#FA742B"/>
</linearGradient>
</defs>
</svg>
