<svg width="443" height="429" viewBox="0 0 443 429" fill="none" xmlns="http://www.w3.org/2000/svg">
<circle cx="261.432" cy="214.489" r="5.42468" fill="#D6DAE4"/>
<path d="M409.82 118.429C404.274 118.429 399.105 116.816 394.753 114.032C398.448 114.272 404.967 113.699 409.022 109.831C402.922 109.551 400.171 104.872 399.812 102.873C400.33 103.073 402.803 103.313 404.198 102.753C397.181 100.994 396.104 94.8354 396.343 92.956C397.659 93.8757 399.892 94.1956 400.769 94.1156C394.23 89.437 396.583 82.399 397.739 80.8795C402.431 87.3806 409.464 91.0318 418.164 91.2349C418 90.5155 417.914 89.7664 417.914 88.9971C417.914 83.4759 422.376 79 427.881 79C430.758 79 433.35 80.2219 435.169 82.1763C437.091 81.7259 439.984 80.6715 441.398 79.7598C440.685 82.319 438.466 84.454 437.124 85.2453C437.135 85.2722 437.113 85.2182 437.124 85.2453C438.303 85.0669 441.493 84.4538 442.753 83.5987C442.13 85.0364 439.777 87.427 437.847 88.7653C438.206 104.608 426.085 118.429 409.82 118.429Z" fill="#47ACDF"/>
<circle cx="415.753" cy="254" r="21" fill="url(#paint0_linear)"/>
<path d="M423.574 260.422L424.507 254.495H418.671V250.65C418.671 249.029 419.485 247.447 422.099 247.447H424.753V242.4C424.753 242.4 422.345 242 420.044 242C415.236 242 412.096 244.839 412.096 249.978V254.495H406.753V260.422H412.096V274.752C413.168 274.916 414.266 275 415.384 275C416.501 275 417.599 274.916 418.671 274.752V260.422H423.574Z" fill="white"/>
<circle cx="415.753" cy="330" r="21" fill="#FFFA37"/>
<path fill-rule="evenodd" clip-rule="evenodd" d="M423.292 318.278C421.843 316.453 419.454 315 415.771 315C412.617 315.031 406.309 316.777 406.309 323.511C406.309 324.494 406.387 325.811 406.455 326.781C406.375 326.758 406.276 326.714 406.12 326.639L406.098 326.629C405.822 326.496 405.402 326.295 404.818 326.295C404.228 326.295 403.658 326.526 403.234 326.869C402.813 327.209 402.453 327.733 402.453 328.366C402.453 329.158 402.899 329.683 403.42 330.02C403.883 330.32 404.466 330.511 404.928 330.662L404.974 330.677C405.469 330.839 405.831 330.963 406.081 331.119C406.275 331.24 406.305 331.317 406.309 331.39C406.306 331.4 406.3 331.422 406.287 331.459C406.261 331.534 406.216 331.635 406.151 331.761C406.022 332.014 405.833 332.325 405.609 332.656C405.156 333.324 404.604 334.01 404.192 334.406C403.785 334.798 403.117 335.284 402.419 335.672C402.072 335.864 401.734 336.023 401.431 336.132C401.118 336.245 400.889 336.288 400.748 336.288C400.635 336.288 400.538 336.311 400.496 336.322C400.437 336.336 400.375 336.356 400.314 336.379C400.193 336.424 400.049 336.493 399.907 336.588C399.634 336.772 399.253 337.142 399.253 337.725C399.253 338.03 399.325 338.288 399.448 338.511C399.557 338.707 399.696 338.856 399.776 338.941L399.788 338.954L399.81 338.978C400.25 339.451 400.979 339.781 401.686 340.007C402.294 340.201 402.973 340.346 403.635 340.433C403.645 340.475 403.654 340.521 403.665 340.572L403.669 340.588C403.71 340.785 403.765 341.045 403.847 341.285C403.923 341.512 404.062 341.847 404.347 342.085C404.709 342.389 405.183 342.42 405.492 342.418C405.824 342.417 406.212 342.37 406.579 342.326L406.611 342.322C407.128 342.26 407.669 342.196 408.23 342.196C409.253 342.196 409.909 342.623 410.938 343.326L410.944 343.33C411.301 343.574 411.7 343.846 412.153 344.114C413.672 345.011 414.905 345.004 415.604 344.999C415.651 344.999 415.694 344.999 415.736 344.999C415.777 344.999 415.821 344.999 415.868 344.999C416.568 345.004 417.834 345.012 419.353 344.114C419.807 343.846 420.206 343.574 420.562 343.33L420.569 343.326C421.598 342.623 422.254 342.196 423.277 342.196C423.838 342.196 424.379 342.26 424.896 342.322L424.928 342.326C425.295 342.37 425.683 342.417 426.015 342.418C426.324 342.42 426.798 342.389 427.16 342.085C427.444 341.847 427.583 341.512 427.66 341.285C427.741 341.045 427.797 340.785 427.838 340.588L427.842 340.572C427.852 340.521 427.862 340.475 427.872 340.433C428.534 340.346 429.213 340.201 429.821 340.007C430.528 339.781 431.257 339.451 431.697 338.978L431.719 338.954L431.731 338.941C431.811 338.856 431.95 338.707 432.058 338.511C432.182 338.288 432.253 338.03 432.253 337.725C432.253 337.142 431.873 336.772 431.6 336.588C431.458 336.493 431.314 336.424 431.193 336.379C431.132 336.356 431.07 336.336 431.011 336.322C430.968 336.311 430.871 336.288 430.759 336.288C430.618 336.288 430.389 336.245 430.076 336.132C429.773 336.023 429.434 335.864 429.088 335.672C428.39 335.284 427.722 334.798 427.315 334.406C426.903 334.01 426.35 333.324 425.898 332.656C425.673 332.325 425.485 332.014 425.355 331.761C425.291 331.635 425.246 331.534 425.22 331.459C425.207 331.422 425.201 331.4 425.198 331.39C425.202 331.317 425.231 331.24 425.426 331.119C425.676 330.963 426.038 330.839 426.533 330.677L426.578 330.662C427.04 330.511 427.624 330.32 428.087 330.02C428.608 329.683 429.053 329.158 429.053 328.366C429.053 327.733 428.694 327.209 428.273 326.869C427.849 326.526 427.279 326.295 426.689 326.295C426.105 326.295 425.685 326.496 425.409 326.629L425.387 326.639C425.231 326.714 425.132 326.758 425.052 326.781C425.12 325.811 425.198 324.494 425.198 323.511C425.198 322.176 424.712 320.069 423.292 318.278ZM409.428 319.159C408.227 320.663 407.815 322.449 407.815 323.511C407.815 324.495 407.898 325.862 407.969 326.842C407.992 327.168 407.925 327.547 407.641 327.849C407.353 328.154 406.962 328.253 406.612 328.253C406.107 328.253 405.723 328.068 405.477 327.95L405.448 327.936C405.174 327.805 405.03 327.743 404.818 327.743C404.625 327.743 404.39 327.826 404.203 327.977C404.014 328.13 403.959 328.28 403.959 328.366C403.959 328.54 404.024 328.665 404.26 328.818C404.54 328.999 404.938 329.135 405.46 329.306L405.506 329.321C405.939 329.463 406.476 329.639 406.9 329.903C407.376 330.2 407.815 330.676 407.815 331.41C407.815 331.603 407.762 331.788 407.712 331.928C407.658 332.08 407.584 332.241 407.502 332.401C407.338 332.723 407.115 333.086 406.871 333.447C406.386 334.163 405.769 334.938 405.256 335.431C404.738 335.929 403.959 336.489 403.171 336.927C402.774 337.147 402.359 337.344 401.96 337.488C401.602 337.617 401.217 337.719 400.847 337.734C400.838 337.738 400.827 337.743 400.817 337.748C400.8 337.757 400.784 337.766 400.77 337.776L400.763 337.78C400.764 337.79 400.766 337.798 400.767 337.803C400.77 337.815 400.773 337.823 400.778 337.831C400.793 337.858 400.816 337.887 400.908 337.986L400.932 338.012C401.099 338.191 401.51 338.424 402.161 338.632C402.781 338.83 403.514 338.973 404.206 339.039C404.553 339.072 404.753 339.288 404.837 339.405C404.924 339.525 404.974 339.652 405.003 339.736C405.059 339.899 405.102 340.1 405.135 340.258L405.141 340.282C405.186 340.498 405.226 340.682 405.279 340.836C405.297 340.891 405.314 340.932 405.329 340.963C405.362 340.967 405.412 340.97 405.486 340.97C405.804 340.969 406.123 340.921 406.439 340.883C406.944 340.822 407.568 340.747 408.23 340.747C409.764 340.747 410.776 341.439 411.754 342.107L411.809 342.144C412.171 342.392 412.534 342.639 412.942 342.88C414.091 343.559 414.965 343.554 415.604 343.551C415.649 343.55 415.693 343.55 415.736 343.55C415.778 343.55 415.822 343.55 415.866 343.551C416.512 343.554 417.416 343.559 418.565 342.88C418.973 342.639 419.336 342.392 419.698 342.144L419.752 342.107C420.73 341.439 421.743 340.747 423.277 340.747C423.938 340.747 424.563 340.822 425.068 340.883L425.083 340.885C425.492 340.934 425.79 340.969 426.021 340.97C426.094 340.97 426.145 340.967 426.178 340.963C426.193 340.932 426.21 340.891 426.228 340.836C426.281 340.682 426.321 340.498 426.366 340.282L426.371 340.258C426.405 340.1 426.447 339.899 426.504 339.736C426.533 339.652 426.583 339.525 426.67 339.405C426.754 339.288 426.954 339.072 427.3 339.039C427.993 338.973 428.726 338.83 429.346 338.632C429.997 338.424 430.408 338.191 430.574 338.012L430.599 337.986C430.691 337.887 430.714 337.858 430.729 337.831C430.733 337.823 430.737 337.815 430.74 337.803C430.741 337.798 430.743 337.79 430.744 337.78L430.737 337.776C430.723 337.766 430.707 337.757 430.69 337.748C430.679 337.743 430.669 337.738 430.66 337.734C430.29 337.719 429.905 337.617 429.547 337.488C429.147 337.344 428.733 337.147 428.336 336.927C427.548 336.489 426.769 335.929 426.25 335.431C425.738 334.938 425.121 334.163 424.636 333.447C424.392 333.086 424.169 332.723 424.005 332.401C423.922 332.241 423.849 332.08 423.795 331.928C423.745 331.788 423.692 331.603 423.692 331.41C423.692 330.676 424.131 330.2 424.607 329.903C425.031 329.639 425.568 329.463 426.001 329.321L426.047 329.306C426.569 329.135 426.967 328.999 427.247 328.818C427.483 328.665 427.548 328.54 427.548 328.366C427.548 328.28 427.493 328.13 427.304 327.977C427.117 327.826 426.881 327.743 426.689 327.743C426.477 327.743 426.333 327.805 426.058 327.936L426.03 327.95C425.784 328.068 425.4 328.253 424.895 328.253C424.545 328.253 424.154 328.154 423.866 327.849C423.582 327.547 423.515 327.168 423.538 326.842C423.609 325.862 423.692 324.495 423.692 323.511C423.692 322.446 423.287 320.66 422.095 319.157C420.93 317.689 418.982 316.449 415.771 316.449C412.56 316.449 410.602 317.689 409.428 319.159Z" fill="black"/>
<path fill-rule="evenodd" clip-rule="evenodd" d="M409.429 319.159C408.227 320.663 407.815 322.449 407.815 323.511C407.815 324.495 407.899 325.862 407.969 326.842C407.993 327.168 407.926 327.547 407.641 327.849C407.354 328.154 406.962 328.253 406.612 328.253C406.107 328.253 405.723 328.068 405.477 327.95L405.449 327.936C405.175 327.804 405.031 327.743 404.819 327.743C404.626 327.743 404.39 327.826 404.204 327.977C404.015 328.13 403.96 328.28 403.96 328.366C403.96 328.54 404.024 328.665 404.261 328.818C404.54 328.999 404.939 329.135 405.461 329.306L405.506 329.321C405.94 329.463 406.477 329.639 406.9 329.903C407.376 330.2 407.815 330.676 407.815 331.41C407.815 331.603 407.762 331.788 407.712 331.928C407.658 332.08 407.585 332.241 407.503 332.401C407.338 332.723 407.116 333.086 406.871 333.447C406.386 334.163 405.769 334.938 405.257 335.431C404.739 335.929 403.959 336.489 403.171 336.927C402.774 337.147 402.36 337.344 401.96 337.488C401.603 337.617 401.217 337.719 400.847 337.734C400.838 337.738 400.828 337.743 400.817 337.748C400.8 337.757 400.784 337.766 400.77 337.775L400.763 337.78C400.765 337.79 400.766 337.798 400.768 337.803C400.77 337.815 400.774 337.823 400.779 337.831C400.793 337.858 400.816 337.887 400.909 337.986L400.933 338.012C401.099 338.191 401.51 338.424 402.161 338.632C402.781 338.83 403.514 338.973 404.207 339.039C404.553 339.072 404.753 339.288 404.838 339.405C404.925 339.525 404.975 339.652 405.004 339.736C405.06 339.899 405.102 340.1 405.136 340.258L405.141 340.282C405.187 340.498 405.227 340.682 405.279 340.836C405.297 340.891 405.315 340.932 405.329 340.963C405.362 340.967 405.413 340.97 405.486 340.97C405.805 340.969 406.124 340.921 406.439 340.883C406.944 340.822 407.569 340.747 408.23 340.747C409.765 340.747 410.777 341.439 411.755 342.107L411.81 342.144C412.172 342.392 412.534 342.639 412.942 342.88C414.091 343.559 414.966 343.554 415.605 343.551C415.65 343.55 415.694 343.55 415.736 343.55C415.779 343.55 415.822 343.55 415.867 343.551C416.513 343.554 417.417 343.559 418.566 342.88C418.974 342.639 419.336 342.392 419.698 342.144L419.753 342.107C420.731 341.439 421.743 340.747 423.277 340.747C423.939 340.747 424.564 340.822 425.069 340.883L425.084 340.885C425.492 340.934 425.791 340.969 426.022 340.97C426.095 340.97 426.146 340.967 426.179 340.963C426.193 340.932 426.21 340.891 426.229 340.836C426.281 340.682 426.321 340.498 426.367 340.282L426.372 340.258C426.405 340.1 426.448 339.899 426.504 339.736C426.533 339.652 426.583 339.525 426.67 339.405C426.755 339.288 426.954 339.072 427.301 339.039C427.994 338.973 428.727 338.83 429.347 338.632C429.998 338.424 430.408 338.191 430.575 338.012L430.599 337.986C430.692 337.887 430.715 337.858 430.729 337.831C430.734 337.823 430.737 337.815 430.74 337.803C430.742 337.798 430.743 337.79 430.745 337.78L430.738 337.775C430.724 337.766 430.708 337.757 430.691 337.748C430.68 337.743 430.67 337.738 430.661 337.734C430.291 337.719 429.905 337.617 429.548 337.488C429.148 337.344 428.733 337.147 428.337 336.927C427.548 336.489 426.769 335.929 426.251 335.431C425.738 334.938 425.122 334.163 424.637 333.447C424.392 333.086 424.17 332.723 424.005 332.401C423.923 332.241 423.85 332.08 423.796 331.928C423.746 331.788 423.692 331.603 423.692 331.41C423.692 330.676 424.132 330.2 424.608 329.903C425.031 329.639 425.568 329.463 426.002 329.321L426.047 329.306C426.569 329.135 426.968 328.999 427.247 328.818C427.484 328.665 427.548 328.54 427.548 328.366C427.548 328.28 427.493 328.13 427.304 327.977C427.117 327.826 426.882 327.743 426.689 327.743C426.477 327.743 426.333 327.804 426.059 327.936L426.03 327.95C425.785 328.068 425.401 328.253 424.896 328.253C424.546 328.253 424.154 328.154 423.866 327.849C423.582 327.547 423.515 327.168 423.539 326.842C423.609 325.862 423.692 324.495 423.692 323.511C423.692 322.446 423.288 320.66 422.095 319.157C420.93 317.689 418.982 316.449 415.772 316.449C412.56 316.449 410.603 317.689 409.429 319.159Z" fill="white"/>
<g opacity="0.6">
<circle cx="115.674" cy="214.5" r="105.5" fill="#FFF9FA" stroke="#FFF9FA" stroke-width="20"/>
<circle cx="115.674" cy="214.5" r="61" fill="#FFF9FA" stroke="#FFD3DE" stroke-width="25"/>
</g>
<path d="M148.598 214.489H261.572M261.572 214.489V255.174M261.572 214.489V177.058M389.453 23.54H261.572V98.4006M261.572 98.4006H389.453M261.572 98.4006V177.058M261.572 255.174H389.453M261.572 255.174V330.034M261.572 330.034H389.453M261.572 330.034V405.437H389.453M261.572 177.058H389.453" stroke="#D6DAE4" stroke-width="2.16987" stroke-dasharray="5.42 5.42"/>
<path d="M401.43 29.6889C401.664 27.7481 402.46 26.6614 403.96 25.5474C406.107 24.0388 408.788 24.8922 408.788 24.8922V19.8294C409.439 19.8128 410.091 19.8514 410.736 19.9449V26.4601C410.736 26.4601 408.056 25.6067 405.91 27.1162C404.41 28.2294 403.613 29.3168 403.379 31.2577C403.372 32.3115 403.57 33.6892 404.48 34.8804C404.255 34.7649 404.026 34.6333 403.792 34.4856C401.786 33.1384 401.42 31.1172 401.43 29.6889ZM421.806 10.4684C420.33 8.85052 419.771 7.21702 419.57 6.06952H421.427C421.427 6.06952 421.057 9.0783 423.755 12.0372L423.793 12.0769C423.066 11.6194 422.398 11.0793 421.806 10.4684ZM430.753 15.0553V21.4395C430.753 21.4395 428.383 21.3467 426.629 20.9005C424.18 20.2764 422.606 19.3192 422.606 19.3192C422.606 19.3192 421.519 18.6367 421.431 18.5891V31.7725C421.431 32.5066 421.23 34.3398 420.617 35.8687C419.817 37.8689 418.582 39.1817 418.355 39.4501C418.355 39.4501 416.853 41.2248 414.204 42.4199C411.816 43.498 409.72 43.4706 409.093 43.4979C409.093 43.4979 405.468 43.6415 402.207 41.522C401.502 41.0548 400.844 40.5257 400.241 39.9415L400.257 39.9532C403.519 42.0727 407.143 41.9292 407.143 41.9292C407.77 41.9019 409.867 41.9292 412.254 40.8511C414.901 39.656 416.405 37.8813 416.405 37.8813C416.63 37.613 417.87 36.3001 418.667 34.2992C419.278 32.771 419.481 30.937 419.481 30.203V17.0211C419.569 17.0695 420.655 17.7521 420.655 17.7521C420.655 17.7521 422.23 18.71 424.679 19.3333C426.434 19.7795 428.803 19.8723 428.803 19.8723V14.8696C429.614 15.0514 430.305 15.1006 430.753 15.0553Z" fill="#EE1D52"/>
<path d="M428.804 14.8696V19.8708C428.804 19.8708 426.434 19.7779 424.68 19.3317C422.231 18.7077 420.656 17.7505 420.656 17.7505C420.656 17.7505 419.569 17.0679 419.481 17.0196V30.2045C419.481 30.9386 419.28 32.7726 418.667 34.3008C417.867 36.3017 416.632 37.6146 416.405 37.8829C416.405 37.8829 414.903 39.6576 412.254 40.8527C409.867 41.9308 407.771 41.9035 407.143 41.9308C407.143 41.9308 403.52 42.0743 400.257 39.9548L400.241 39.9431C399.897 39.6096 399.572 39.2575 399.27 38.8884C398.229 37.6192 397.591 36.1184 397.431 35.6901C397.43 35.6883 397.43 35.6864 397.431 35.6846C397.173 34.9404 396.631 33.1533 396.705 31.4222C396.836 28.3682 397.91 26.4937 398.194 26.0241C398.946 24.7435 399.925 23.5977 401.086 22.6377C402.111 21.8094 403.272 21.1503 404.522 20.6875C405.874 20.1442 407.322 19.8529 408.787 19.8294V24.8922C408.787 24.8922 406.106 24.0419 403.961 25.5474C402.461 26.6614 401.665 27.7481 401.43 29.6889C401.42 31.1172 401.786 33.1384 403.791 34.4864C404.024 34.6346 404.254 34.7662 404.479 34.8811C404.829 35.3364 405.256 35.7331 405.741 36.0552C407.699 37.2947 409.34 37.3813 411.438 36.5763C412.837 36.038 413.89 34.825 414.379 33.4809C414.686 32.6415 414.682 31.7967 414.682 30.923V6.06952H419.565C419.767 7.21702 420.325 8.85052 421.802 10.4684C422.394 11.0793 423.061 11.6194 423.788 12.0769C424.003 12.2993 425.102 13.3984 426.513 14.0732C427.242 14.422 428.011 14.6892 428.804 14.8696V14.8696Z" fill="black"/>
<path d="M395.487 34.1354V34.1393L395.608 34.4678C395.595 34.4295 395.55 34.3133 395.487 34.1354Z" fill="#69C9D0"/>
<path d="M404.523 20.6875C403.272 21.1503 402.111 21.8094 401.086 22.6377C399.925 23.5999 398.947 24.7481 398.195 26.0311C397.911 26.4992 396.837 28.3753 396.706 31.4293C396.632 33.1603 397.174 34.9475 397.432 35.6917C397.432 35.6935 397.432 35.6953 397.432 35.6971C397.595 36.1215 398.23 37.6224 399.271 38.8955C399.574 39.2645 399.898 39.6166 400.242 39.9501C399.139 39.2187 398.155 38.3343 397.322 37.3259C396.29 36.0677 395.653 34.5824 395.487 34.144C395.487 34.1409 395.487 34.1377 395.487 34.1346V34.1292C395.229 33.3857 394.685 31.5978 394.761 29.8644C394.892 26.8104 395.966 24.9359 396.25 24.4663C397.001 23.1831 397.979 22.0348 399.141 21.0729C400.165 20.2443 401.327 19.5851 402.577 19.1227C403.357 18.8125 404.17 18.5836 405.001 18.4401C406.254 18.2305 407.533 18.2124 408.792 18.3863V19.8294C407.325 19.8524 405.876 20.1437 404.523 20.6875Z" fill="#69C9D0"/>
<path d="M419.569 6.06953H414.686V30.9238C414.686 31.7975 414.686 32.64 414.383 33.4817C413.89 34.825 412.84 36.038 411.442 36.5763C409.343 37.3844 407.702 37.2947 405.745 36.0552C405.259 35.7345 404.832 35.3392 404.48 34.8851C406.148 35.7377 407.64 35.7229 409.49 35.0114C410.887 34.4732 411.938 33.2601 412.429 31.916C412.737 31.0767 412.733 30.2319 412.733 29.3589V4.5H419.476C419.476 4.5 419.401 5.11783 419.569 6.06953ZM428.804 13.4866V14.8697C428.012 14.6889 427.245 14.4217 426.517 14.0732C425.106 13.3984 424.007 12.2993 423.792 12.077C424.042 12.2339 424.301 12.3766 424.567 12.5044C426.282 13.3251 427.971 13.57 428.804 13.4866Z" fill="#69C9D0"/>
<rect x="394.753" y="158" width="42" height="42" rx="8" fill="url(#paint1_radial)"/>
<rect x="394.753" y="158" width="42" height="42" rx="8" fill="url(#paint2_radial)"/>
<rect x="394.753" y="158" width="42" height="42" rx="8" fill="url(#paint3_radial)"/>
<path d="M426.253 170.75C426.253 171.993 425.246 173 424.003 173C422.761 173 421.753 171.993 421.753 170.75C421.753 169.507 422.761 168.5 424.003 168.5C425.246 168.5 426.253 169.507 426.253 170.75Z" fill="white"/>
<path fill-rule="evenodd" clip-rule="evenodd" d="M415.753 186.5C419.896 186.5 423.253 183.142 423.253 179C423.253 174.858 419.896 171.5 415.753 171.5C411.611 171.5 408.253 174.858 408.253 179C408.253 183.142 411.611 186.5 415.753 186.5ZM415.753 183.5C418.239 183.5 420.253 181.485 420.253 179C420.253 176.515 418.239 174.5 415.753 174.5C413.268 174.5 411.253 176.515 411.253 179C411.253 181.485 413.268 183.5 415.753 183.5Z" fill="white"/>
<path fill-rule="evenodd" clip-rule="evenodd" d="M400.753 178.4C400.753 173.36 400.753 170.839 401.734 168.914C402.597 167.221 403.974 165.844 405.668 164.981C407.593 164 410.113 164 415.153 164H416.353C421.394 164 423.914 164 425.839 164.981C427.533 165.844 428.91 167.221 429.772 168.914C430.753 170.839 430.753 173.36 430.753 178.4V179.6C430.753 184.64 430.753 187.161 429.772 189.086C428.91 190.779 427.533 192.156 425.839 193.019C423.914 194 421.394 194 416.353 194H415.153C410.113 194 407.593 194 405.668 193.019C403.974 192.156 402.597 190.779 401.734 189.086C400.753 187.161 400.753 184.64 400.753 179.6V178.4ZM415.153 167H416.353C418.923 167 420.67 167.002 422.02 167.113C423.336 167.22 424.008 167.415 424.477 167.654C425.606 168.229 426.524 169.147 427.099 170.276C427.339 170.745 427.533 171.418 427.641 172.733C427.751 174.083 427.753 175.83 427.753 178.4V179.6C427.753 182.17 427.751 183.917 427.641 185.267C427.533 186.582 427.339 187.255 427.099 187.724C426.524 188.853 425.606 189.771 424.477 190.346C424.008 190.585 423.336 190.78 422.02 190.887C420.67 190.998 418.923 191 416.353 191H415.153C412.584 191 410.837 190.998 409.487 190.887C408.171 190.78 407.499 190.585 407.029 190.346C405.901 189.771 404.983 188.853 404.407 187.724C404.168 187.255 403.974 186.582 403.866 185.267C403.756 183.917 403.753 182.17 403.753 179.6V178.4C403.753 175.83 403.756 174.083 403.866 172.733C403.974 171.418 404.168 170.745 404.407 170.276C404.983 169.147 405.901 168.229 407.029 167.654C407.499 167.415 408.171 167.22 409.487 167.113C410.837 167.002 412.584 167 415.153 167Z" fill="white"/>
<rect x="392.753" y="384" width="42" height="42" rx="21" fill="#1275B1"/>
<path d="M408.681 395.538C408.681 396.94 407.466 398.076 405.967 398.076C404.468 398.076 403.253 396.94 403.253 395.538C403.253 394.136 404.468 393 405.967 393C407.466 393 408.681 394.136 408.681 395.538Z" fill="white"/>
<path d="M403.625 399.942H408.264V414H403.625V399.942Z" fill="white"/>
<path d="M415.733 399.942H411.094V414H415.733C415.733 414 415.733 409.574 415.733 406.807C415.733 405.146 416.3 403.478 418.563 403.478C421.12 403.478 421.105 405.652 421.093 407.336C421.077 409.537 421.114 411.783 421.114 414H425.753V406.581C425.714 401.843 424.48 399.66 420.418 399.66C418.007 399.66 416.511 400.755 415.733 401.746V399.942Z" fill="white"/>
<path d="M116.519 200.518L111.561 195.597L110.585 194.625C100.777 184.865 84 191.776 84 205.574V242.575L90.9103 235.703L111.567 215.156L106.681 210.297L90.9103 225.985V205.823C90.9103 198.053 100.356 194.163 105.88 199.657L111.632 205.377L116.518 210.236L142.191 235.775L149.1 242.646V205.521C149.1 191.721 132.323 184.81 122.51 194.567L116.519 200.518ZM142.192 226.048L121.404 205.377L127.22 199.592C132.745 194.098 142.191 197.989 142.191 205.757L142.192 226.048Z" fill="#EF476F"/>
<defs>
<linearGradient id="paint0_linear" x1="415.753" y1="233" x2="415.753" y2="274.875" gradientUnits="userSpaceOnUse">
<stop stop-color="#18ACFE"/>
<stop offset="1" stop-color="#0163E0"/>
</linearGradient>
<radialGradient id="paint1_radial" cx="0" cy="0" r="1" gradientUnits="userSpaceOnUse" gradientTransform="translate(409.753 189.5) rotate(-55.3758) scale(38.2794)">
<stop stop-color="#B13589"/>
<stop offset="0.79309" stop-color="#C62F94"/>
<stop offset="1" stop-color="#8A3AC8"/>
</radialGradient>
<radialGradient id="paint2_radial" cx="0" cy="0" r="1" gradientUnits="userSpaceOnUse" gradientTransform="translate(408.253 201.5) rotate(-65.1363) scale(33.8914)">
<stop stop-color="#E0E8B7"/>
<stop offset="0.444662" stop-color="#FB8A2E"/>
<stop offset="0.71474" stop-color="#E2425C"/>
<stop offset="1" stop-color="#E2425C" stop-opacity="0"/>
</radialGradient>
<radialGradient id="paint3_radial" cx="0" cy="0" r="1" gradientUnits="userSpaceOnUse" gradientTransform="translate(392.503 159.5) rotate(-8.1301) scale(58.3363 12.4775)">
<stop offset="0.156701" stop-color="#406ADC"/>
<stop offset="0.467799" stop-color="#6A45BE"/>
<stop offset="1" stop-color="#6A45BE" stop-opacity="0"/>
</radialGradient>
</defs>
</svg>
