<?xml version="1.0" encoding="UTF-8"?>
<svg xmlns="http://www.w3.org/2000/svg" xmlns:xlink="http://www.w3.org/1999/xlink" width="222pt" height="215pt" viewBox="0 0 222 215" version="1.1">
<defs>
<linearGradient id="linear0" gradientUnits="userSpaceOnUse" x1="415.753" y1="233" x2="415.753" y2="274.875" gradientTransform="matrix(0.501129,0,0,0.501166,0,0)">
<stop offset="0" style="stop-color:rgb(9.411765%,67.45098%,99.607843%);stop-opacity:1;"/>
<stop offset="1" style="stop-color:rgb(0.392157%,38.823529%,87.843137%);stop-opacity:1;"/>
</linearGradient>
<filter id="alpha" filterUnits="objectBoundingBox" x="0%" y="0%" width="100%" height="100%">
  <feColorMatrix type="matrix" in="SourceGraphic" values="0 0 0 0 1 0 0 0 0 1 0 0 0 0 1 0 0 0 1 0"/>
</filter>
<mask id="mask0">
  <g filter="url(#alpha)">
<rect x="0" y="0" width="222" height="215" style="fill:rgb(0%,0%,0%);fill-opacity:0.6;stroke:none;"/>
  </g>
</mask>
<clipPath id="clip1">
  <rect x="0" y="0" width="222" height="215"/>
</clipPath>
<g id="surface5" clip-path="url(#clip1)">
<path style="fill-rule:nonzero;fill:rgb(100%,97.647059%,98.039216%);fill-opacity:1;stroke-width:20;stroke-linecap:butt;stroke-linejoin:miter;stroke:rgb(100%,97.647059%,98.039216%);stroke-opacity:1;stroke-miterlimit:4;" d="M 221.172614 214.5 C 221.172614 272.762627 173.943289 319.996275 115.67638 319.996275 C 57.40947 319.996275 10.17235 272.762627 10.17235 214.5 C 10.17235 156.237373 57.40947 109.003725 115.67638 109.003725 C 173.943289 109.003725 221.172614 156.237373 221.172614 214.5 Z M 221.172614 214.5 " transform="matrix(0.501129,0,0,0.501166,0,0)"/>
<path style="fill-rule:nonzero;fill:rgb(100%,97.647059%,98.039216%);fill-opacity:1;stroke-width:25;stroke-linecap:butt;stroke-linejoin:miter;stroke:rgb(100%,82.745098%,87.058824%);stroke-opacity:1;stroke-miterlimit:4;" d="M 176.671505 214.5 C 176.671505 248.1871 149.365956 275.498437 115.67638 275.498437 C 81.986803 275.498437 54.673459 248.1871 54.673459 214.5 C 54.673459 180.8129 81.986803 153.501563 115.67638 153.501563 C 149.365956 153.501563 176.671505 180.8129 176.671505 214.5 Z M 176.671505 214.5 " transform="matrix(0.501129,0,0,0.501166,0,0)"/>
</g>
<radialGradient id="radial0" gradientUnits="userSpaceOnUse" cx="0" cy="0" fx="0" fy="0" r="1" gradientTransform="matrix(10.899561,-15.786705,15.785544,10.900362,205.338975,94.970862)">
<stop offset="0" style="stop-color:rgb(69.411765%,20.784314%,53.72549%);stop-opacity:1;"/>
<stop offset="0.79309" style="stop-color:rgb(77.647059%,18.431373%,58.039216%);stop-opacity:1;"/>
<stop offset="1" style="stop-color:rgb(54.117647%,22.745098%,78.431373%);stop-opacity:1;"/>
</radialGradient>
<radialGradient id="radial1" gradientUnits="userSpaceOnUse" cx="0" cy="0" fx="0" fy="0" r="1" gradientTransform="matrix(7.141091,-15.410852,15.409719,7.141616,204.587282,100.984848)">
<stop offset="0" style="stop-color:rgb(87.843137%,90.980392%,71.764706%);stop-opacity:1;"/>
<stop offset="0.444662" style="stop-color:rgb(98.431373%,54.117647%,18.039216%);stop-opacity:1;"/>
<stop offset="0.71474" style="stop-color:rgb(88.627451%,25.882353%,36.078431%);stop-opacity:1;"/>
<stop offset="1" style="stop-color:rgb(88.627451%,25.882353%,36.078431%);stop-opacity:0;"/>
</radialGradient>
<radialGradient id="radial2" gradientUnits="userSpaceOnUse" cx="0" cy="0" fx="0" fy="0" r="1" gradientTransform="matrix(28.940176,-4.134614,0.884284,6.190444,196.694506,79.935897)">
<stop offset="0.156701" style="stop-color:rgb(25.098039%,41.568627%,86.27451%);stop-opacity:1;"/>
<stop offset="0.467799" style="stop-color:rgb(41.568627%,27.058824%,74.509804%);stop-opacity:1;"/>
<stop offset="1" style="stop-color:rgb(41.568627%,27.058824%,74.509804%);stop-opacity:0;"/>
</radialGradient>
</defs>
<g id="surface1">
<path style=" stroke:none;fill-rule:nonzero;fill:rgb(83.921569%,85.490196%,89.411765%);fill-opacity:1;" d="M 133.730469 107.496094 C 133.730469 108.996094 132.511719 110.214844 131.011719 110.214844 C 129.507812 110.214844 128.292969 108.996094 128.292969 107.496094 C 128.292969 105.992188 129.507812 104.777344 131.011719 104.777344 C 132.511719 104.777344 133.730469 105.992188 133.730469 107.496094 Z M 133.730469 107.496094 "/>
<path style=" stroke:none;fill-rule:nonzero;fill:rgb(27.843137%,67.45098%,87.45098%);fill-opacity:1;" d="M 205.371094 59.351562 C 202.59375 59.351562 200.003906 58.542969 197.820312 57.148438 C 199.671875 57.269531 202.941406 56.980469 204.972656 55.042969 C 201.914062 54.902344 200.539062 52.558594 200.355469 51.554688 C 200.617188 51.65625 201.855469 51.777344 202.554688 51.496094 C 199.039062 50.613281 198.5 47.527344 198.617188 46.585938 C 199.277344 47.046875 200.398438 47.207031 200.835938 47.167969 C 197.558594 44.824219 198.738281 41.296875 199.320312 40.535156 C 201.667969 43.792969 205.195312 45.621094 209.554688 45.722656 C 209.472656 45.363281 209.429688 44.988281 209.429688 44.601562 C 209.429688 41.835938 211.664062 39.59375 214.421875 39.59375 C 215.863281 39.59375 217.164062 40.203125 218.074219 41.183594 C 219.039062 40.957031 220.488281 40.429688 221.195312 39.972656 C 220.839844 41.253906 219.726562 42.324219 219.054688 42.722656 C 219.0625 42.734375 219.050781 42.707031 219.054688 42.722656 C 219.644531 42.632812 221.246094 42.324219 221.875 41.898438 C 221.5625 42.617188 220.386719 43.816406 219.417969 44.484375 C 219.597656 52.425781 213.523438 59.351562 205.371094 59.351562 Z M 205.371094 59.351562 "/>
<path style=" stroke:none;fill-rule:nonzero;fill:url(#linear0);" d="M 218.871094 127.296875 C 218.871094 133.109375 214.15625 137.820312 208.347656 137.820312 C 202.535156 137.820312 197.820312 133.109375 197.820312 127.296875 C 197.820312 121.484375 202.535156 116.773438 208.347656 116.773438 C 214.15625 116.773438 218.871094 121.484375 218.871094 127.296875 Z M 218.871094 127.296875 "/>
<path style=" stroke:none;fill-rule:nonzero;fill:rgb(100%,100%,100%);fill-opacity:1;" d="M 212.265625 130.515625 L 212.734375 127.542969 L 209.808594 127.542969 L 209.808594 125.617188 C 209.808594 124.804688 210.214844 124.011719 211.527344 124.011719 L 212.855469 124.011719 L 212.855469 121.484375 C 212.855469 121.484375 211.648438 121.28125 210.496094 121.28125 C 208.085938 121.28125 206.511719 122.703125 206.511719 125.28125 L 206.511719 127.542969 L 203.835938 127.542969 L 203.835938 130.515625 L 206.511719 130.515625 L 206.511719 137.695312 C 207.050781 137.777344 207.601562 137.820312 208.160156 137.820312 C 208.71875 137.820312 209.269531 137.777344 209.808594 137.695312 L 209.808594 130.515625 Z M 212.265625 130.515625 "/>
<path style=" stroke:none;fill-rule:nonzero;fill:rgb(100%,98.039216%,21.568627%);fill-opacity:1;" d="M 218.871094 165.382812 C 218.871094 171.195312 214.15625 175.910156 208.347656 175.910156 C 202.535156 175.910156 197.820312 171.195312 197.820312 165.382812 C 197.820312 159.570312 202.535156 154.859375 208.347656 154.859375 C 214.15625 154.859375 218.871094 159.570312 218.871094 165.382812 Z M 218.871094 165.382812 "/>
<path style=" stroke:none;fill-rule:evenodd;fill:rgb(0%,0%,0%);fill-opacity:1;" d="M 212.125 159.511719 C 211.398438 158.59375 210.199219 157.867188 208.355469 157.867188 C 206.773438 157.882812 203.613281 158.757812 203.613281 162.132812 C 203.613281 162.625 203.652344 163.285156 203.6875 163.769531 C 203.644531 163.761719 203.597656 163.738281 203.519531 163.699219 L 203.507812 163.695312 C 203.367188 163.628906 203.160156 163.527344 202.867188 163.527344 C 202.570312 163.527344 202.285156 163.644531 202.070312 163.816406 C 201.859375 163.984375 201.679688 164.25 201.679688 164.566406 C 201.679688 164.960938 201.902344 165.226562 202.164062 165.394531 C 202.398438 165.546875 202.691406 165.640625 202.921875 165.714844 L 202.945312 165.722656 C 203.191406 165.804688 203.375 165.867188 203.5 165.945312 C 203.597656 166.007812 203.609375 166.042969 203.613281 166.082031 C 203.613281 166.085938 203.609375 166.097656 203.601562 166.117188 C 203.589844 166.152344 203.566406 166.203125 203.535156 166.265625 C 203.46875 166.394531 203.375 166.550781 203.261719 166.714844 C 203.035156 167.050781 202.757812 167.394531 202.550781 167.59375 C 202.347656 167.789062 202.011719 168.03125 201.664062 168.226562 C 201.488281 168.324219 201.320312 168.402344 201.167969 168.457031 C 201.011719 168.515625 200.898438 168.535156 200.828125 168.535156 C 200.769531 168.535156 200.722656 168.546875 200.699219 168.554688 C 200.671875 168.558594 200.640625 168.570312 200.609375 168.582031 C 200.546875 168.605469 200.476562 168.640625 200.40625 168.6875 C 200.269531 168.777344 200.078125 168.964844 200.078125 169.257812 C 200.078125 169.410156 200.113281 169.539062 200.175781 169.648438 C 200.230469 169.75 200.300781 169.824219 200.339844 169.867188 L 200.355469 169.882812 C 200.578125 170.121094 200.941406 170.285156 201.296875 170.398438 C 201.601562 170.496094 201.941406 170.570312 202.273438 170.613281 C 202.277344 170.632812 202.28125 170.65625 202.289062 170.683594 L 202.289062 170.691406 C 202.3125 170.789062 202.339844 170.921875 202.378906 171.039062 C 202.417969 171.152344 202.488281 171.320312 202.628906 171.441406 C 202.8125 171.59375 203.046875 171.609375 203.203125 171.609375 C 203.371094 171.609375 203.566406 171.585938 203.75 171.5625 L 203.765625 171.558594 C 204.023438 171.527344 204.292969 171.496094 204.574219 171.496094 C 205.089844 171.496094 205.417969 171.710938 205.933594 172.0625 L 205.9375 172.066406 C 206.113281 172.1875 206.316406 172.324219 206.542969 172.457031 C 207.304688 172.90625 207.921875 172.902344 208.269531 172.902344 C 208.292969 172.902344 208.316406 172.902344 208.335938 172.902344 C 208.359375 172.902344 208.378906 172.902344 208.402344 172.902344 C 208.753906 172.902344 209.386719 172.90625 210.148438 172.457031 C 210.378906 172.324219 210.578125 172.1875 210.753906 172.066406 L 210.757812 172.0625 C 211.273438 171.710938 211.605469 171.496094 212.117188 171.496094 C 212.398438 171.496094 212.667969 171.527344 212.925781 171.558594 L 212.945312 171.5625 C 213.128906 171.585938 213.320312 171.609375 213.488281 171.609375 C 213.644531 171.609375 213.878906 171.59375 214.0625 171.441406 C 214.203125 171.320312 214.273438 171.152344 214.3125 171.039062 C 214.351562 170.921875 214.382812 170.789062 214.402344 170.691406 L 214.402344 170.683594 C 214.410156 170.65625 214.414062 170.632812 214.417969 170.613281 C 214.75 170.570312 215.089844 170.496094 215.394531 170.398438 C 215.75 170.285156 216.117188 170.121094 216.335938 169.882812 L 216.351562 169.867188 C 216.394531 169.824219 216.460938 169.75 216.515625 169.648438 C 216.578125 169.539062 216.613281 169.410156 216.613281 169.257812 C 216.613281 168.964844 216.425781 168.777344 216.289062 168.6875 C 216.214844 168.640625 216.144531 168.605469 216.082031 168.582031 C 216.050781 168.570312 216.023438 168.558594 215.992188 168.554688 C 215.96875 168.546875 215.921875 168.535156 215.867188 168.535156 C 215.796875 168.535156 215.679688 168.515625 215.523438 168.457031 C 215.371094 168.402344 215.203125 168.324219 215.027344 168.226562 C 214.679688 168.03125 214.34375 167.789062 214.140625 167.59375 C 213.933594 167.394531 213.65625 167.050781 213.429688 166.714844 C 213.316406 166.550781 213.222656 166.394531 213.15625 166.265625 C 213.125 166.203125 213.101562 166.152344 213.089844 166.117188 C 213.082031 166.097656 213.082031 166.085938 213.078125 166.082031 C 213.082031 166.042969 213.09375 166.007812 213.191406 165.945312 C 213.320312 165.867188 213.5 165.804688 213.746094 165.722656 L 213.769531 165.714844 C 214.003906 165.640625 214.292969 165.546875 214.527344 165.394531 C 214.789062 165.226562 215.011719 164.960938 215.011719 164.566406 C 215.011719 164.25 214.832031 163.984375 214.621094 163.816406 C 214.40625 163.644531 214.121094 163.527344 213.824219 163.527344 C 213.535156 163.527344 213.324219 163.628906 213.183594 163.695312 L 213.171875 163.699219 C 213.09375 163.738281 213.046875 163.761719 213.003906 163.769531 C 213.039062 163.285156 213.078125 162.625 213.078125 162.132812 C 213.078125 161.464844 212.835938 160.40625 212.125 159.511719 Z M 205.175781 159.953125 C 204.574219 160.707031 204.367188 161.601562 204.367188 162.132812 C 204.367188 162.625 204.410156 163.3125 204.445312 163.800781 C 204.457031 163.964844 204.421875 164.15625 204.28125 164.304688 C 204.136719 164.460938 203.941406 164.507812 203.765625 164.507812 C 203.511719 164.507812 203.320312 164.417969 203.195312 164.355469 L 203.179688 164.351562 C 203.042969 164.285156 202.972656 164.253906 202.867188 164.253906 C 202.769531 164.253906 202.652344 164.296875 202.558594 164.371094 C 202.464844 164.449219 202.433594 164.523438 202.433594 164.566406 C 202.433594 164.652344 202.46875 164.714844 202.585938 164.792969 C 202.726562 164.882812 202.925781 164.949219 203.1875 165.035156 L 203.210938 165.042969 C 203.425781 165.117188 203.695312 165.203125 203.910156 165.335938 C 204.148438 165.484375 204.367188 165.722656 204.367188 166.089844 C 204.367188 166.1875 204.339844 166.28125 204.316406 166.351562 C 204.289062 166.425781 204.253906 166.507812 204.210938 166.589844 C 204.128906 166.75 204.015625 166.929688 203.894531 167.113281 C 203.652344 167.472656 203.34375 167.859375 203.085938 168.105469 C 202.824219 168.355469 202.433594 168.636719 202.039062 168.855469 C 201.839844 168.964844 201.632812 169.066406 201.433594 169.136719 C 201.253906 169.203125 201.0625 169.253906 200.875 169.261719 C 200.871094 169.261719 200.867188 169.265625 200.859375 169.269531 C 200.851562 169.273438 200.84375 169.277344 200.835938 169.28125 L 200.832031 169.285156 C 200.835938 169.289062 200.835938 169.292969 200.835938 169.296875 C 200.835938 169.300781 200.839844 169.304688 200.839844 169.308594 C 200.847656 169.324219 200.859375 169.335938 200.90625 169.386719 L 200.917969 169.398438 C 201.003906 169.488281 201.207031 169.605469 201.535156 169.710938 C 201.84375 169.808594 202.210938 169.882812 202.558594 169.914062 C 202.734375 169.929688 202.832031 170.039062 202.875 170.097656 C 202.917969 170.160156 202.945312 170.222656 202.957031 170.265625 C 202.988281 170.34375 203.007812 170.445312 203.023438 170.527344 L 203.027344 170.539062 C 203.050781 170.644531 203.070312 170.738281 203.097656 170.816406 C 203.105469 170.84375 203.113281 170.863281 203.121094 170.878906 C 203.136719 170.882812 203.164062 170.882812 203.199219 170.882812 C 203.359375 170.882812 203.519531 170.859375 203.679688 170.839844 C 203.929688 170.808594 204.242188 170.769531 204.574219 170.769531 C 205.34375 170.769531 205.851562 171.117188 206.339844 171.453125 L 206.371094 171.472656 C 206.550781 171.59375 206.734375 171.71875 206.9375 171.839844 C 207.511719 172.179688 207.949219 172.175781 208.269531 172.175781 C 208.292969 172.175781 208.316406 172.175781 208.335938 172.175781 C 208.359375 172.175781 208.378906 172.175781 208.402344 172.175781 C 208.726562 172.175781 209.179688 172.179688 209.753906 171.839844 C 209.960938 171.71875 210.140625 171.59375 210.324219 171.472656 L 210.351562 171.453125 C 210.839844 171.117188 211.347656 170.769531 212.117188 170.769531 C 212.449219 170.769531 212.761719 170.808594 213.015625 170.839844 L 213.019531 170.839844 C 213.226562 170.863281 213.375 170.882812 213.492188 170.882812 C 213.527344 170.882812 213.554688 170.882812 213.570312 170.878906 C 213.578125 170.863281 213.585938 170.84375 213.59375 170.816406 C 213.621094 170.738281 213.640625 170.644531 213.664062 170.539062 L 213.667969 170.527344 C 213.683594 170.445312 213.703125 170.34375 213.734375 170.265625 C 213.746094 170.222656 213.773438 170.160156 213.816406 170.097656 C 213.859375 170.039062 213.957031 169.929688 214.132812 169.914062 C 214.480469 169.882812 214.847656 169.808594 215.15625 169.710938 C 215.484375 169.605469 215.691406 169.488281 215.773438 169.398438 L 215.785156 169.386719 C 215.832031 169.335938 215.84375 169.324219 215.851562 169.308594 C 215.851562 169.304688 215.855469 169.300781 215.855469 169.296875 C 215.855469 169.292969 215.859375 169.289062 215.859375 169.285156 L 215.855469 169.28125 C 215.847656 169.277344 215.839844 169.273438 215.832031 169.269531 C 215.824219 169.265625 215.820312 169.261719 215.816406 169.261719 C 215.628906 169.253906 215.4375 169.203125 215.257812 169.136719 C 215.058594 169.066406 214.851562 168.964844 214.652344 168.855469 C 214.257812 168.636719 213.867188 168.355469 213.605469 168.105469 C 213.347656 167.859375 213.039062 167.472656 212.796875 167.113281 C 212.675781 166.929688 212.5625 166.75 212.480469 166.589844 C 212.441406 166.507812 212.402344 166.425781 212.375 166.351562 C 212.351562 166.28125 212.324219 166.1875 212.324219 166.089844 C 212.324219 165.722656 212.542969 165.484375 212.78125 165.335938 C 212.996094 165.203125 213.265625 165.117188 213.480469 165.042969 L 213.503906 165.035156 C 213.765625 164.949219 213.964844 164.882812 214.105469 164.792969 C 214.222656 164.714844 214.257812 164.652344 214.257812 164.566406 C 214.257812 164.523438 214.230469 164.449219 214.132812 164.371094 C 214.039062 164.296875 213.921875 164.253906 213.824219 164.253906 C 213.71875 164.253906 213.648438 164.285156 213.511719 164.351562 L 213.496094 164.355469 C 213.371094 164.417969 213.179688 164.507812 212.925781 164.507812 C 212.75 164.507812 212.554688 164.460938 212.410156 164.304688 C 212.269531 164.15625 212.234375 163.964844 212.246094 163.800781 C 212.28125 163.3125 212.324219 162.625 212.324219 162.132812 C 212.324219 161.597656 212.121094 160.703125 211.523438 159.949219 C 210.941406 159.214844 209.964844 158.59375 208.355469 158.59375 C 206.746094 158.59375 205.765625 159.214844 205.175781 159.953125 Z M 205.175781 159.953125 "/>
<path style=" stroke:none;fill-rule:evenodd;fill:rgb(100%,100%,100%);fill-opacity:1;" d="M 205.175781 159.953125 C 204.574219 160.707031 204.367188 161.601562 204.367188 162.132812 C 204.367188 162.625 204.410156 163.3125 204.445312 163.800781 C 204.457031 163.964844 204.421875 164.15625 204.28125 164.304688 C 204.136719 164.460938 203.941406 164.507812 203.765625 164.507812 C 203.511719 164.507812 203.320312 164.417969 203.195312 164.355469 L 203.183594 164.351562 C 203.042969 164.285156 202.972656 164.253906 202.867188 164.253906 C 202.769531 164.253906 202.652344 164.296875 202.558594 164.371094 C 202.464844 164.449219 202.4375 164.523438 202.4375 164.566406 C 202.4375 164.652344 202.46875 164.714844 202.585938 164.792969 C 202.726562 164.882812 202.925781 164.949219 203.1875 165.035156 L 203.210938 165.042969 C 203.429688 165.117188 203.699219 165.203125 203.910156 165.335938 C 204.148438 165.484375 204.367188 165.722656 204.367188 166.089844 C 204.367188 166.1875 204.339844 166.28125 204.316406 166.351562 C 204.289062 166.425781 204.253906 166.507812 204.210938 166.589844 C 204.128906 166.75 204.015625 166.929688 203.894531 167.113281 C 203.652344 167.472656 203.34375 167.859375 203.085938 168.105469 C 202.828125 168.355469 202.433594 168.636719 202.039062 168.855469 C 201.839844 168.964844 201.632812 169.066406 201.433594 169.136719 C 201.253906 169.203125 201.0625 169.253906 200.875 169.261719 C 200.871094 169.261719 200.867188 169.265625 200.859375 169.269531 C 200.851562 169.273438 200.84375 169.277344 200.835938 169.28125 L 200.832031 169.285156 C 200.835938 169.289062 200.835938 169.292969 200.835938 169.296875 C 200.835938 169.300781 200.839844 169.304688 200.84375 169.308594 C 200.847656 169.324219 200.859375 169.335938 200.90625 169.386719 L 200.917969 169.398438 C 201.003906 169.488281 201.207031 169.605469 201.535156 169.710938 C 201.84375 169.808594 202.210938 169.882812 202.558594 169.914062 C 202.734375 169.929688 202.832031 170.039062 202.875 170.097656 C 202.917969 170.160156 202.945312 170.222656 202.960938 170.265625 C 202.988281 170.34375 203.007812 170.445312 203.023438 170.527344 L 203.027344 170.539062 C 203.050781 170.644531 203.070312 170.738281 203.097656 170.816406 C 203.105469 170.84375 203.113281 170.863281 203.121094 170.878906 C 203.136719 170.882812 203.164062 170.882812 203.199219 170.882812 C 203.359375 170.882812 203.519531 170.859375 203.679688 170.839844 C 203.929688 170.808594 204.246094 170.769531 204.574219 170.769531 C 205.34375 170.769531 205.851562 171.117188 206.34375 171.453125 L 206.371094 171.472656 C 206.550781 171.59375 206.734375 171.71875 206.9375 171.839844 C 207.511719 172.179688 207.953125 172.175781 208.273438 172.175781 C 208.292969 172.175781 208.316406 172.175781 208.335938 172.175781 C 208.359375 172.175781 208.378906 172.175781 208.402344 172.175781 C 208.726562 172.175781 209.179688 172.179688 209.753906 171.839844 C 209.960938 171.71875 210.140625 171.59375 210.324219 171.472656 L 210.351562 171.453125 C 210.839844 171.117188 211.347656 170.769531 212.117188 170.769531 C 212.449219 170.769531 212.761719 170.808594 213.015625 170.839844 L 213.023438 170.839844 C 213.226562 170.863281 213.375 170.882812 213.492188 170.882812 C 213.527344 170.882812 213.554688 170.882812 213.570312 170.878906 C 213.578125 170.863281 213.585938 170.84375 213.59375 170.816406 C 213.621094 170.738281 213.640625 170.644531 213.664062 170.539062 L 213.667969 170.527344 C 213.683594 170.445312 213.707031 170.34375 213.734375 170.265625 C 213.746094 170.222656 213.773438 170.160156 213.816406 170.097656 C 213.859375 170.039062 213.957031 169.929688 214.132812 169.914062 C 214.480469 169.882812 214.847656 169.808594 215.15625 169.710938 C 215.484375 169.605469 215.691406 169.488281 215.773438 169.398438 L 215.785156 169.386719 C 215.832031 169.335938 215.84375 169.324219 215.851562 169.308594 C 215.851562 169.304688 215.855469 169.300781 215.855469 169.296875 C 215.855469 169.292969 215.859375 169.289062 215.859375 169.285156 L 215.855469 169.28125 C 215.847656 169.277344 215.839844 169.273438 215.832031 169.269531 C 215.824219 169.265625 215.820312 169.261719 215.816406 169.261719 C 215.632812 169.253906 215.4375 169.203125 215.257812 169.136719 C 215.058594 169.066406 214.851562 168.964844 214.652344 168.855469 C 214.257812 168.636719 213.867188 168.355469 213.605469 168.105469 C 213.347656 167.859375 213.039062 167.472656 212.796875 167.113281 C 212.675781 166.929688 212.5625 166.75 212.480469 166.589844 C 212.441406 166.507812 212.402344 166.425781 212.375 166.351562 C 212.351562 166.28125 212.324219 166.1875 212.324219 166.089844 C 212.324219 165.722656 212.542969 165.484375 212.785156 165.335938 C 212.996094 165.203125 213.265625 165.117188 213.480469 165.042969 L 213.503906 165.035156 C 213.765625 164.949219 213.964844 164.882812 214.105469 164.792969 C 214.222656 164.714844 214.257812 164.652344 214.257812 164.566406 C 214.257812 164.523438 214.230469 164.449219 214.132812 164.371094 C 214.039062 164.296875 213.921875 164.253906 213.824219 164.253906 C 213.71875 164.253906 213.648438 164.285156 213.511719 164.351562 L 213.496094 164.355469 C 213.375 164.417969 213.179688 164.507812 212.925781 164.507812 C 212.753906 164.507812 212.554688 164.460938 212.410156 164.304688 C 212.269531 164.15625 212.234375 163.964844 212.246094 163.800781 C 212.28125 163.3125 212.324219 162.625 212.324219 162.132812 C 212.324219 161.597656 212.121094 160.703125 211.523438 159.949219 C 210.941406 159.214844 209.964844 158.59375 208.355469 158.59375 C 206.746094 158.59375 205.765625 159.214844 205.175781 159.953125 Z M 205.175781 159.953125 "/>
<use xlink:href="#surface5" mask="url(#mask0)"/>
<path style="fill:none;stroke-width:2.16987;stroke-linecap:butt;stroke-linejoin:miter;stroke:rgb(83.921569%,85.490196%,89.411765%);stroke-opacity:1;stroke-dasharray:5.42,5.42;stroke-miterlimit:4;" d="M 148.59426 214.492206 L 261.573603 214.492206 M 261.573603 214.492206 L 261.573603 255.170821 M 261.573603 214.492206 L 261.573603 177.056032 M 389.456803 23.538881 L 261.573603 23.538881 L 261.573603 98.403434 M 261.573603 98.403434 L 389.456803 98.403434 M 261.573603 98.403434 L 261.573603 177.056032 M 261.573603 255.170821 L 389.456803 255.170821 M 261.573603 255.170821 L 261.573603 330.035374 M 261.573603 330.035374 L 389.456803 330.035374 M 261.573603 330.035374 L 261.573603 405.437736 L 389.456803 405.437736 M 261.573603 177.056032 L 389.456803 177.056032 " transform="matrix(0.501129,0,0,0.501166,0,0)"/>
<path style=" stroke:none;fill-rule:nonzero;fill:rgb(93.333333%,11.372549%,32.156863%);fill-opacity:1;" d="M 201.167969 14.878906 C 201.285156 13.90625 201.683594 13.363281 202.4375 12.804688 C 203.511719 12.046875 204.855469 12.476562 204.855469 12.476562 L 204.855469 9.9375 C 205.179688 9.929688 205.507812 9.949219 205.832031 9.996094 L 205.832031 13.261719 C 205.832031 13.261719 204.488281 12.832031 203.414062 13.589844 C 202.660156 14.148438 202.261719 14.691406 202.144531 15.664062 C 202.140625 16.195312 202.242188 16.882812 202.695312 17.480469 C 202.582031 17.421875 202.46875 17.355469 202.351562 17.28125 C 201.347656 16.609375 201.164062 15.59375 201.167969 14.878906 Z M 211.378906 5.246094 C 210.640625 4.4375 210.359375 3.617188 210.257812 3.042969 L 211.1875 3.042969 C 211.1875 3.042969 211.003906 4.550781 212.355469 6.03125 L 212.375 6.050781 C 212.011719 5.824219 211.675781 5.550781 211.378906 5.246094 Z M 215.863281 7.546875 L 215.863281 10.746094 C 215.863281 10.746094 214.675781 10.699219 213.796875 10.476562 C 212.570312 10.160156 211.78125 9.683594 211.78125 9.683594 C 211.78125 9.683594 211.234375 9.339844 211.191406 9.316406 L 211.191406 15.921875 C 211.191406 16.292969 211.089844 17.210938 210.785156 17.976562 C 210.382812 18.980469 209.761719 19.636719 209.648438 19.769531 C 209.648438 19.769531 208.898438 20.660156 207.570312 21.257812 C 206.371094 21.800781 205.324219 21.785156 205.007812 21.800781 C 205.007812 21.800781 203.191406 21.871094 201.558594 20.808594 C 201.203125 20.574219 200.875 20.308594 200.570312 20.015625 L 200.582031 20.023438 C 202.214844 21.085938 204.03125 21.011719 204.03125 21.011719 C 204.34375 21 205.394531 21.011719 206.59375 20.472656 C 207.917969 19.875 208.671875 18.984375 208.671875 18.984375 C 208.785156 18.851562 209.40625 18.191406 209.804688 17.191406 C 210.113281 16.421875 210.214844 15.503906 210.214844 15.136719 L 210.214844 8.53125 C 210.257812 8.554688 210.800781 8.898438 210.800781 8.898438 C 210.800781 8.898438 211.589844 9.375 212.820312 9.6875 C 213.699219 9.914062 214.886719 9.960938 214.886719 9.960938 L 214.886719 7.453125 C 215.292969 7.542969 215.636719 7.566406 215.863281 7.546875 Z M 215.863281 7.546875 "/>
<path style=" stroke:none;fill-rule:nonzero;fill:rgb(0%,0%,0%);fill-opacity:1;" d="M 214.886719 7.453125 L 214.886719 9.957031 C 214.886719 9.957031 213.699219 9.910156 212.820312 9.6875 C 211.59375 9.375 210.804688 8.894531 210.804688 8.894531 C 210.804688 8.894531 210.257812 8.554688 210.214844 8.53125 L 210.214844 15.136719 C 210.214844 15.503906 210.113281 16.425781 209.804688 17.191406 C 209.40625 18.191406 208.785156 18.851562 208.671875 18.984375 C 208.671875 18.984375 207.917969 19.875 206.59375 20.472656 C 205.394531 21.015625 204.347656 21 204.03125 21.015625 C 204.03125 21.015625 202.214844 21.085938 200.582031 20.023438 L 200.570312 20.019531 C 200.398438 19.851562 200.238281 19.675781 200.085938 19.488281 C 199.5625 18.851562 199.246094 18.101562 199.164062 17.886719 C 199.164062 17.886719 199.164062 17.886719 199.164062 17.882812 C 199.035156 17.511719 198.761719 16.617188 198.800781 15.746094 C 198.867188 14.21875 199.402344 13.277344 199.546875 13.042969 C 199.921875 12.402344 200.414062 11.828125 200.996094 11.34375 C 201.507812 10.929688 202.089844 10.601562 202.71875 10.367188 C 203.394531 10.09375 204.121094 9.949219 204.855469 9.9375 L 204.855469 12.476562 C 204.855469 12.476562 203.511719 12.050781 202.4375 12.804688 C 201.683594 13.363281 201.285156 13.90625 201.167969 14.878906 C 201.164062 15.59375 201.347656 16.609375 202.351562 17.285156 C 202.46875 17.359375 202.582031 17.421875 202.695312 17.480469 C 202.871094 17.710938 203.085938 17.90625 203.328125 18.070312 C 204.308594 18.691406 205.132812 18.734375 206.183594 18.332031 C 206.882812 18.0625 207.414062 17.453125 207.65625 16.78125 C 207.8125 16.359375 207.808594 15.933594 207.808594 15.496094 L 207.808594 3.042969 L 210.257812 3.042969 C 210.355469 3.617188 210.636719 4.4375 211.378906 5.246094 C 211.671875 5.550781 212.007812 5.824219 212.371094 6.050781 C 212.480469 6.164062 213.03125 6.714844 213.738281 7.054688 C 214.101562 7.226562 214.488281 7.363281 214.886719 7.453125 Z M 214.886719 7.453125 "/>
<path style=" stroke:none;fill-rule:nonzero;fill:rgb(41.176471%,78.823529%,81.568627%);fill-opacity:1;" d="M 198.191406 17.109375 L 198.25 17.273438 C 198.242188 17.253906 198.222656 17.195312 198.191406 17.109375 Z M 198.191406 17.109375 "/>
<path style=" stroke:none;fill-rule:nonzero;fill:rgb(41.176471%,78.823529%,81.568627%);fill-opacity:1;" d="M 202.71875 10.367188 C 202.089844 10.601562 201.507812 10.929688 200.996094 11.34375 C 200.414062 11.828125 199.921875 12.402344 199.546875 13.046875 C 199.40625 13.28125 198.867188 14.222656 198.800781 15.75 C 198.761719 16.617188 199.035156 17.515625 199.164062 17.886719 C 199.164062 17.886719 199.164062 17.890625 199.164062 17.890625 C 199.246094 18.101562 199.566406 18.855469 200.085938 19.492188 C 200.238281 19.679688 200.398438 19.855469 200.574219 20.023438 C 200.019531 19.65625 199.527344 19.210938 199.109375 18.707031 C 198.59375 18.074219 198.273438 17.332031 198.191406 17.113281 C 198.191406 17.109375 198.191406 17.109375 198.191406 17.105469 C 198.0625 16.730469 197.789062 15.835938 197.824219 14.96875 C 197.890625 13.4375 198.429688 12.496094 198.570312 12.261719 C 198.949219 11.617188 199.4375 11.042969 200.019531 10.5625 C 200.535156 10.144531 201.117188 9.816406 201.742188 9.582031 C 202.132812 9.429688 202.542969 9.3125 202.957031 9.242188 C 203.585938 9.136719 204.226562 9.128906 204.855469 9.214844 L 204.855469 9.9375 C 204.121094 9.949219 203.394531 10.09375 202.71875 10.367188 Z M 202.71875 10.367188 "/>
<path style=" stroke:none;fill-rule:nonzero;fill:rgb(41.176471%,78.823529%,81.568627%);fill-opacity:1;" d="M 210.257812 3.042969 L 207.8125 3.042969 L 207.8125 15.496094 C 207.8125 15.9375 207.8125 16.359375 207.660156 16.78125 C 207.414062 17.453125 206.886719 18.0625 206.183594 18.332031 C 205.132812 18.734375 204.3125 18.691406 203.332031 18.070312 C 203.085938 17.910156 202.871094 17.710938 202.695312 17.484375 C 203.53125 17.910156 204.28125 17.902344 205.207031 17.546875 C 205.90625 17.277344 206.433594 16.667969 206.679688 15.996094 C 206.835938 15.574219 206.832031 15.152344 206.832031 14.714844 L 206.832031 2.253906 L 210.210938 2.253906 C 210.210938 2.253906 210.175781 2.566406 210.257812 3.042969 Z M 214.886719 6.757812 L 214.886719 7.453125 C 214.488281 7.363281 214.105469 7.226562 213.738281 7.054688 C 213.03125 6.714844 212.480469 6.164062 212.375 6.050781 C 212.5 6.132812 212.628906 6.203125 212.761719 6.265625 C 213.621094 6.679688 214.46875 6.800781 214.886719 6.757812 Z M 214.886719 6.757812 "/>
<path style=" stroke:none;fill-rule:nonzero;fill:url(#radial0);" d="M 201.832031 79.183594 L 214.859375 79.183594 C 217.074219 79.183594 218.871094 80.980469 218.871094 83.195312 L 218.871094 96.222656 C 218.871094 98.4375 217.074219 100.234375 214.859375 100.234375 L 201.832031 100.234375 C 199.617188 100.234375 197.820312 98.4375 197.820312 96.222656 L 197.820312 83.195312 C 197.820312 80.980469 199.617188 79.183594 201.832031 79.183594 Z M 201.832031 79.183594 "/>
<path style=" stroke:none;fill-rule:nonzero;fill:url(#radial1);" d="M 201.832031 79.183594 L 214.859375 79.183594 C 217.074219 79.183594 218.871094 80.980469 218.871094 83.195312 L 218.871094 96.222656 C 218.871094 98.4375 217.074219 100.234375 214.859375 100.234375 L 201.832031 100.234375 C 199.617188 100.234375 197.820312 98.4375 197.820312 96.222656 L 197.820312 83.195312 C 197.820312 80.980469 199.617188 79.183594 201.832031 79.183594 Z M 201.832031 79.183594 "/>
<path style=" stroke:none;fill-rule:nonzero;fill:url(#radial2);" d="M 201.832031 79.183594 L 214.859375 79.183594 C 217.074219 79.183594 218.871094 80.980469 218.871094 83.195312 L 218.871094 96.222656 C 218.871094 98.4375 217.074219 100.234375 214.859375 100.234375 L 201.832031 100.234375 C 199.617188 100.234375 197.820312 98.4375 197.820312 96.222656 L 197.820312 83.195312 C 197.820312 80.980469 199.617188 79.183594 201.832031 79.183594 Z M 201.832031 79.183594 "/>
<path style=" stroke:none;fill-rule:nonzero;fill:rgb(100%,100%,100%);fill-opacity:1;" d="M 213.609375 85.574219 C 213.609375 86.195312 213.101562 86.703125 212.480469 86.703125 C 211.859375 86.703125 211.351562 86.195312 211.351562 85.574219 C 211.351562 84.949219 211.859375 84.445312 212.480469 84.445312 C 213.101562 84.445312 213.609375 84.949219 213.609375 85.574219 Z M 213.609375 85.574219 "/>
<path style=" stroke:none;fill-rule:evenodd;fill:rgb(100%,100%,100%);fill-opacity:1;" d="M 208.347656 93.46875 C 210.421875 93.46875 212.105469 91.785156 212.105469 89.707031 C 212.105469 87.632812 210.421875 85.949219 208.347656 85.949219 C 206.269531 85.949219 204.585938 87.632812 204.585938 89.707031 C 204.585938 91.785156 206.269531 93.46875 208.347656 93.46875 Z M 208.347656 91.964844 C 209.589844 91.964844 210.601562 90.953125 210.601562 89.707031 C 210.601562 88.464844 209.589844 87.453125 208.347656 87.453125 C 207.101562 87.453125 206.089844 88.464844 206.089844 89.707031 C 206.089844 90.953125 207.101562 91.964844 208.347656 91.964844 Z M 208.347656 91.964844 "/>
<path style=" stroke:none;fill-rule:evenodd;fill:rgb(100%,100%,100%);fill-opacity:1;" d="M 200.828125 89.40625 C 200.828125 86.882812 200.828125 85.617188 201.320312 84.652344 C 201.753906 83.804688 202.441406 83.117188 203.292969 82.683594 C 204.257812 82.191406 205.519531 82.191406 208.046875 82.191406 L 208.644531 82.191406 C 211.171875 82.191406 212.433594 82.191406 213.398438 82.683594 C 214.25 83.117188 214.9375 83.804688 215.371094 84.652344 C 215.863281 85.617188 215.863281 86.882812 215.863281 89.40625 L 215.863281 90.007812 C 215.863281 92.535156 215.863281 93.796875 215.371094 94.761719 C 214.9375 95.613281 214.25 96.300781 213.398438 96.734375 C 212.433594 97.226562 211.171875 97.226562 208.644531 97.226562 L 208.046875 97.226562 C 205.519531 97.226562 204.257812 97.226562 203.292969 96.734375 C 202.441406 96.300781 201.753906 95.613281 201.320312 94.761719 C 200.828125 93.796875 200.828125 92.535156 200.828125 90.007812 Z M 208.046875 83.695312 L 208.644531 83.695312 C 209.933594 83.695312 210.808594 83.695312 211.484375 83.75 C 212.144531 83.804688 212.484375 83.902344 212.71875 84.023438 C 213.285156 84.3125 213.742188 84.769531 214.03125 85.335938 C 214.152344 85.570312 214.25 85.910156 214.304688 86.566406 C 214.359375 87.246094 214.359375 88.121094 214.359375 89.40625 L 214.359375 90.007812 C 214.359375 91.296875 214.359375 92.171875 214.304688 92.847656 C 214.25 93.507812 214.152344 93.847656 214.03125 94.082031 C 213.742188 94.648438 213.285156 95.105469 212.71875 95.394531 C 212.484375 95.515625 212.144531 95.613281 211.484375 95.664062 C 210.808594 95.722656 209.933594 95.722656 208.644531 95.722656 L 208.046875 95.722656 C 206.757812 95.722656 205.882812 95.722656 205.207031 95.664062 C 204.546875 95.613281 204.210938 95.515625 203.972656 95.394531 C 203.410156 95.105469 202.949219 94.648438 202.660156 94.082031 C 202.539062 93.847656 202.441406 93.507812 202.390625 92.847656 C 202.332031 92.171875 202.332031 91.296875 202.332031 90.007812 L 202.332031 89.40625 C 202.332031 88.121094 202.332031 87.246094 202.390625 86.566406 C 202.441406 85.910156 202.539062 85.570312 202.660156 85.335938 C 202.949219 84.769531 203.410156 84.3125 203.972656 84.023438 C 204.210938 83.902344 204.546875 83.804688 205.207031 83.75 C 205.882812 83.695312 206.757812 83.695312 208.046875 83.695312 Z M 208.046875 83.695312 "/>
<path style=" stroke:none;fill-rule:nonzero;fill:rgb(7.058824%,45.882353%,69.411765%);fill-opacity:1;" d="M 207.34375 192.449219 C 213.15625 192.449219 217.867188 197.160156 217.867188 202.972656 C 217.867188 208.785156 213.15625 213.496094 207.34375 213.496094 C 201.53125 213.496094 196.820312 208.785156 196.820312 202.972656 C 196.820312 197.160156 201.53125 192.449219 207.34375 192.449219 Z M 207.34375 192.449219 "/>
<path style=" stroke:none;fill-rule:nonzero;fill:rgb(100%,100%,100%);fill-opacity:1;" d="M 204.800781 198.230469 C 204.800781 198.933594 204.191406 199.503906 203.441406 199.503906 C 202.691406 199.503906 202.082031 198.933594 202.082031 198.230469 C 202.082031 197.527344 202.691406 196.957031 203.441406 196.957031 C 204.191406 196.957031 204.800781 197.527344 204.800781 198.230469 Z M 204.800781 198.230469 "/>
<path style=" stroke:none;fill-rule:nonzero;fill:rgb(100%,100%,100%);fill-opacity:1;" d="M 202.269531 200.4375 L 204.59375 200.4375 L 204.59375 207.484375 L 202.269531 207.484375 Z M 202.269531 200.4375 "/>
<path style=" stroke:none;fill-rule:nonzero;fill:rgb(100%,100%,100%);fill-opacity:1;" d="M 208.335938 200.4375 L 206.011719 200.4375 L 206.011719 207.484375 L 208.335938 207.484375 C 208.335938 207.484375 208.335938 205.265625 208.335938 203.878906 C 208.335938 203.046875 208.621094 202.210938 209.753906 202.210938 C 211.035156 202.210938 211.027344 203.296875 211.023438 204.144531 C 211.015625 205.246094 211.03125 206.371094 211.03125 207.484375 L 213.355469 207.484375 L 213.355469 203.765625 C 213.335938 201.390625 212.71875 200.296875 210.683594 200.296875 C 209.476562 200.296875 208.726562 200.84375 208.335938 201.339844 Z M 208.335938 200.4375 "/>
<path style=" stroke:none;fill-rule:nonzero;fill:rgb(93.72549%,27.843137%,43.529412%);fill-opacity:1;" d="M 58.390625 100.492188 L 55.90625 98.027344 L 55.417969 97.539062 C 50.503906 92.648438 42.09375 96.113281 42.09375 103.027344 L 42.09375 121.570312 L 45.558594 118.125 L 55.910156 107.828125 L 53.460938 105.394531 L 45.558594 113.257812 L 45.558594 103.152344 C 45.558594 99.257812 50.292969 97.308594 53.058594 100.0625 L 55.941406 102.929688 L 58.390625 105.363281 L 71.257812 118.164062 L 74.71875 121.605469 L 74.71875 103 C 74.71875 96.082031 66.3125 92.621094 61.394531 97.511719 Z M 71.257812 113.289062 L 60.839844 102.929688 L 63.753906 100.027344 C 66.523438 97.273438 71.257812 99.226562 71.257812 103.117188 Z M 71.257812 113.289062 "/>
</g>
</svg>
