<svg width="122" height="16" viewBox="0 0 122 16" fill="none" xmlns="http://www.w3.org/2000/svg">
<g clip-path="url(#clip0)">
<path d="M9.42819 1.98844L9.77971 1.52761C9.84032 1.45485 9.88881 1.36996 9.96154 1.2972C9.88881 1.13954 9.81608 0.957638 9.69486 0.751478C9.45243 0.690842 9.2706 0.666588 9.07666 0.642334C9.02817 0.727223 8.95544 0.799986 8.90695 0.872748L8.55542 1.33358L8.2039 1.79441L8.04631 2.00057C8.42209 2.04907 8.78574 2.18247 9.12514 2.40076L9.42819 1.98844ZM12.7981 8.57344C12.2647 7.42137 11.101 6.46333 10.507 6.24504C10.4222 3.8075 8.97968 2.89797 7.58569 2.89797H7.29477H7.00385C5.60986 2.89797 4.1795 3.8075 4.08252 6.25717C3.50068 6.47545 2.337 7.51838 1.79153 8.67045C1.1612 10.0166 1.37939 12.8543 1.40364 13.1332L1.45212 13.8972H3.36735C4.77346 13.8972 5.20984 12.4905 5.34318 11.4718C5.76744 12.3207 6.44625 13.6183 7.05234 14.9523L7.29477 15.4495L7.5372 14.8916C8.14329 13.5698 8.8221 12.345 9.24636 11.4839C9.3797 12.5026 9.81608 13.8972 11.2222 13.8972H13.1375L13.186 13.0968C13.2102 12.8058 13.4284 9.93167 12.7981 8.57344ZM4.27647 10.1014C4.27647 11.6416 4.00979 12.5147 3.37947 12.5147H2.54307C2.50671 11.5567 2.51883 10.0287 2.85823 9.31319C3.11279 8.76747 3.51281 8.13686 3.85221 7.80943L4.13101 9.37382L4.27647 10.1014ZM7.00385 4.13493H7.29477H7.58569C8.38572 4.13493 9.19788 4.54725 9.36759 6.06313H7.30689H5.22196C5.40379 4.54725 6.20382 4.13493 7.00385 4.13493ZM7.29477 12.733C7.02809 12.0903 6.66444 11.5446 6.40989 10.9989H8.19177C7.9251 11.5567 7.56145 12.1024 7.29477 12.733ZM9.3797 7.70029C9.33121 8.11261 9.23424 8.93725 9.14939 9.34957H5.45227C5.36742 8.93725 5.27045 8.11261 5.22196 7.70029H9.3797ZM12.0586 12.5147H11.2344C10.604 12.5147 10.3373 11.6416 10.3373 10.1014L10.4828 9.33744L10.7616 7.79731C11.101 8.12474 11.501 8.75534 11.7556 9.31319C12.0829 10.0408 12.095 11.5567 12.0586 12.5147ZM5.17348 1.98844L5.47652 2.37651C5.81592 2.15822 6.17957 2.02482 6.55535 1.97631L6.39777 1.77015L6.03411 1.33358L5.68259 0.872748C5.62198 0.799986 5.56137 0.727223 5.51288 0.642334C5.33106 0.666588 5.13711 0.690842 4.89468 0.751478C4.77346 0.969765 4.70073 1.13954 4.628 1.32145C4.70073 1.39421 4.74922 1.46697 4.80983 1.55186L5.17348 1.98844Z" fill="#9CA0AC"/>
<path d="M19.1748 3.85596H21.3445V12.1873H19.1748V3.85596Z" fill="#9CA0AC"/>
<path d="M28.1207 8.96147C27.5025 8.41575 26.9206 7.71238 26.9206 7.71238C26.9206 7.71238 27.0782 8.77956 27.0782 9.4708V12.1873H25.0781V3.74683H25.2478L29.0904 7.06964C29.7571 7.66387 30.2904 8.33086 30.2904 8.33086C30.2904 8.33086 30.1571 7.25155 30.1571 6.56031V3.85597H32.1572V12.3085H31.9875L28.1207 8.96147Z" fill="#9CA0AC"/>
<path d="M35.8662 3.85596H38.8603C41.321 3.85596 43.1998 5.45673 43.1998 8.01554C43.1998 10.5501 41.3331 12.1751 38.8603 12.1751H35.8662V3.85596ZM38.7633 10.3076C40.3149 10.3076 40.9937 9.43441 40.9937 8.02767C40.9937 6.64518 40.3027 5.74778 38.7633 5.74778H38.0481V10.3076H38.7633Z" fill="#9CA0AC"/>
<path d="M46.6543 8.90082V3.85596H48.8241V8.86444C48.8241 9.88311 49.2726 10.3924 50.2423 10.3924C51.2121 10.3924 51.6606 9.89524 51.6606 8.86444V3.85596H53.8304V8.90082C53.8304 11.1565 52.3273 12.3328 50.2545 12.3328C48.121 12.3328 46.6543 11.1443 46.6543 8.90082Z" fill="#9CA0AC"/>
<path d="M56.7998 10.4046L58.4968 9.41021C58.8483 10.0166 59.3696 10.4895 60.2302 10.4895C60.8242 10.4895 61.2484 10.2712 61.2484 9.88317C61.2484 9.48298 60.9454 9.3132 60.1211 8.97364L59.7696 8.82811C58.3998 8.27027 57.4665 7.60328 57.4665 6.11165C57.4665 4.6564 58.5816 3.69836 60.1938 3.69836C61.3939 3.69836 62.2182 4.05005 62.9091 5.12936L61.2605 6.07527C60.9696 5.61444 60.6666 5.48104 60.2544 5.48104C59.8181 5.48104 59.5393 5.69933 59.5393 6.07527C59.5393 6.52397 59.9029 6.68162 60.3999 6.88778L60.7514 7.03331C62.2788 7.65179 63.394 8.2824 63.394 9.85892C63.394 11.4112 62.2182 12.3207 60.2544 12.3207C58.5695 12.3328 57.3452 11.5203 56.7998 10.4046Z" fill="#9CA0AC"/>
<path d="M68.3764 5.73565H66.0127V3.85596H72.9221V5.73565H70.5583V12.1873H68.3764V5.73565Z" fill="#9CA0AC"/>
<path d="M83.0676 12.1873H80.6312L79.4675 10.1742C79.3584 10.1863 79.2493 10.1863 79.1281 10.1863H78.4735V12.1751H76.3037V3.85596H79.1281C81.3342 3.85596 82.9464 4.85038 82.9464 7.04538C82.9464 8.29446 82.3767 9.1191 81.4797 9.57993L83.0676 12.1873ZM79.0796 8.3551C80.2069 8.3551 80.7282 7.99129 80.7282 7.04538C80.7282 6.09946 80.219 5.72353 79.0796 5.72353H78.4735V8.3551H79.0796Z" fill="#9CA0AC"/>
<path d="M86.498 3.85596H88.6678V12.1873H86.498V3.85596Z" fill="#9CA0AC"/>
<path d="M92.1953 8.01568C92.1953 5.45687 94.2317 3.71057 96.6803 3.71057C99.1167 3.71057 101.165 5.469 101.165 8.01568C101.165 10.5381 99.1289 12.3208 96.6803 12.3208C94.2317 12.3329 92.1953 10.5381 92.1953 8.01568ZM98.947 8.01568C98.947 6.60894 98.0258 5.62665 96.6803 5.62665C95.3348 5.62665 94.4135 6.62107 94.4135 8.01568C94.4135 9.44668 95.3348 10.4047 96.6803 10.4047C98.0258 10.4047 98.947 9.4588 98.947 8.01568Z" fill="#9CA0AC"/>
<path d="M104.608 8.90082V3.85596H106.778V8.86444C106.778 9.88311 107.226 10.3924 108.196 10.3924C109.166 10.3924 109.614 9.89524 109.614 8.86444V3.85596H111.784V8.90082C111.784 11.1565 110.281 12.3328 108.208 12.3328C106.075 12.3328 104.608 11.1443 104.608 8.90082Z" fill="#9CA0AC"/>
<path d="M114.754 10.4046L116.451 9.41021C116.802 10.0166 117.323 10.4895 118.184 10.4895C118.778 10.4895 119.202 10.2712 119.202 9.88317C119.202 9.48298 118.899 9.3132 118.075 8.97364L117.723 8.82811C116.354 8.27027 115.42 7.60328 115.42 6.11165C115.42 4.6564 116.535 3.69836 118.148 3.69836C119.348 3.69836 120.172 4.05005 120.863 5.12936L119.214 6.07527C118.923 5.61444 118.62 5.48104 118.208 5.48104C117.772 5.48104 117.493 5.69933 117.493 6.07527C117.493 6.52397 117.857 6.68162 118.354 6.88778L118.705 7.03331C120.233 7.65179 121.348 8.2824 121.348 9.85892C121.348 11.4112 120.172 12.3207 118.208 12.3207C116.523 12.3328 115.299 11.5203 114.754 10.4046Z" fill="#9CA0AC"/>
</g>
<defs>
<clipPath id="clip0">
<rect width="121" height="15" fill="white" transform="translate(0.570312 0.5)"/>
</clipPath>
</defs>
</svg>
