<svg width="24" height="24" viewBox="0 0 24 24" fill="none" xmlns="http://www.w3.org/2000/svg">
<path fill-rule="evenodd" clip-rule="evenodd" d="M20.8785 2.8783C18.7296 0.729364 15.2455 0.729365 13.0965 2.87831L9.56484 6.41001V6.41001C9.32188 6.65297 9.51887 7.0347 9.86216 7.01998L11.4187 6.9532C11.7086 6.94076 11.9833 6.82003 12.1884 6.61487L14.5108 4.29252C15.8787 2.92463 18.0964 2.92463 19.4643 4.29252C20.8322 5.66041 20.8322 7.8782 19.4643 9.24609L15.9326 12.7778C14.5647 14.1457 12.3469 14.1457 10.9791 12.7778C10.9449 12.7436 10.9116 12.7089 10.8791 12.6737C10.6091 12.3809 10.2425 12.1735 9.84463 12.1906V12.1906C9.0894 12.223 8.59508 12.9922 9.04856 13.597C9.2041 13.8044 9.37619 14.0034 9.56484 14.192C11.7138 16.341 15.1979 16.341 17.3468 14.192L20.8785 10.6603C23.0275 8.51137 23.0275 5.02725 20.8785 2.8783Z" fill="#6E7191"/>
<path fill-rule="evenodd" clip-rule="evenodd" d="M13.3846 11.7234C14.1861 11.6961 14.6913 10.8639 14.1663 10.2575C14.0782 10.1557 13.9859 10.0564 13.8892 9.95973C11.7087 7.7793 8.17358 7.77931 5.99315 9.95973L2.57547 13.3774C0.395039 15.5578 0.395039 19.093 2.57547 21.2734C4.75589 23.4539 8.29107 23.4539 10.4715 21.2734L13.8892 17.8558V17.8558C14.0653 17.6796 13.9271 17.397 13.6782 17.4055L11.877 17.4668C11.5927 17.4765 11.3228 17.5937 11.1217 17.7948L9.05728 19.8592C7.6579 21.2586 5.38906 21.2586 3.98968 19.8592C2.5903 18.4598 2.5903 16.191 3.98968 14.7916L7.40736 11.3739C8.80674 9.97457 11.0756 9.97457 12.475 11.3739V11.3739C12.6926 11.5916 12.9805 11.7372 13.2881 11.7267L13.3846 11.7234Z" fill="#6E7191"/>
</svg>
