<svg width="346" height="80" viewBox="0 0 346 80" fill="none" xmlns="http://www.w3.org/2000/svg">
<path d="M173.306 31.6545V54.2306H164.451V34.2234C164.451 29.0856 161.41 25.9765 156.544 25.9765C150.866 26.1805 147.419 30.5099 147.419 36.3862V54.2306H138.563V34.2234C138.563 29.0856 135.588 25.9765 130.723 25.9765C124.977 26.1805 121.529 30.5099 121.529 36.3862V54.2306H112.742V26.8549C112.742 24.5244 113.668 22.2893 115.316 20.6414C116.964 18.9935 119.199 18.0677 121.529 18.0677V24.7601C124.03 19.9604 128.492 17.7976 134.238 17.7296C140.59 17.7296 144.984 20.9067 146.674 26.3826C149.034 20.5025 153.771 17.7976 160.125 17.7296C168.3 17.7296 173.306 23.0695 173.306 31.6545Z" fill="#262626"/>
<path d="M216.702 36.1161C216.702 47.134 208.995 54.5687 197.707 54.5687C186.285 54.5687 178.578 47.134 178.578 36.1161C178.578 25.1605 186.285 17.7938 197.707 17.7938C208.995 17.7976 216.702 25.1662 216.702 36.1161ZM187.424 36.2502C187.424 42.7404 191.615 47.2058 197.697 47.2058C203.647 47.2058 207.837 42.7442 207.837 36.2502C207.837 29.7562 203.647 25.2946 197.697 25.2946C191.625 25.2965 187.433 29.7619 187.433 36.2521L187.424 36.2502Z" fill="#262626"/>
<path d="M256.38 31.6545V54.2306H247.524V34.2234C247.524 29.1536 244.481 26.0445 239.48 26.0445C233.531 26.1125 230.016 30.5061 230.016 36.4542V54.2306H221.229V26.8549C221.229 24.5244 222.155 22.2893 223.803 20.6414C225.451 18.9935 227.686 18.0677 230.016 18.0677V24.8281C232.585 20.0284 237.115 17.7976 242.995 17.7296C251.31 17.7296 256.38 23.0695 256.38 31.6545Z" fill="#262626"/>
<path d="M284.564 49.8371C282.063 53.0142 278.007 54.6368 272.871 54.6368C265.097 54.6368 260.231 49.8371 260.231 43.4167C260.231 36.7244 265.165 32.6009 273.952 32.5329H284.498V31.5885C284.498 27.3989 281.727 24.898 276.319 24.898C272.939 24.898 269.288 26.0465 265.571 28.2773L262.394 22.1931C267.6 19.2861 271.649 17.7316 278.279 17.7316C287.741 17.7316 293.081 22.5312 293.149 30.576L293.217 54.2325H288.957C288.38 54.2325 287.809 54.1188 287.276 53.8979C286.742 53.677 286.258 53.3532 285.85 52.945C285.442 52.5368 285.118 52.0523 284.898 51.519C284.677 50.9857 284.563 50.4142 284.564 49.8371ZM284.498 41.6582V38.4149H275.372C270.709 38.4149 268.546 39.6994 268.546 42.8746C268.546 45.9176 270.979 47.8764 274.968 47.8764C280.036 47.8764 284.024 45.1734 284.498 41.6582Z" fill="#262626"/>
<path d="M306.059 4.07666V54.2306H297.272V12.8638C297.272 10.5333 298.198 8.29826 299.846 6.65035C301.494 5.00244 303.729 4.07666 306.059 4.07666Z" fill="#262626"/>
<path d="M317.481 67.7494C313.968 67.7494 311.263 66.7351 308.492 64.5062L312.27 57.8139C313.97 59.0983 315.311 59.6385 316.934 59.6385C319.232 59.6385 321.057 58.4901 322.206 55.9892L323.288 53.6224L311.885 26.4809C311.497 25.5592 311.344 24.556 311.438 23.5607C311.532 22.5653 311.871 21.6086 312.424 20.7759C312.977 19.9431 313.728 19.2601 314.609 18.7876C315.49 18.3151 316.474 18.0678 317.474 18.0677L327.75 44.363L337.145 18.0677H346L329.776 58.7602C327.487 64.7744 323.227 67.7494 317.481 67.7494Z" fill="#262626"/>
<path d="M49.0319 15.9465L41.5557 8.4854L40.0842 7.01206C25.2961 -7.78553 0 2.69216 0 23.6135V79.7137L10.4191 69.2945L41.5651 38.141L34.1984 30.7743L10.4191 54.5593V23.9913C10.4191 12.2103 24.6614 6.31128 32.9895 14.6413L41.6633 23.3151L49.03 30.6818L87.7391 69.4041L98.1564 79.8214V23.5323C98.1564 2.60905 72.8603 -7.86865 58.0646 6.92517L49.0319 15.9465ZM87.741 54.6556L56.3967 23.3151L65.1668 14.5431C73.4969 6.21306 87.7391 12.1121 87.7391 23.8912L87.741 54.6556Z" fill="#EF476F"/>
</svg>
