<svg width="35" height="29" viewBox="0 0 35 29" fill="none" xmlns="http://www.w3.org/2000/svg">
<path d="M17.4835 5.68611L14.8177 3.02567L14.293 2.50032C9.01992 -2.77612 0 0.959953 0 8.41997V28.4238L3.71519 24.7086L14.821 13.6001L12.1943 10.9733L3.71519 19.4544V8.55468C3.71519 4.35387 8.79361 2.25044 11.7632 5.22071L14.8561 8.31356L17.4828 10.9403L31.2855 24.7477L35 28.4622V8.39101C35 0.930319 25.9801 -2.80575 20.7043 2.46933L17.4835 5.68611ZM31.2862 19.4888L20.1096 8.31356L23.2368 5.18568C26.2071 2.21541 31.2855 4.31885 31.2855 8.51898L31.2862 19.4888Z" fill="#EF476F"/>
</svg>
