<svg width="174" height="41" viewBox="0 0 174 41" fill="none" xmlns="http://www.w3.org/2000/svg">
<path d="M86.8466 16.6631V27.9764H82.4091V17.9504C82.4091 15.3758 80.8852 13.8177 78.4468 13.8177C75.6015 13.92 73.874 16.0895 73.874 19.0342V27.9764H69.4365V17.9504C69.4365 15.3758 67.9457 13.8177 65.5074 13.8177C62.6279 13.92 60.9005 16.0895 60.9005 19.0342V27.9764H56.4971V14.2579C56.4971 13.09 56.961 11.97 57.7868 11.1442C58.6126 10.3184 59.7326 9.85449 60.9005 9.85449V9.85449V13.2082C62.1537 10.8029 64.3895 9.71913 67.2689 9.68506C70.4522 9.68506 72.6539 11.2772 73.5011 14.0213C74.6833 11.0746 77.0573 9.71913 80.2415 9.68506C84.3382 9.68506 86.8466 12.361 86.8466 16.6631Z" fill="white"/>
<path d="M108.594 18.8989C108.594 24.4202 104.732 28.1459 99.0751 28.1459C93.3512 28.1459 89.4893 24.4202 89.4893 18.8989C89.4893 13.4089 93.3512 9.71729 99.0751 9.71729C104.732 9.71918 108.594 13.4117 108.594 18.8989ZM93.922 18.9661C93.922 22.2185 96.0224 24.4562 99.0703 24.4562C102.052 24.4562 104.151 22.2204 104.151 18.9661C104.151 15.7119 102.052 13.4761 99.0703 13.4761C96.0272 13.477 93.9267 15.7147 93.9267 18.9671L93.922 18.9661Z" fill="white"/>
<path d="M128.477 16.6631V27.9764H124.039V17.9504C124.039 15.4099 122.514 13.8518 120.008 13.8518C117.027 13.8859 115.266 16.0876 115.266 19.0683V27.9764H110.862V14.2579C110.862 13.09 111.326 11.97 112.152 11.1442C112.978 10.3184 114.098 9.85449 115.266 9.85449V13.2422C116.553 10.837 118.823 9.71913 121.77 9.68506C125.936 9.68506 128.477 12.361 128.477 16.6631Z" fill="white"/>
<path d="M142.6 25.7745C141.347 27.3666 139.314 28.1797 136.741 28.1797C132.845 28.1797 130.406 25.7745 130.406 22.5571C130.406 19.2034 132.879 17.1371 137.282 17.103H142.567V16.6298C142.567 14.5303 141.178 13.277 138.468 13.277C136.775 13.277 134.945 13.8525 133.082 14.9704L131.49 11.9216C134.099 10.4648 136.128 9.68579 139.451 9.68579C144.192 9.68579 146.868 12.091 146.902 16.1224L146.936 27.9771H144.802C144.512 27.9771 144.226 27.9201 143.959 27.8094C143.692 27.6987 143.449 27.5365 143.244 27.3319C143.04 27.1274 142.878 26.8845 142.767 26.6173C142.657 26.3501 142.6 26.0637 142.6 25.7745V25.7745ZM142.567 21.6759V20.0506H137.994C135.657 20.0506 134.573 20.6943 134.573 22.2854C134.573 23.8104 135.792 24.7919 137.791 24.7919C140.331 24.7919 142.329 23.4374 142.567 21.6759Z" fill="white"/>
<path d="M153.372 2.84326V27.9763H148.969V7.24666C148.969 6.07881 149.433 4.95879 150.258 4.13299C151.084 3.30719 152.204 2.84326 153.372 2.84326V2.84326Z" fill="white"/>
<path d="M159.096 34.7509C157.336 34.7509 155.98 34.2426 154.592 33.1257L156.485 29.772C157.337 30.4157 158.009 30.6864 158.822 30.6864C159.974 30.6864 160.888 30.1109 161.464 28.8576L162.006 27.6716L156.292 14.0705C156.098 13.6086 156.021 13.1059 156.068 12.6071C156.115 12.1083 156.285 11.6289 156.562 11.2116C156.839 10.7943 157.215 10.452 157.657 10.2152C158.098 9.97843 158.592 9.85452 159.093 9.85449L164.242 23.0316L168.95 9.85449H173.388L165.258 30.2462C164.11 33.2601 161.976 34.7509 159.096 34.7509Z" fill="white"/>
<path d="M24.5708 8.7914L20.8243 5.05249L20.087 4.31417C12.6763 -3.10119 0 2.14938 0 12.6335V40.7463L5.22123 35.5251L20.8291 19.9135L17.1375 16.2219L5.22123 28.141V12.8228C5.22123 6.9191 12.3583 3.96299 16.5317 8.13733L20.8783 12.4839L24.5699 16.1755L43.9677 35.58L49.188 40.8003V12.5928C49.188 2.10774 36.5117 -3.14284 29.0973 4.27063L24.5708 8.7914ZM43.9687 28.1893L28.2615 12.4839L32.6563 8.08811C36.8307 3.91377 43.9677 6.86988 43.9677 12.7726L43.9687 28.1893Z" fill="white"/>
</svg>
