<svg width="100" height="30" viewBox="0 0 100 30" fill="none" xmlns="http://www.w3.org/2000/svg">
<path d="M17.4628 27.3377H17.9628V26.8377V3.16429V2.66429H17.4628H2.94221H2.44221V3.16429V26.8377V27.3377H2.94221H17.4628ZM19.9156 29.3221H0.5V0.677856H19.9156V29.3221Z" fill="#9CA0AC" stroke="#9CA0AC"/>
<mask id="path-2-inside-1" fill="white">
<path d="M32.5819 10.5135H32.5532C30.9246 7.86073 29.2804 5.51752 27.6221 3.15872H26.3567V13.4768H27.7532V6.07682H27.7673C29.412 8.74516 31.0552 11.104 32.714 13.4768H33.9794V3.15872H32.5819V10.5135ZM42.6628 13.4768L39.4186 3.15872H37.9648L34.4442 13.4768H35.9567L36.8447 10.6612H39.913L40.7135 13.4768H42.6628ZM37.2949 9.3929C37.7025 8.03661 38.11 6.78586 38.4733 5.19189H38.503C38.9105 6.78536 39.2738 8.03661 39.6522 9.3929H37.2949ZM44.306 13.4768H46.0517V4.54465H48.7286V3.15872H41.6301V4.54465H44.3065V13.4768H44.306ZM51.0261 3.15872H49.2954V13.4768H51.0261V3.15872ZM56.4095 13.6527C59.0718 13.6527 60.7301 11.2507 60.7301 8.16978C60.7301 5.28084 58.8964 2.98083 56.4095 2.98083C53.9216 2.98083 52.0879 5.28084 52.0879 8.16978C52.0879 11.2512 53.7462 13.6527 56.4095 13.6527ZM56.4095 4.45571C58.1407 4.45571 58.8673 6.26827 58.8673 8.17028C58.8673 10.1452 58.2281 12.1793 56.4095 12.1793C54.5909 12.1793 53.9512 10.1457 53.9512 8.17028C53.9512 6.26827 54.6784 4.45571 56.4095 4.45571ZM63.1869 6.07682H63.203C64.8462 8.74516 66.4894 11.104 68.1482 13.4768H69.4135V3.15872H68.0171V10.5135H67.9879C66.3593 7.86073 64.715 5.51752 63.0567 3.15872H61.7914V13.4768H63.1869V6.07682ZM72.2778 10.6612H75.3482L76.1482 13.4768H78.0969L74.8537 3.15872H73.399L69.8779 13.4768H71.3924L72.2778 10.6612ZM73.909 5.19189H73.9377C74.3442 6.78536 74.708 8.03661 75.0874 9.3929H72.7291C73.1377 8.03661 73.5437 6.78536 73.909 5.19189ZM83.7844 12.0904H80.3376V3.15872H78.606V13.4768H83.7849V12.0904H83.7844ZM31.1588 25.2778C30.7944 25.4698 30.4025 25.5291 29.9371 25.5291C28.4392 25.5291 26.9844 24.0839 26.9844 21.6376C26.9844 19.2944 28.2497 17.805 30.112 17.805C30.7814 17.805 31.5085 18.0552 31.9738 18.3497L32.5407 17.1271C31.9593 16.6839 31.0135 16.3306 30.0678 16.3306C27.0135 16.3306 25.1221 18.7924 25.1221 21.6075C25.1221 24.6442 27.0135 27.0029 30.009 27.0029C30.9985 27.0029 31.9733 26.7391 32.905 26.3688V22.108H31.1588V25.2778ZM36.2346 22.109H39.0864V20.7241H36.2346V17.8939H39.1447V16.5085H34.4899V26.8266H39.6683V25.4396H36.2346V22.109ZM44.5271 16.3311C42.0392 16.3311 40.207 18.6306 40.207 21.52C40.207 24.6004 41.8648 27.0034 44.5271 27.0034C47.1889 27.0034 48.8467 24.6004 48.8467 21.52C48.8467 18.6306 47.014 16.3311 44.5271 16.3311ZM44.5271 25.5291C42.708 25.5291 42.0683 23.4949 42.0683 21.5195C42.0683 19.6175 42.7954 17.8045 44.5271 17.8045C46.2577 17.8045 46.9849 19.617 46.9849 21.5195C46.9849 23.4949 46.3457 25.5291 44.5271 25.5291ZM55.4804 25.2778C55.117 25.4698 54.7236 25.5291 54.2583 25.5291C52.7598 25.5291 51.305 24.0839 51.305 21.6376C51.305 19.2944 52.5708 17.805 54.4336 17.805C55.1025 17.805 55.8301 18.0552 56.2939 18.3497L56.8618 17.1271C56.2804 16.6839 55.3341 16.3306 54.3879 16.3306C51.3346 16.3306 49.4437 18.7924 49.4437 21.6075C49.4437 24.6442 51.3346 27.0029 54.3316 27.0029C55.3196 27.0029 56.2939 26.7391 57.2261 26.3688V22.108H55.4804V25.2778ZM64.703 19.4864C64.703 17.4803 63.4949 16.5085 61.5467 16.5085H58.8261V26.8266H60.5713V22.9351H61.3567L63.0005 26.8266H64.9929L62.9432 22.5512C64.0618 21.9472 64.703 20.7241 64.703 19.4864ZM61.299 21.608C61.1236 21.623 60.7155 21.6381 60.5708 21.6527V17.8944H61.3432C62.3743 17.8944 62.9557 18.4974 62.9557 19.5592C62.9557 20.9442 62.1281 21.5643 61.299 21.608ZM68.5432 16.5085L65.0221 26.8266H66.5341L67.4221 24.0105H70.4914L71.2934 26.8266H73.2412L69.997 16.5085H68.5432ZM67.8743 22.7442C68.2814 21.3869 68.6884 20.1341 69.0522 18.5426H69.0819C69.4884 20.1341 69.8522 21.3869 70.2311 22.7442H67.8743ZM86.0135 20.4733H82.3909V16.5085H80.6598V26.8266H82.3909V21.8582H86.0135V26.8266H87.7583V16.5366H86.0135V20.4733ZM89.4306 26.8256H91.1613V16.5085H89.4306V26.8256ZM97.2713 25.5291C95.5839 25.5291 94.1577 24.0839 94.1577 21.6376C94.1577 19.2944 95.4537 17.805 97.2276 17.805C97.8969 17.805 98.5954 18.114 99.0175 18.3793L99.5698 17.1276C98.9733 16.7145 98.1306 16.3311 97.2281 16.3311C94.1879 16.3311 92.311 18.7929 92.311 21.608C92.311 24.6447 94.2025 27.0034 97.2 27.0034C98.0432 27.0034 98.9738 26.6643 99.4975 26.2964L99.0181 25.0135C98.5668 25.308 97.9407 25.5291 97.2713 25.5291ZM76.5135 16.5085H73.7949V26.8266H75.5407V22.9351H76.3251C78.4065 22.9351 79.6708 21.2241 79.6708 19.4864C79.6703 17.4803 78.4643 16.5085 76.5135 16.5085ZM76.2668 21.608C76.0924 21.6215 75.6713 21.6356 75.5402 21.6492V17.8939H76.3246C77.3437 17.8939 77.9256 18.4969 77.9256 19.5587C77.9251 20.9442 77.0959 21.5643 76.2668 21.608Z"/>
</mask>
<path d="M32.5819 10.5135H32.5532C30.9246 7.86073 29.2804 5.51752 27.6221 3.15872H26.3567V13.4768H27.7532V6.07682H27.7673C29.412 8.74516 31.0552 11.104 32.714 13.4768H33.9794V3.15872H32.5819V10.5135ZM42.6628 13.4768L39.4186 3.15872H37.9648L34.4442 13.4768H35.9567L36.8447 10.6612H39.913L40.7135 13.4768H42.6628ZM37.2949 9.3929C37.7025 8.03661 38.11 6.78586 38.4733 5.19189H38.503C38.9105 6.78536 39.2738 8.03661 39.6522 9.3929H37.2949ZM44.306 13.4768H46.0517V4.54465H48.7286V3.15872H41.6301V4.54465H44.3065V13.4768H44.306ZM51.0261 3.15872H49.2954V13.4768H51.0261V3.15872ZM56.4095 13.6527C59.0718 13.6527 60.7301 11.2507 60.7301 8.16978C60.7301 5.28084 58.8964 2.98083 56.4095 2.98083C53.9216 2.98083 52.0879 5.28084 52.0879 8.16978C52.0879 11.2512 53.7462 13.6527 56.4095 13.6527ZM56.4095 4.45571C58.1407 4.45571 58.8673 6.26827 58.8673 8.17028C58.8673 10.1452 58.2281 12.1793 56.4095 12.1793C54.5909 12.1793 53.9512 10.1457 53.9512 8.17028C53.9512 6.26827 54.6784 4.45571 56.4095 4.45571ZM63.1869 6.07682H63.203C64.8462 8.74516 66.4894 11.104 68.1482 13.4768H69.4135V3.15872H68.0171V10.5135H67.9879C66.3593 7.86073 64.715 5.51752 63.0567 3.15872H61.7914V13.4768H63.1869V6.07682ZM72.2778 10.6612H75.3482L76.1482 13.4768H78.0969L74.8537 3.15872H73.399L69.8779 13.4768H71.3924L72.2778 10.6612ZM73.909 5.19189H73.9377C74.3442 6.78536 74.708 8.03661 75.0874 9.3929H72.7291C73.1377 8.03661 73.5437 6.78536 73.909 5.19189ZM83.7844 12.0904H80.3376V3.15872H78.606V13.4768H83.7849V12.0904H83.7844ZM31.1588 25.2778C30.7944 25.4698 30.4025 25.5291 29.9371 25.5291C28.4392 25.5291 26.9844 24.0839 26.9844 21.6376C26.9844 19.2944 28.2497 17.805 30.112 17.805C30.7814 17.805 31.5085 18.0552 31.9738 18.3497L32.5407 17.1271C31.9593 16.6839 31.0135 16.3306 30.0678 16.3306C27.0135 16.3306 25.1221 18.7924 25.1221 21.6075C25.1221 24.6442 27.0135 27.0029 30.009 27.0029C30.9985 27.0029 31.9733 26.7391 32.905 26.3688V22.108H31.1588V25.2778ZM36.2346 22.109H39.0864V20.7241H36.2346V17.8939H39.1447V16.5085H34.4899V26.8266H39.6683V25.4396H36.2346V22.109ZM44.5271 16.3311C42.0392 16.3311 40.207 18.6306 40.207 21.52C40.207 24.6004 41.8648 27.0034 44.5271 27.0034C47.1889 27.0034 48.8467 24.6004 48.8467 21.52C48.8467 18.6306 47.014 16.3311 44.5271 16.3311ZM44.5271 25.5291C42.708 25.5291 42.0683 23.4949 42.0683 21.5195C42.0683 19.6175 42.7954 17.8045 44.5271 17.8045C46.2577 17.8045 46.9849 19.617 46.9849 21.5195C46.9849 23.4949 46.3457 25.5291 44.5271 25.5291ZM55.4804 25.2778C55.117 25.4698 54.7236 25.5291 54.2583 25.5291C52.7598 25.5291 51.305 24.0839 51.305 21.6376C51.305 19.2944 52.5708 17.805 54.4336 17.805C55.1025 17.805 55.8301 18.0552 56.2939 18.3497L56.8618 17.1271C56.2804 16.6839 55.3341 16.3306 54.3879 16.3306C51.3346 16.3306 49.4437 18.7924 49.4437 21.6075C49.4437 24.6442 51.3346 27.0029 54.3316 27.0029C55.3196 27.0029 56.2939 26.7391 57.2261 26.3688V22.108H55.4804V25.2778ZM64.703 19.4864C64.703 17.4803 63.4949 16.5085 61.5467 16.5085H58.8261V26.8266H60.5713V22.9351H61.3567L63.0005 26.8266H64.9929L62.9432 22.5512C64.0618 21.9472 64.703 20.7241 64.703 19.4864ZM61.299 21.608C61.1236 21.623 60.7155 21.6381 60.5708 21.6527V17.8944H61.3432C62.3743 17.8944 62.9557 18.4974 62.9557 19.5592C62.9557 20.9442 62.1281 21.5643 61.299 21.608ZM68.5432 16.5085L65.0221 26.8266H66.5341L67.4221 24.0105H70.4914L71.2934 26.8266H73.2412L69.997 16.5085H68.5432ZM67.8743 22.7442C68.2814 21.3869 68.6884 20.1341 69.0522 18.5426H69.0819C69.4884 20.1341 69.8522 21.3869 70.2311 22.7442H67.8743ZM86.0135 20.4733H82.3909V16.5085H80.6598V26.8266H82.3909V21.8582H86.0135V26.8266H87.7583V16.5366H86.0135V20.4733ZM89.4306 26.8256H91.1613V16.5085H89.4306V26.8256ZM97.2713 25.5291C95.5839 25.5291 94.1577 24.0839 94.1577 21.6376C94.1577 19.2944 95.4537 17.805 97.2276 17.805C97.8969 17.805 98.5954 18.114 99.0175 18.3793L99.5698 17.1276C98.9733 16.7145 98.1306 16.3311 97.2281 16.3311C94.1879 16.3311 92.311 18.7929 92.311 21.608C92.311 24.6447 94.2025 27.0034 97.2 27.0034C98.0432 27.0034 98.9738 26.6643 99.4975 26.2964L99.0181 25.0135C98.5668 25.308 97.9407 25.5291 97.2713 25.5291ZM76.5135 16.5085H73.7949V26.8266H75.5407V22.9351H76.3251C78.4065 22.9351 79.6708 21.2241 79.6708 19.4864C79.6703 17.4803 78.4643 16.5085 76.5135 16.5085ZM76.2668 21.608C76.0924 21.6215 75.6713 21.6356 75.5402 21.6492V17.8939H76.3246C77.3437 17.8939 77.9256 18.4969 77.9256 19.5587C77.9251 20.9442 77.0959 21.5643 76.2668 21.608Z" fill="#9CA0AC" stroke="#9CA0AC" stroke-width="2" mask="url(#path-2-inside-1)"/>
</svg>
