<svg width="71" height="38" viewBox="0 0 71 38" fill="none" xmlns="http://www.w3.org/2000/svg">
<path d="M21.8758 0.809822H17.2192L10.1509 19.657H14.4948L17.616 11.3028L17.745 11.3305L17.2004 19.657H21.9145L28.9828 0.809822H24.6388L21.4581 9.27906L21.3292 9.25131L21.8758 0.809822Z" fill="#9CA0AC" stroke="#9CA0AC"/>
<mask id="path-2-inside-1" fill="white">
<path d="M22.543 19.7237L29.6614 0.743155H34.1477L27.0293 19.7237H22.543Z"/>
</mask>
<path d="M22.543 19.7237L29.6614 0.743155H34.1477L27.0293 19.7237H22.543Z" fill="#9CA0AC"/>
<path d="M29.6614 0.743155L29.5365 0.696335L29.569 0.609822H29.6614V0.743155ZM34.1477 0.743155V0.609822H34.3401L34.2725 0.789975L34.1477 0.743155ZM27.0293 19.7237L27.1541 19.7705L27.1217 19.857H27.0293V19.7237ZM22.4181 19.6769L29.5365 0.696335L29.7862 0.789975L22.6678 19.7705L22.4181 19.6769ZM29.6614 0.609822H34.1477V0.876488H29.6614V0.609822ZM34.2725 0.789975L27.1541 19.7705L26.9044 19.6769L34.0228 0.696335L34.2725 0.789975ZM27.0293 19.857H22.543V19.5904H27.0293V19.857Z" fill="#9CA0AC" mask="url(#path-2-inside-1)"/>
<path d="M9.24408 13.6314C6.80011 18.7915 7.33649 22.3748 9.31647 24.4644C11.3522 26.6128 14.8898 27.1542 18.183 26.2298C18.183 26.2298 18.183 26.2298 18.183 26.2298L18.1848 26.2293L18.1918 26.2274L18.2199 26.2198L18.3307 26.1898L18.7628 26.0727L20.4033 25.6281L26.2605 24.0408C31.1089 22.7269 37.5757 20.9745 44.0498 19.2203C56.9989 15.7116 69.9749 12.1962 70.0901 12.1675C70.2294 12.1326 70.3338 12.1254 70.4044 12.1343C70.4784 12.1437 70.498 12.1676 70.5017 12.1761C70.5046 12.1828 70.5092 12.2085 70.4676 12.2582C70.4281 12.3055 70.3564 12.3613 70.247 12.4161L70.2465 12.4164L70.2454 12.417M9.24408 13.6314L18.28 34.9082C22.5938 33.1826 70.2752 12.4766 70.2752 12.4766L70.2454 12.417M9.24408 13.6314C6.23426 17.217 3.35589 21.3305 1.80951 25.1102C0.202542 29.038 0.0446789 32.5747 2.62149 34.8002L2.57792 34.8506L2.62149 34.8002C5.13451 36.9705 7.96129 37.4143 10.7018 37.0995C13.3979 36.7898 16.0057 35.7464 18.1437 34.891C18.181 34.876 18.2182 34.8611 18.2553 34.8463C20.411 33.984 33.4084 28.3767 45.8688 22.9841C52.0986 20.288 58.1935 17.6459 62.7311 15.6777C64.9998 14.6936 66.8792 13.8781 68.1914 13.3085C68.8475 13.0237 69.3618 12.8005 69.7121 12.6484L70.1117 12.4749L70.2141 12.4304L70.24 12.4192L70.2454 12.417" fill="#9CA0AC" stroke="#9CA0AC"/>
<path d="M40.0487 18.4817L39.9196 18.4603L39.6321 8.56741L39.6314 8.54049L39.6495 8.52058L46.4326 1.07315L46.5443 1.14143L40.0487 18.4817ZM49.2541 19.6273L50.5167 16.1093H45.3775H45.2814L45.315 16.0193L47.0346 11.4179L47.0508 11.3746H47.097H51.3646L52.6417 7.97062H48.4242H48.3284L48.3616 7.88082L49.8405 3.88339L49.8566 3.83986H49.9031H54.401L55.5557 0.809822H46.6627H46.6224H41.9949L37.3141 6.47977L37.2004 6.41359L39.336 0.809822H34.9353L27.9241 19.657H32.2684L35.2665 11.7626L35.3955 11.7846L35.6003 19.6569L49.2541 19.6273Z" fill="#9CA0AC" stroke="#9CA0AC"/>
</svg>
