<svg width="25" height="24" viewBox="0 0 25 24" fill="none" xmlns="http://www.w3.org/2000/svg">
<path d="M19.5278 9.01449C19.5278 7.15413 18.7874 5.36997 17.4694 4.0545C16.1514 2.73902 14.3639 2 12.5 2C10.6361 2 8.84858 2.73902 7.53061 4.0545C6.21265 5.36997 5.47222 7.15413 5.47222 9.01449C5.47222 14.9603 3.11143 17.8204 1.82033 18.94C1.62287 19.1113 1.7564 19.5362 2.01776 19.5362H8.19854C8.31634 19.5362 8.41848 19.6165 8.45194 19.7295C8.66789 20.4584 9.62683 23 12.5 23C15.3732 23 16.3321 20.4584 16.5481 19.7295C16.5815 19.6165 16.6837 19.5362 16.8015 19.5362H22.9822C23.2436 19.5362 23.3771 19.1113 23.1797 18.94C21.8886 17.8204 19.5278 14.9603 19.5278 9.01449Z" stroke="#6E7191" stroke-width="2" stroke-linecap="round" stroke-linejoin="round"/>
</svg>
