<svg width="61" height="14" viewBox="0 0 61 14" fill="none" xmlns="http://www.w3.org/2000/svg">
<path d="M30.3965 5.55196V9.51162H28.8434V6.00253C28.8434 5.1014 28.31 4.55609 27.4566 4.55609C26.4607 4.59187 25.8561 5.3512 25.8561 6.38186V9.51162H24.303V6.00253C24.303 5.1014 23.7812 4.55609 22.9278 4.55609C21.92 4.59187 21.3154 5.3512 21.3154 6.38186V9.51162H19.7742V4.71014C19.7742 4.30139 19.9365 3.90938 20.2256 3.62036C20.5146 3.33133 20.9066 3.16895 21.3154 3.16895V4.34273C21.754 3.50091 22.5365 3.12158 23.5443 3.10965C24.6584 3.10965 25.429 3.66689 25.7255 4.62732C26.1393 3.59599 26.9702 3.12158 28.0847 3.10965C29.5185 3.10965 30.3965 4.04622 30.3965 5.55196Z" fill="#EF476F"/>
<path d="M38.0076 6.33445C38.0076 8.2669 36.6559 9.57089 34.6761 9.57089C32.6727 9.57089 31.321 8.2669 31.321 6.33445C31.321 4.41294 32.6727 3.12088 34.6761 3.12088C36.6559 3.12154 38.0076 4.41393 38.0076 6.33445ZM32.8725 6.35798C32.8725 7.49631 33.6077 8.27949 34.6744 8.27949C35.718 8.27949 36.4528 7.49697 36.4528 6.35798C36.4528 5.21898 35.718 4.43646 34.6744 4.43646C33.6093 4.43679 32.8742 5.21997 32.8742 6.35831L32.8725 6.35798Z" fill="#EF476F"/>
<path d="M44.9669 5.55196V9.51162H43.4137V6.00253C43.4137 5.11333 42.88 4.56802 42.0027 4.56802C40.9595 4.57994 40.3429 5.35054 40.3429 6.39379V9.51162H38.8018V4.71014C38.8018 4.30139 38.9641 3.90938 39.2532 3.62036C39.5422 3.33133 39.9342 3.16895 40.3429 3.16895V4.35466C40.7935 3.51284 41.588 3.12158 42.6193 3.10965C44.0777 3.10965 44.9669 4.04622 44.9669 5.55196Z" fill="#EF476F"/>
<path d="M49.9101 8.74098C49.4715 9.29822 48.7602 9.5828 47.8594 9.5828C46.4958 9.5828 45.6423 8.74098 45.6423 7.61491C45.6423 6.44113 46.5077 5.71791 48.0489 5.70599H49.8985V5.54034C49.8985 4.80552 49.4125 4.36689 48.464 4.36689C47.8713 4.36689 47.2309 4.56832 46.5789 4.95958L46.0217 3.89247C46.9347 3.38261 47.645 3.10995 48.8079 3.10995C50.4673 3.10995 51.4039 3.95178 51.4158 5.36276L51.4278 9.51191H50.6807C50.5795 9.51191 50.4792 9.49196 50.3857 9.45322C50.2922 9.41447 50.2072 9.35768 50.1357 9.28609C50.0641 9.2145 50.0074 9.12951 49.9687 9.03598C49.9299 8.94245 49.91 8.84221 49.9101 8.74098ZM49.8985 7.30647V6.73764H48.298C47.48 6.73764 47.1007 6.96292 47.1007 7.51983C47.1007 8.05354 47.5274 8.3971 48.2271 8.3971C49.116 8.3971 49.8153 7.92301 49.8985 7.30647Z" fill="#EF476F"/>
<path d="M53.6804 0.714996V9.51157H52.1392V2.25619C52.1392 1.84744 52.3015 1.45543 52.5906 1.1664C52.8796 0.877371 53.2716 0.714996 53.6804 0.714996Z" fill="#EF476F"/>
<path d="M55.6836 11.8827C55.0674 11.8827 54.5929 11.7048 54.1069 11.3138L54.7695 10.14C55.0677 10.3653 55.3029 10.4601 55.5875 10.4601C55.9907 10.4601 56.3107 10.2587 56.5121 9.82002L56.702 9.4049L54.7019 4.64451C54.634 4.48286 54.6071 4.30691 54.6236 4.13233C54.64 3.95775 54.6995 3.78996 54.7965 3.6439C54.8935 3.49784 55.0252 3.37804 55.1797 3.29516C55.3343 3.21229 55.5069 3.16892 55.6822 3.16891L57.4845 7.78089L59.1324 3.16891H60.6855L57.84 10.306C57.4385 11.3609 56.6914 11.8827 55.6836 11.8827Z" fill="#EF476F"/>
<path d="M8.59979 2.79689L7.28852 1.48827L7.03044 1.22986C4.43672 -1.36552 0 0.472182 0 4.14162V13.9811L1.82743 12.1537L7.29017 6.68962L5.99812 5.39756L1.82743 9.56924V4.20788C1.82743 2.14158 4.3254 1.10695 5.78609 2.56796L7.3074 4.08927L8.59945 5.38133L15.3887 12.1729L17.2158 14V4.12737C17.2158 0.457605 12.7791 -1.38009 10.184 1.21462L8.59979 2.79689ZM15.389 9.58614L9.89151 4.08927L11.4297 2.55073C12.8907 1.08972 15.3887 2.12436 15.3887 4.19032L15.389 9.58614Z" fill="#EF476F"/>
</svg>
