<svg width="126" height="126" viewBox="0 0 126 126" fill="none" xmlns="http://www.w3.org/2000/svg">
<path d="M31.5 10.5L15.75 31.5V105C15.75 107.785 16.8562 110.455 18.8254 112.425C20.7945 114.394 23.4652 115.5 26.25 115.5H99.75C102.535 115.5 105.205 114.394 107.175 112.425C109.144 110.455 110.25 107.785 110.25 105V31.5L94.5 10.5H31.5Z" stroke="#FCFCFC" stroke-width="2" stroke-linecap="round" stroke-linejoin="round"/>
<path d="M15.75 31.5H110.25" stroke="#FCFCFC" stroke-width="2" stroke-linecap="round" stroke-linejoin="round"/>
<path d="M84 52.5C84 58.0695 81.7875 63.411 77.8492 67.3492C73.911 71.2875 68.5695 73.5 63 73.5C57.4305 73.5 52.089 71.2875 48.1508 67.3492C44.2125 63.411 42 58.0695 42 52.5" stroke="#FCFCFC" stroke-width="2" stroke-linecap="round" stroke-linejoin="round"/>
</svg>
