<svg width="126" height="126" viewBox="0 0 126 126" fill="none" xmlns="http://www.w3.org/2000/svg">
<path d="M47.25 115.5C50.1495 115.5 52.5 113.149 52.5 110.25C52.5 107.351 50.1495 105 47.25 105C44.3505 105 42 107.351 42 110.25C42 113.149 44.3505 115.5 47.25 115.5Z" stroke="#FCFCFC" stroke-width="2" stroke-linecap="round" stroke-linejoin="round"/>
<path d="M105 115.5C107.899 115.5 110.25 113.149 110.25 110.25C110.25 107.351 107.899 105 105 105C102.101 105 99.75 107.351 99.75 110.25C99.75 113.149 102.101 115.5 105 115.5Z" stroke="#FCFCFC" stroke-width="2" stroke-linecap="round" stroke-linejoin="round"/>
<path d="M5.25 5.25H26.25L40.32 75.5475C40.8001 77.9646 42.115 80.1358 44.0346 81.6811C45.9542 83.2263 48.3562 84.0472 50.82 84H101.85C104.314 84.0472 106.716 83.2263 108.635 81.6811C110.555 80.1358 111.87 77.9646 112.35 75.5475L120.75 31.5H31.5" stroke="#FCFCFC" stroke-width="2" stroke-linecap="round" stroke-linejoin="round"/>
</svg>
