<svg width="56" height="56" viewBox="0 0 56 56" fill="none" xmlns="http://www.w3.org/2000/svg">
<rect x="4" y="4" width="48" height="48" rx="24" fill="#EF476F"/>
<path d="M24.4286 22.116V32H22.4546V22.116H24.4286ZM31.9804 26.904C32.5777 27.0253 33.0537 27.31 33.4084 27.758C33.7724 28.1967 33.9544 28.7147 33.9544 29.312C33.9544 30.1427 33.6744 30.8007 33.1144 31.286C32.5637 31.762 31.761 32 30.7064 32H26.4644V22.116H30.6224C31.621 22.116 32.3864 22.3353 32.9184 22.774C33.4597 23.2127 33.7304 23.8287 33.7304 24.622C33.7304 25.238 33.567 25.742 33.2404 26.134C32.923 26.526 32.503 26.7827 31.9804 26.904ZM28.4384 26.26H30.2164C30.711 26.26 31.0844 26.1527 31.3364 25.938C31.5977 25.714 31.7284 25.3967 31.7284 24.986C31.7284 24.5753 31.6024 24.258 31.3504 24.034C31.0984 23.81 30.711 23.698 30.1884 23.698H28.4384V26.26ZM30.3144 30.39C30.837 30.39 31.2384 30.278 31.5184 30.054C31.7984 29.8207 31.9384 29.4847 31.9384 29.046C31.9384 28.6073 31.7937 28.2713 31.5044 28.038C31.2244 27.7953 30.823 27.674 30.3004 27.674H28.4384V30.39H30.3144Z" fill="#FCFCFC"/>
<path d="M46 17C49.866 17 53 13.866 53 10C53 6.13401 49.866 3 46 3C42.134 3 39 6.13401 39 10C39 13.866 42.134 17 46 17Z" fill="#00BA88" stroke="#FCFCFC" stroke-width="2"/>
</svg>
